<?xml version="1.0" encoding="UTF-8"?>
<svg width="1920px" height="280px" viewBox="0 0 1920 280" version="1.1" xmlns="http://www.w3.org/2000/svg" xmlns:xlink="http://www.w3.org/1999/xlink">
    <!-- Generator: Sketch 52.3 (67297) - http://www.bohemiancoding.com/sketch -->
    <title>Artboard</title>
    <desc>Created with Sketch.</desc>
    <defs>
        <rect id="path-1" x="0" y="0" width="1920" height="280"></rect>
        <polygon id="path-3" points="0 377 1920 377 1920 0 0 0"></polygon>
        <linearGradient x1="30.933626%" y1="0%" x2="93.9985795%" y2="130.442708%" id="linearGradient-5">
            <stop stop-color="#002FA7" offset="0%"></stop>
            <stop stop-color="#3165F3" offset="100%"></stop>
        </linearGradient>
        <linearGradient x1="44.3832492%" y1="97.4400995%" x2="46.007214%" y2="17.7314082%" id="linearGradient-6">
            <stop stop-color="#002FA7" offset="0%"></stop>
            <stop stop-color="#3165F3" offset="100%"></stop>
        </linearGradient>
        <linearGradient x1="0%" y1="0%" x2="100%" y2="100%" id="linearGradient-7">
            <stop stop-color="#3165F3" offset="0%"></stop>
            <stop stop-color="#002FA7" offset="100%"></stop>
        </linearGradient>
        <rect id="path-8" x="0" y="0" width="600" height="230"></rect>
        <polygon id="path-10" points="0 299.287283 337.95328 299.287283 337.95328 0 0 0"></polygon>
    </defs>
    <g id="Artboard" stroke="none" stroke-width="1" fill="none" fill-rule="evenodd">
        <g id="banner/二级/单图片" transform="translate(3.000000, 0.000000)">
            <g id="背景/二级banner高280px" fill-rule="evenodd" stroke-width="1">
                <g id="编组">
                    <mask id="mask-2" fill="white">
                        <use xlink:href="#path-1"></use>
                    </mask>
                    <use id="矩形" fill="#002FA7" xlink:href="#path-1"></use>
                    <g id="编组-48" opacity="0.198696403" mask="url(#mask-2)">
                        <g transform="translate(0.000000, -46.000000)">
                            <mask id="mask-4" fill="white">
                                <use xlink:href="#path-3"></use>
                            </mask>
                            <use id="Fill-3" stroke="none" fill="#002FA7" fill-rule="evenodd" transform="translate(960.000000, 188.500000) scale(-1, 1) translate(-960.000000, -188.500000) " xlink:href="#path-3"></use>
                            <path d="M1344,0 L1344,377 L1919,377 L1919,229.412048 C1894.93991,215.014579 1863.55713,211.04714 1835.25691,215.9045 C1809.18981,219.706257 1791.55695,237.191166 1770.09016,250.115356 C1714.12303,282.806302 1642.82319,314.73531 1586.08968,269.881121 C1546.99002,238.712068 1502.52368,237.952113 1457.28994,234.150356 C1427.38991,231.8695 1423.55699,196.899681 1416.65652,171.052295 C1412.05621,152.045492 1391.3568,142.92306 1381.39079,125.437159 C1367.58986,99.5887805 1384.45633,69.9406288 1412.82359,61.5771594 C1461.89025,47.8940076 1512.49068,50.9338261 1556.19065,19.0048184 C1564.52184,12.8081127 1572.45883,6.41794584 1580.21773,0 L1344,0 Z" id="Fill-10" stroke="none" fill="url(#linearGradient-5)" fill-rule="evenodd" mask="url(#mask-4)" transform="translate(1631.500000, 188.500000) scale(-1, 1) translate(-1631.500000, -188.500000) "></path>
                            <path d="M1887,229.142558 C1862.91828,214.762064 1831.5073,210.800293 1803.18064,215.651926 C1777.0911,219.44821 1759.44239,236.912504 1737.95631,249.821456 C1681.93887,282.472868 1610.57495,314.365222 1553.79044,269.564908 C1514.65564,238.431613 1470.14932,237.672554 1424.87493,233.875279 C1394.94802,231.598103 1391.11165,196.668524 1384.20498,170.850621 C1379.60154,151.867219 1358.88253,142.755542 1348.90756,125.290257 C1335.09422,99.4733453 1351.97686,69.8591584 1380.36861,61.5065407 C1429.47938,47.8385306 1480.12429,50.8757561 1523.86453,18.9834023 C1532.20321,12.7940026 1540.14633,6.41037896 1547.91321,0" id="Stroke-14" stroke="#FFFFFF" stroke-width="1" fill="none" mask="url(#mask-4)" transform="translate(1615.500000, 145.839474) scale(-1, 1) translate(-1615.500000, -145.839474) "></path>
                            <path d="M1451,185.523684 C1466.82527,191.173704 1481.28104,200.726488 1492.95382,213.050643 C1505.97511,226.751544 1505.97511,245.780627 1509.04,263.28794 C1511.33716,277.749725 1523.59373,288.406092 1538.91319,291.450626 C1563.42532,296.778809 1587.93744,296.017924 1606.32179,313.524243 C1637.72743,342.447814 1671.43223,369.850608 1718.15832,360.717006 C1771.77892,350.821525 1821.5689,342.447814 1874.42277,356.910593 C1890.52794,361.196781 1905.44554,368.810599 1918,378.984211" id="Stroke-16" stroke="#FFFFFF" stroke-width="1" fill="none" mask="url(#mask-4)" transform="translate(1684.500000, 282.253947) scale(-1, 1) translate(-1684.500000, -282.253947) "></path>
                            <path d="M203.510627,0 C195.754202,6.41993005 187.828875,12.8081127 179.504784,19.009779 C135.849529,50.9348182 85.3093345,47.8890471 36.2982378,61.5801357 C7.95495278,69.9436051 -8.8851161,99.5877884 4.89675629,125.433191 C14.850886,142.92306 35.5286917,152.040532 40.1259805,171.049319 C47.0119196,196.90365 50.8496564,231.865531 80.7120456,234.147379 C125.8954,237.947152 170.320201,238.711076 209.376168,269.883105 C266.04275,314.736302 337.26175,282.810271 393.167781,250.120316 C414.615132,237.193151 432.224747,219.702289 458.268389,215.902516 C486.252885,211.100713 517.264597,214.93025 541.199482,228.998339 L542.532695,377 L1885,377 L1885,203.761099 C1851.30987,252.779165 1792.82336,314.642052 1722.84263,290.876108 C1674.96187,274.61546 1618.08741,298.861584 1562.34928,323.106716 C1512.34776,344.855705 1463.26071,366.605686 1422.40081,359.114279 C1384.92191,352.247901 1311.66611,347.119695 1228.2553,349.212051 C1144.84349,347.119695 1071.58769,352.247901 1034.1098,359.114279 C947.700755,374.95725 778.87032,374.95725 733.666977,290.876108 C733.127296,289.871102 732.573622,288.873042 732.007956,287.881926 C726.444237,278.13149 719.704212,269.068584 712.310572,260.613841 C704.542153,251.731499 696.033171,243.498988 687.09944,235.777413 C677.990811,227.905037 668.426452,220.556494 658.576261,213.62166 C648.94694,206.842586 639.039782,200.455396 628.93774,194.392625 C619.57626,188.774318 610.045881,183.433801 600.384578,178.339327 C592.05549,173.946274 583.62846,169.737752 575.11548,165.706818 C568.57134,162.609457 561.976229,159.616267 555.329149,156.746099 C554.2258,156.268895 520.467708,143.005405 509.614109,141.012261 C494.145231,138.172848 478.268594,138.005182 462.631815,139.380243 C446.913085,140.763241 431.462197,143.801076 416.144231,147.487749 C390.869136,153.568378 370.960877,167.249545 347.984427,181.694636 C328.076167,194.621802 315.823393,214.38459 295.145587,224.266977 C281.363715,231.111529 265.273204,234.911302 249.962233,230.348598 C233.881717,225.78391 226.985783,211.339811 217.031654,197.657652 C210.13572,188.54018 200.181591,184.730486 189.457915,183.976484 C160.355078,180.176711 120.538559,188.54018 107.516238,160.404001 C92.9648198,128.478962 125.125853,99.5877884 153.469138,82.1068476 C176.445589,68.415759 202.480235,73.7443704 227.75533,69.9436051 C244.595398,66.8978339 257.617719,57.0164395 266.812296,43.3352719 C275.627098,29.4755249 273.168548,12.1245503 282.42309,0 L203.510627,0 Z" id="Clip-21" stroke="none" fill="none" mask="url(#mask-4)" transform="translate(942.500000, 188.500000) scale(-1, 1) translate(-942.500000, -188.500000) "></path>
                            <path d="M-3.98784234,0 L-3.98784234,217.876209 C-3.98784234,217.876209 -4.33903829,362.914209 -1.2663238,380.408644 C1.03395969,394.865879 571.914495,419.190292 571.914495,419.190292 C571.914495,419.190292 728.380799,431.893118 756.648572,434.188642 C743.65132,432.194952 727.678407,422.251321 717.275603,416.891789 C698.769277,407.357223 680.374013,395.987826 665.713833,381.111599 C649.857986,365.02208 643.434402,342.035068 630.498184,323.572581 C616.70949,303.890845 599.459865,286.438111 578.792333,273.86833 C554.998057,259.397195 526.307048,251.990357 498.414484,254.587715 C468.42275,257.380669 446.955772,266.189444 422.120915,281.152051 C366.149684,313.86724 294.850902,345.816924 238.118246,300.930096 C199.016429,269.734004 154.541613,268.969491 109.306373,265.166784 C79.4096912,262.884168 75.5675474,227.894305 68.6737008,202.020016 C64.0701322,182.996555 43.3685813,173.873039 33.4040213,156.367682 C19.6063226,130.503322 36.4657297,100.836255 64.8415626,92.4663296 C113.908941,78.7646722 164.507173,50.9731439 208.211559,19.0224676 C216.54621,12.8170069 224.480637,6.4229001 232.244969,0 L-3.98784234,0 Z M761,434.542105 C761,434.542105 759.456139,434.41601 756.648572,434.188642 C758.143406,434.417996 759.597217,434.542105 761,434.542105 Z" id="Fill-1" stroke="none" fill="url(#linearGradient-6)" fill-rule="evenodd" mask="url(#mask-4)"></path>
                            <path d="M232.60471,0 C224.84566,6.42389297 216.916631,12.8179997 208.587651,19.0234605 C164.913,50.9741368 114.349192,78.7656651 65.3151967,92.4673224 C36.9586694,100.837248 20.1107327,130.504315 33.8990441,156.368675 C43.8578245,173.873039 64.545291,182.997548 69.1447278,202.021009 C76.0338841,227.895298 79.8734139,262.884168 109.749755,265.167777 C154.954219,268.970484 199.398776,269.734996 238.473991,300.931089 C295.167048,345.81891 366.418322,313.868233 422.352472,281.153044 C447.170433,266.189444 468.622806,257.381662 498.593136,254.588708 C526.466722,251.990357 555.139211,259.398188 578.916299,273.869323 C599.569769,286.439104 616.807658,303.892831 630.587971,323.573574 C643.514388,342.036061 649.934602,365.023073 665.779661,381.112592 C680.429867,395.988819 698.811616,407.358216 717.305351,416.891789 C728.896931,422.867896 747.406665,434.542105 761,434.542105" id="Stroke-3" stroke="#5988FF" stroke-width="1" fill="none" mask="url(#mask-4)"></path>
                            <path d="M1602.43193,-0.992105263 C1611.69125,11.1365547 1609.23043,28.4934103 1618.05079,42.3578551 C1627.24912,56.0436598 1640.27817,65.9284035 1657.12694,68.9752071 C1682.4151,72.7772606 1708.4642,67.4468431 1731.45153,81.1425723 C1759.80946,98.6294382 1791.98712,127.530404 1777.42818,159.466264 C1764.39913,187.61198 1724.56303,179.246669 1695.44415,183.046737 C1684.71493,183.800995 1674.75666,187.61198 1667.85716,196.732542 C1657.89689,210.419339 1650.99739,224.868334 1634.90856,229.434569 C1619.59068,233.99882 1603.49085,230.197759 1589.70185,223.350887 C1569.01436,213.46515 1556.75426,193.695663 1536.83671,180.764116 C1513.84838,166.314129 1493.92983,152.628324 1468.64067,146.545634 C1453.31479,142.857712 1437.85692,139.818848 1422.13006,138.43538 C1406.4852,137.059853 1390.59936,137.227576 1375.12349,140.067951 C1364.26328,142.061771 1330.48874,155.329757 1329.38482,155.807123 C1322.7333,158.678264 1316.13478,161.672468 1309.58726,164.770878 C1301.07088,168.803179 1292.6395,173.013127 1284.3061,177.40767 C1274.63981,182.50387 1265.1035,187.846197 1255.73718,193.466408 C1245.63092,199.531235 1235.71764,205.92059 1226.08435,212.701961 C1216.22906,219.639145 1206.65976,226.990179 1197.54542,234.865223 C1188.60808,242.589416 1180.0947,250.824718 1172.32226,259.71007 C1164.9238,268.167679 1158.18129,277.233657 1152.6147,286.987398 C1152.04874,287.978849 1151.49578,288.977248 1150.95482,289.983587 C1118.2482,350.807511 1030.31361,363.675542 968.118139,364.519119 C923.695375,365.12054 881.404456,358.675608 839.740491,343.40487 C796.868615,327.692494 750.995957,320.408947 705.956238,323.755468 C658.359705,327.290554 614.986865,348.917897 567.629315,354.777287 C544.220021,357.674232 517.411974,357.165108 494.031677,360.278405 C472.44725,363.151531 448.843969,361.472316 427.032558,358.484066 C409.57083,356.090291 392.600067,350.771783 376.119267,344.704972 C339.466938,331.213686 317.079569,296.095058 280.334246,282.831042 C248.051598,271.178755 199.064166,278.804696 165.029646,288.792654 C163.766738,289.162835 162.511829,289.559813 161.26592,289.982594 C50.1410158,327.714328 -32,149.69069 -32,149.69069 L-29.7001675,405.77006 L1341.92091,405.771053 L1343.52079,228.084845 C1367.46904,214.010995 1398.49678,210.18016 1426.49474,214.98359 C1452.55185,218.784651 1470.17056,236.281441 1491.629,249.212989 C1547.56592,281.914023 1618.82073,313.850876 1675.5166,268.982476 C1714.59276,237.799881 1759.04052,237.035699 1804.24722,233.234638 C1834.12505,230.952016 1837.96477,195.978284 1844.85327,170.11519 C1849.45393,151.09996 1870.14142,141.979398 1880.1007,124.483601 C1893.88969,98.6294382 1877.04092,68.9752071 1848.68399,60.6098954 C1799.64656,46.9131737 1749.08124,49.9599772 1705.40443,18.024117 C1697.07403,11.8203487 1689.14461,5.43000081 1681.38518,-0.992105263 L1602.43193,-0.992105263 Z" id="Fill-5" stroke="none" fill="url(#linearGradient-5)" fill-rule="evenodd" mask="url(#mask-4)"></path>
                            <path d="M1602.38628,0.992105263 C1611.64535,13.1047113 1609.1856,30.4410025 1618.00471,44.2882288 C1627.20279,57.9570371 1640.23249,67.8295048 1657.0798,70.8725245 C1682.36727,74.668865 1708.41566,69.3460586 1731.40235,83.0247789 C1759.76051,100.489928 1791.93629,129.35401 1777.37875,161.2512 C1764.34905,189.361962 1724.51404,181.006048 1695.39696,184.802388 C1684.66803,185.555709 1674.70903,189.361962 1667.80972,198.471196 C1657.85072,212.140005 1650.95041,226.572046 1634.86202,231.131619 C1619.54456,235.691193 1603.44617,231.894852 1589.65755,225.055492 C1568.96962,215.183024 1556.70985,195.438089 1536.79185,182.522601 C1513.80515,168.09056 1493.88615,154.421752 1468.59868,148.345625 C1453.27421,144.663274 1437.81576,141.627192 1422.08934,140.246435 C1406.44491,138.872615 1390.5595,139.039139 1375.08405,141.876978 C1364.22413,143.867331 1330.45052,157.11983 1329.34663,157.595612 C1322.69529,160.464178 1316.09696,163.454663 1309.55061,166.549226 C1301.03346,170.576519 1292.60231,174.78223 1284.26914,179.170324 C1274.60311,184.260195 1265.06807,189.595888 1255.70101,195.209119 C1245.59502,201.266413 1235.68201,207.647834 1226.04898,214.420783 C1216.19396,221.350343 1206.62492,228.691256 1197.51084,236.55652 C1188.57373,244.27112 1180.06058,252.495203 1172.28836,261.370512 C1164.8901,269.817618 1158.14778,278.872336 1152.58134,288.613964 C1152.01539,289.604184 1151.46145,290.601343 1150.9215,291.60544 C1118.21578,352.354818 1030.28359,365.206868 968.089817,366.048406 C923.669267,366.650072 881.378503,360.213144 839.716677,344.96137 C796.845971,329.268508 750.972567,321.994006 705.935078,325.33538 C658.339846,328.867067 614.968191,350.46656 567.611935,356.319664 C544.203279,359.213011 517.396965,358.70452 494.017307,361.81395 C472.432469,364.683508 448.829833,363.006378 427.020018,360.02184 C409.558767,357.630046 392.587467,352.319134 376.107118,346.259858 C339.45579,332.785327 317.069032,297.710313 280.325713,284.462769 C248.043947,272.824954 199.056854,280.441424 165.023263,290.416977 C163.76039,290.786699 162.506516,291.183184 161.25964,291.60544 C50.1377719,329.290315 -32,151.487766 -32,151.487766" id="Stroke-7" stroke="#5988FF" stroke-width="1" fill="none" mask="url(#mask-4)"></path>
                            <path d="M1199,0 L1199,186.893281 C1214.8458,192.538375 1229.32024,202.072532 1241.0129,214.38459 C1254.04489,228.065758 1254.04489,247.074545 1257.11796,264.556478 C1259.42025,279.000576 1271.69249,289.645894 1287.02778,292.691665 C1311.57226,298.010355 1336.11674,297.24544 1354.5351,314.736302 C1385.97646,343.626483 1419.73012,370.988818 1466.51677,361.871347 C1520.21132,351.989953 1570.07004,343.626483 1622.99281,358.071574 C1637.43321,361.899126 1650.91266,368.395448 1662.59731,377 L1918,377 C1889.03311,361.881268 1857.24441,339.199698 1849.69889,314.081511 C1849.47066,313.324532 1849.22742,312.571523 1848.97016,311.824465 C1848.52071,310.519843 1848.02722,309.230103 1847.49769,307.956237 C1846.95415,306.650623 1846.37157,305.360883 1845.75596,304.086024 C1845.12733,302.781402 1844.46267,301.493646 1843.76898,300.220772 C1843.06027,298.92111 1842.32153,297.638315 1841.55577,296.370401 C1840.77599,295.077684 1839.96819,293.801834 1839.13736,292.540865 C1838.29352,291.260053 1837.42465,289.994124 1836.53476,288.743076 C1835.63386,287.476154 1834.71194,286.223122 1833.77,284.984971 C1832.81906,283.733923 1831.84909,282.496764 1830.8621,281.273495 C1829.86911,280.04229 1828.85911,278.824973 1827.83308,277.619562 C1826.80506,276.410183 1825.76102,275.213701 1824.70597,274.029124 C1823.64891,272.845539 1822.57884,271.672868 1821.49677,270.512101 C1820.41969,269.357288 1819.3296,268.211403 1818.23051,267.077424 C1817.13942,265.952374 1816.03832,264.837244 1814.92621,263.733028 C1813.82812,262.64171 1812.72201,261.55932 1811.6059,260.485859 C1810.50781,259.431249 1809.4027,258.384575 1808.28959,257.34683 C1807.20051,256.330911 1806.10241,255.32293 1804.99931,254.322885 C1803.92424,253.349627 1802.84216,252.382322 1801.75408,251.422954 C1800.70103,250.493349 1799.64197,249.57168 1798.57791,248.654973 C1797.55289,247.773981 1796.52386,246.898942 1795.48883,246.028863 C1794.49984,245.198469 1793.50685,244.372043 1792.50886,243.55157 C1791.56291,242.773757 1790.61397,242.000905 1789.66002,241.233014 C1788.76312,240.510759 1787.86423,239.792473 1786.96133,239.08014 C1786.12149,238.41642 1785.28065,237.756668 1784.43481,237.100884 C1783.66003,236.499667 1782.88126,235.901426 1782.10148,235.305169 C1781.39678,234.769431 1780.69007,234.233693 1779.98237,233.702915 C1779.35474,233.232656 1778.72611,232.765373 1778.09649,232.299082 C1777.55495,231.900255 1777.0114,231.500436 1776.46786,231.105577 C1776.12452,230.856558 1775.78218,230.607538 1775.43783,230.359511 C1774.58198,229.743412 1773.73614,229.129298 1772.83224,228.582646 C1771.93034,228.036987 1771.00241,227.53498 1770.07148,227.039919 C1768.39081,226.148014 1766.68511,225.305714 1764.95638,224.512028 C1763.21865,223.714373 1761.45789,222.964339 1759.67812,222.261927 C1757.88833,221.556538 1756.07953,220.898771 1754.25571,220.287632 C1752.42088,219.67451 1750.57004,219.108016 1748.70618,218.587159 C1746.83331,218.063326 1744.94843,217.587115 1743.05154,217.155548 C1741.14664,216.721997 1739.23173,216.334082 1737.30881,215.989821 C1735.37889,215.644567 1733.44095,215.344951 1731.49802,215.088987 C1729.54907,214.831039 1727.59512,214.616744 1725.63617,214.447093 C1723.67622,214.276451 1721.71226,214.148469 1719.7453,214.063148 C1717.77834,213.977826 1715.81137,213.935166 1713.84241,213.934174 C1711.87745,213.933181 1709.91249,213.973858 1707.94853,214.056203 C1705.98958,214.138548 1704.03263,214.262561 1702.07968,214.428243 C1700.13474,214.591941 1698.1928,214.797307 1696.25687,215.044342 C1694.33195,215.288401 1692.41304,215.57512 1690.49913,215.902516 C1664.41412,219.702289 1646.77653,237.193151 1625.29511,250.120316 C1569.30027,282.810271 1497.96814,314.736302 1441.21154,269.883105 C1402.09353,238.711076 1357.59816,237.947152 1312.34303,234.147379 C1282.4332,231.865531 1278.58937,196.90365 1271.69249,171.049319 C1267.0879,152.040532 1246.37725,142.92306 1236.4073,125.433191 C1222.60354,99.5877884 1239.47036,69.9436051 1267.85867,61.5801357 C1316.94762,47.8890471 1367.5681,50.9348182 1411.2927,19.009779 C1419.63002,12.8081127 1427.56793,6.41993005 1435.33668,0 L1199,0 Z" id="Fill-24" stroke="none" fill="url(#linearGradient-5)" fill-rule="evenodd" mask="url(#mask-4)" transform="translate(1558.500000, 188.500000) scale(-1, 1) translate(-1558.500000, -188.500000) "></path>
                            <path d="M1358.32615,-0.992105263 C1350.57771,5.41715359 1342.65953,11.7966941 1334.34195,17.9880183 C1290.72705,49.8659086 1240.23242,46.8247301 1191.26551,60.495174 C1162.94778,68.8460322 1146.12289,98.4455151 1159.89234,124.250955 C1169.8375,141.715442 1190.49666,150.819165 1195.0898,169.799289 C1201.96953,195.614634 1205.80381,230.523797 1235.63928,232.802204 C1280.78189,236.596248 1325.16564,237.359019 1364.1874,268.484044 C1420.80289,313.269607 1491.95668,281.391717 1547.81331,248.751055 C1569.24132,235.843383 1586.83506,218.378895 1612.85622,214.584852 C1614.76437,214.25795 1616.67851,213.971663 1618.59965,213.726982 C1620.53076,213.480319 1622.46687,213.276253 1624.40698,213.111812 C1626.35507,212.94737 1628.30716,212.823544 1630.26024,212.741323 C1632.21932,212.659102 1634.18039,212.618487 1636.14046,212.619478 C1638.10453,212.620468 1640.0676,212.663065 1642.02867,212.748257 C1643.98975,212.83345 1645.94982,212.960248 1647.9049,213.131624 C1649.85799,213.302009 1651.80808,213.514991 1653.75118,213.771559 C1655.69028,214.028128 1657.6234,214.327293 1659.54852,214.672026 C1661.46666,215.014777 1663.37681,215.402107 1665.27697,215.835004 C1667.16815,216.26592 1669.04934,216.742404 1670.91755,217.265447 C1672.77678,217.785519 1674.62302,218.350167 1676.45229,218.964347 C1678.27257,219.573573 1680.07688,220.230349 1681.86222,220.934674 C1683.63757,221.635036 1685.39394,222.383939 1687.12736,223.180391 C1688.85178,223.973871 1690.55324,224.814901 1692.22874,225.705461 C1693.15835,226.198785 1694.08397,226.701026 1694.98363,227.245862 C1695.88528,227.791689 1696.72903,228.404878 1697.58275,229.020048 C1697.92524,229.26671 1698.26773,229.515354 1698.60922,229.763998 C1699.15241,230.160242 1699.6946,230.557478 1700.23479,230.956694 C1700.86285,231.422282 1701.48992,231.88886 1702.11499,232.35841 C1702.82193,232.889378 1703.52688,233.422327 1704.22883,233.959239 C1705.00767,234.552615 1705.78351,235.150945 1706.55735,235.751256 C1707.4001,236.40605 1708.23984,237.063816 1709.07759,237.726536 C1709.97825,238.438786 1710.87491,239.154998 1711.76957,239.876164 C1712.72016,240.643888 1713.66774,241.415574 1714.61133,242.192214 C1715.60685,243.01145 1716.59737,243.835639 1717.5839,244.665772 C1718.61635,245.533548 1719.64282,246.408258 1720.6643,247.287922 C1721.72671,248.203247 1722.78314,249.123525 1723.83357,250.051729 C1724.91895,251.00965 1725.99834,251.974506 1727.06974,252.947287 C1728.17109,253.945824 1729.26546,254.952286 1730.35284,255.966672 C1731.46318,257.002852 1732.56553,258.047948 1733.6609,259.100968 C1734.77324,260.17281 1735.87759,261.252577 1736.97295,262.34225 C1738.0813,263.445792 1739.18066,264.55924 1740.26903,265.682594 C1741.3654,266.814863 1742.45277,267.958029 1743.52717,269.112092 C1744.60656,270.271108 1745.67297,271.442011 1746.72739,272.623811 C1747.78182,273.806602 1748.82227,275.00128 1749.84774,276.207845 C1750.87121,277.411438 1751.87871,278.62791 1752.86923,279.857259 C1753.85376,281.078683 1754.82131,282.313976 1755.7699,283.562147 C1756.70949,284.799422 1757.62912,286.049574 1758.52778,287.315576 C1759.41546,288.564737 1760.28216,289.828758 1761.12391,291.107638 C1761.95267,292.366706 1762.75847,293.640633 1763.5363,294.930409 C1764.30016,296.196411 1765.03706,297.478263 1765.74401,298.775965 C1766.43598,300.04692 1767.09799,301.332734 1767.72605,302.635389 C1768.34013,303.907334 1768.92027,305.19612 1769.46246,306.499765 C1769.99167,307.771711 1770.48294,309.059507 1770.93226,310.361171 C1771.18888,311.108092 1771.43152,311.858976 1771.65918,312.615803 C1784.05068,353.904506 1861.97437,388.595734 1885,393.865789" id="Stroke-26" stroke="#5988FF" stroke-width="1" fill="none" mask="url(#mask-4)" transform="translate(1520.000000, 196.436842) scale(-1, 1) translate(-1520.000000, -196.436842) "></path>
                            <ellipse id="椭圆形" stroke="none" fill="url(#linearGradient-7)" fill-rule="evenodd" mask="url(#mask-4)" transform="translate(550.500000, 120.540789) scale(-1, 1) translate(-550.500000, -120.540789) " cx="550.5" cy="120.540789" rx="76.5" ry="75.8960526"></ellipse>
                            <ellipse id="椭圆形备份-9" stroke="none" fill="url(#linearGradient-7)" fill-rule="evenodd" mask="url(#mask-4)" transform="translate(1538.500000, 7.440789) scale(-1, 1) translate(-1538.500000, -7.440789) " cx="1538.5" cy="7.44078947" rx="37.5" ry="37.2039474"></ellipse>
                            <ellipse id="椭圆形备份-7" stroke="none" fill="url(#linearGradient-7)" fill-rule="evenodd" mask="url(#mask-4)" transform="translate(905.500000, -41.172368) scale(-1, 1) translate(-905.500000, 41.172368) " cx="905.5" cy="-41.1723684" rx="117.5" ry="116.572368"></ellipse>
                            <ellipse id="椭圆形备份-6" stroke="none" fill="url(#linearGradient-7)" fill-rule="evenodd" mask="url(#mask-4)" transform="translate(1136.000000, 314.497368) scale(-1, 1) translate(-1136.000000, -314.497368) " cx="1136" cy="314.497368" rx="52" ry="51.5894737"></ellipse>
                            <ellipse id="椭圆形备份-8" stroke="none" fill="url(#linearGradient-7)" fill-rule="evenodd" mask="url(#mask-4)" transform="translate(808.000000, 182.547368) scale(-1, 1) translate(-808.000000, -182.547368) " cx="808" cy="182.547368" rx="19" ry="18.85"></ellipse>
                        </g>
                    </g>
                </g>
            </g>
            <text id="SUPPORT" opacity="0.14" font-family="Helvetica-Bold, Helvetica" font-size="68" font-weight="bold" line-spacing="84" fill="#FFFFFF">
                <tspan x="252" y="126">CERTIFICATION</tspan>
            </text>
            <text id="新闻" font-family="PingFangSC-Medium, PingFang SC" font-size="54" font-weight="400" line-spacing="76" fill="#FFFFFF">
                <tspan x="252" y="149">人才评定</tspan>
            </text>
            <g id="插画/二级banner" transform="translate(1068.000000, 50.000000)">
                <mask id="mask-9" fill="white">
                    <use xlink:href="#path-8"></use>
                </mask>
                <g id="矩形"></g>
                <g id="插画/openEuler/二级Banner插画/16" mask="url(#mask-9)" fill-rule="evenodd" stroke-width="1">
                    <g id="编组" transform="translate(131.000000, 0.578035)">
                        <polygon id="Fill-1" fill="#000000" points="29.6159522 107.605202 136.50528 107.605202 136.50528 102.695376 29.6159522 102.695376"></polygon>
                        <polygon id="Fill-2" fill="#000000" points="52.4719044 119.519653 159.360655 119.519653 159.360655 114.609827 52.4719044 114.609827"></polygon>
                        <polygon id="Fill-3" fill="#FFFFFF" points="147.777522 134.823699 337.665461 134.823699 337.665461 18.916763 147.777522 18.916763"></polygon>
                        <path d="M147.488549,135.112717 L337.95328,135.112717 L337.95328,18.6271676 L147.488549,18.6271676 L147.488549,135.112717 Z M148.065341,134.534104 L337.375911,134.534104 L337.375911,19.2052023 L148.065341,19.2052023 L148.065341,134.534104 Z" id="Fill-4" fill="#000000"></path>
                        <polygon id="Fill-5" fill="#DBDDE2" points="147.488549 18.6271676 337.95328 18.6271676 337.95328 0 147.488549 0"></polygon>
                        <polygon id="Fill-6" fill="#000000" points="251.364717 126.660116 306.860741 126.660116 306.860741 124.609827 251.364717 124.609827"></polygon>
                        <polygon id="Stroke-7" stroke="#000000" stroke-linecap="round" stroke-linejoin="round" points="251.364717 126.660116 306.860741 126.660116 306.860741 124.609827 251.364717 124.609827"></polygon>
                        <g>
                            <path d="M190.147264,30.0321387 C190.147264,30.0321387 188.12907,31.7778035 188.102537,34.9338728 C188.075428,38.0905202 188.928503,42.2419653 184.176892,44.3182659 C179.425281,46.3939884 178.085394,50.8269364 180.400059,55.6309827 C182.714725,60.4356069 190.39067,57.7489017 191.730558,61.9003468 C193.071022,66.0512139 193.581483,68.0546821 199.296336,68.3963006 C205.011189,68.7379191 210.128486,63.3656647 219.509428,65.8078613 C228.891524,68.2494798 242.414984,64.586474 243.633169,61.4119075 C244.85193,58.237341 216.951356,40.7772254 216.951356,40.7772254 L190.147264,30.0321387 Z" id="Fill-8" fill="#F79C2F"></path>
                            <path d="M170.313874,78.4075145 C175.876454,69.5653179 195.50468,72.3208092 195.50468,72.3208092 L222.101703,70.783237 C222.101703,70.783237 240.32371,66.8745665 246.077785,78.6 C251.83186,90.3254335 268.711096,135.112717 268.711096,135.112717 L250.105523,135.112717 L239.513895,107.760694 C239.513895,107.760694 236.992738,116.262428 236.64897,122.388439 L238.405877,122.233526 L240.669209,133.986705 L238.343007,134.748555 C238.343584,134.750289 238.344161,134.752023 238.344738,134.753179 L237.254601,135.112717 C237.254601,135.112717 200.044031,147.415029 182.781229,146.646243 C165.519004,145.876879 164.751294,87.249711 170.313874,78.4075145" id="Fill-10" fill="#EFEFEF"></path>
                            <path d="M194.098057,35.542659 C194.098057,35.542659 191.413091,38.3617341 191.285044,42.2062428 C191.215829,44.2912139 189.01133,46.7536416 186.581883,46.7536416 L189.075931,47.9073988 C190.307382,48.476763 191.081436,49.7253179 191.034716,51.0836994 C190.92974,54.1732948 191.017412,59.4160694 192.81931,59.5056647 C195.376805,59.6345665 199.852709,58.0964162 200.491795,60.5310983 C201.13088,62.9657803 201.866289,71.776185 193.137699,72.0831214 C193.137699,72.0831214 206.373341,81.8033526 209.186931,82.06 C211.999945,82.3160694 222.101876,70.7831214 222.101876,70.7831214 C222.101876,70.7831214 213.023173,70.526474 212.639607,66.810289 C212.255463,63.094104 212.639607,47.9727168 212.639607,47.9727168 C212.639607,47.9727168 212.895126,29.5195376 202.026061,31.9542197 C191.156996,34.3894798 194.098057,35.542659 194.098057,35.542659" id="Fill-12" fill="#FFFFFF"></path>
                            <path d="M194.098057,35.542659 C194.098057,35.542659 191.413091,38.3617341 191.285044,42.2062428 C191.215829,44.2912139 189.01133,46.7536416 186.581883,46.7536416 L189.075931,47.9073988 C190.307382,48.476763 191.081436,49.7253179 191.034716,51.0836994 C190.92974,54.1732948 191.017412,59.4160694 192.81931,59.5056647 C195.376805,59.6345665 199.852709,58.0964162 200.491795,60.5310983 C201.13088,62.9657803 201.866289,71.776185 193.137699,72.0831214 C193.137699,72.0831214 206.373341,81.8033526 209.186931,82.06 C211.999945,82.3160694 222.101876,70.7831214 222.101876,70.7831214 C222.101876,70.7831214 213.023173,70.526474 212.639607,66.810289 C212.255463,63.094104 212.639607,47.9727168 212.639607,47.9727168 C212.639607,47.9727168 212.895126,29.5195376 202.026061,31.9542197 C191.156996,34.3894798 194.098057,35.542659 194.098057,35.542659 Z" id="Stroke-14" stroke="#000000" stroke-linecap="round" stroke-linejoin="round"></path>
                            <path d="M196.621002,24.5475723 C195.455306,25.2915029 194.050818,25.5568208 192.680361,25.3724277 C189.481473,24.942948 184.086163,24.8886127 183.996183,29.3915029 C183.890054,34.7221387 188.386146,36.9481503 192.550006,37.6198266 C193.961992,37.8475723 195.127112,38.8527746 195.607579,40.2019075 C196.109388,41.6117341 196.961886,43.2082659 198.317924,43.6157803 C200.875419,44.3845665 203.432914,39.7712717 206.373398,42.3342775 C209.315037,44.8972832 204.839132,47.3319653 205.222699,51.0487283 C205.606265,54.7643353 207.908241,57.9678035 214.813016,57.7117341 C221.718368,57.4556647 227.856009,53.9065318 232.970999,56.8984393 C238.085989,59.8909249 238.21346,65.4007514 245.246859,65.9134682 C252.279682,66.4256069 253.430381,61.1718497 258.161228,60.4030636 C262.892651,59.6342775 272.355497,62.0689595 275.168511,56.0458382 C277.982101,50.0227168 266.345327,49.3822543 263.404265,44.7689595 C260.463781,40.1556647 255.60431,37.977052 249.977705,38.2336994 C244.351678,38.4897688 237.957941,44.0001734 233.099047,42.5909249 C228.239576,41.1805202 221.218866,30.7573988 216.859473,26.7007514 C213.55561,23.626185 203.395999,20.2250289 196.621002,24.5475723" id="Fill-16" fill="#FFCA6E"></path>
                            <path d="M199.443533,43.6621965 C199.443533,43.6621965 194.870151,45.2824277 196.478246,49.636763 C197.197506,51.5853179 198.47683,52.4593064 199.670212,52.8298266 C202.313649,53.6512139 205.132431,51.8304046 205.054564,49.0575723 C205.05341,49.0280925 205.052257,48.9974566 205.051103,48.9679769 C204.910366,45.9442775 202.330953,45.4951445 201.231011,45.7726012 C200.130492,46.0512139 198.619298,46.9760694 198.881738,48.8483237 C199.144178,50.72 200.885513,50.9928324 201.833182,50.6720231 C202.80969,50.3425434 203.635079,48.8304046 202.386325,47.7905202" id="Stroke-18" stroke="#000000" stroke-linecap="round" stroke-linejoin="round"></path>
                            <path d="M237.254947,135.112486 L240.668978,133.987052 L238.405647,122.233873 C238.405647,122.233873 189.878422,126.654682 186.58148,124.732717 C183.285114,122.810751 185.467118,94.169711 185.467118,94.169711" id="Stroke-20" stroke="#000000" stroke-linecap="round" stroke-linejoin="round"></path>
                            <path d="M236.625783,122.39237 C236.625783,122.39237 236.870919,116.851908 238.789329,110.700462 C240.707161,104.549595 240.669093,94.1698266 240.669093,94.1698266" id="Stroke-22" stroke="#000000" stroke-linecap="round" stroke-linejoin="round"></path>
                            <path d="M238.64738,123.679942 C238.64738,123.679942 251.004568,119.657399 259.166749,122.479364 C267.329506,125.301329 264.939858,133.456243 254.862728,131.563179 C244.786175,129.66896 240.219715,131.844682 240.219715,131.844682 L238.64738,123.679942 Z" id="Fill-24" fill="#FFFFFF"></path>
                            <path d="M238.64738,123.679942 C238.64738,123.679942 251.004568,119.657399 259.166749,122.479364 C267.329506,125.301329 264.939858,133.456243 254.862728,131.563179 C244.786175,129.66896 240.219715,131.844682 240.219715,131.844682 L238.64738,123.679942 Z" id="Stroke-26" stroke="#000000" stroke-linecap="round" stroke-linejoin="round"></path>
                            <path d="M324.910402,9.31317919 C324.910402,10.693526 326.027071,11.8120231 327.403873,11.8120231 C328.781252,11.8120231 329.897344,10.693526 329.897344,9.31317919 C329.897344,7.9334104 328.781252,6.81491329 327.403873,6.81491329 C326.027071,6.81491329 324.910402,7.9334104 324.910402,9.31317919" id="Fill-28" fill="#FFFFFF"></path>
                            <path d="M313.77111,9.16023121 C313.77111,10.540578 314.887779,11.6590751 316.264581,11.6590751 C317.64196,11.6590751 318.758052,10.540578 318.758052,9.16023121 C318.758052,7.77988439 317.64196,6.66138728 316.264581,6.66138728 C314.887779,6.66138728 313.77111,7.77988439 313.77111,9.16023121" id="Fill-30" fill="#FFCA6E"></path>
                            <path d="M302.631818,9.16023121 C302.631818,10.540578 303.748487,11.6590751 305.125289,11.6590751 C306.502668,11.6590751 307.61876,10.540578 307.61876,9.16023121 C307.61876,7.77988439 306.502668,6.66138728 305.125289,6.66138728 C303.748487,6.66138728 302.631818,7.77988439 302.631818,9.16023121" id="Fill-32" fill="#3165E8"></path>
                            <polygon id="Fill-34" fill="#000000" points="273.154585 126.659884 324.634984 126.659884 333.918448 93.4610405 282.438049 93.4610405"></polygon>
                            <polygon id="Stroke-36" stroke="#000000" stroke-linecap="round" stroke-linejoin="round" points="273.154585 126.659884 324.634984 126.659884 333.918448 93.4610405 282.438049 93.4610405"></polygon>
                            <mask id="mask-11" fill="white">
                                <use xlink:href="#path-10"></use>
                            </mask>
                            <g id="Clip-39"></g>
                            <polygon id="Fill-38" fill="#3165E8" mask="url(#mask-11)" points="243.672044 135.112717 337.95328 135.112717 337.95328 126.660116 243.672044 126.660116"></polygon>
                            <polygon id="Fill-40" fill="#FFFFFF" mask="url(#mask-11)" points="0 268.548555 143.088205 268.548555 143.088205 172.75896 0 172.75896"></polygon>
                            <polygon id="Fill-41" fill="#DBDDE2" mask="url(#mask-11)" points="0 188.040462 143.088205 188.040462 143.088205 172.75896 0 172.75896"></polygon>
                            <path d="M16.9745792,233.375029 C16.9745792,233.375029 29.9650843,228.748439 50.6822925,233.056532 C73.4621082,237.793526 82.668859,268.548439 82.668859,268.548439 L-0.000403754266,268.548439 L-0.000403754266,247.350751 C7.19161331,236.896416 16.9745792,233.375029 16.9745792,233.375029" id="Fill-42" fill="#3165E8" mask="url(#mask-11)"></path>
                            <path d="M49.1830952,200.858324 C49.1830952,200.858324 50.3476379,205.208035 49.6058836,207.860636 C48.8652829,210.513237 52.1472283,211.893006 52.1472283,211.893006 L50.073085,212.412081 C49.2880713,212.609191 48.6807096,213.234046 48.5134399,214.027688 C48.0439314,216.254855 46.9180338,220.593006 45.2655253,220.593006 C43.0425696,220.593006 39.3366823,217.834046 39.01887,220.593006 C38.7016345,223.351387 38.5960816,228.975087 41.0307198,229.717861 C43.4659348,230.460636 50.6827539,233.05659 50.6827539,233.05659 C50.6827539,233.05659 36.0547369,239.652543 34.1490167,239.565838 C32.2432966,239.478555 16.9744638,233.375087 16.9744638,233.375087 C16.9744638,233.375087 26.7378188,229.399364 27.4789962,228.76237 C28.0777061,228.248497 30.0584092,216.448497 30.7972795,211.931734 C30.9691635,210.879711 31.0326106,209.817861 30.9812761,208.753121 C30.818044,205.363526 30.8284263,197.140405 34.7309997,196.720173 C39.6539177,196.189538 47.7007403,195.234624 49.1830952,200.858324" id="Fill-43" fill="#FFFFFF" mask="url(#mask-11)"></path>
                            <path d="M49.1830952,200.858324 C49.1830952,200.858324 50.3476379,205.208035 49.6058836,207.860636 C48.8652829,210.513237 52.1472283,211.893006 52.1472283,211.893006 L50.073085,212.412081 C49.2880713,212.609191 48.6807096,213.234046 48.5134399,214.027688 C48.0439314,216.254855 46.9180338,220.593006 45.2655253,220.593006 C43.0425696,220.593006 39.3366823,217.834046 39.01887,220.593006 C38.7016345,223.351387 38.5960816,228.975087 41.0307198,229.717861 C43.4659348,230.460636 50.6827539,233.05659 50.6827539,233.05659 C50.6827539,233.05659 36.0547369,239.652543 34.1490167,239.565838 C32.2432966,239.478555 16.9744638,233.375087 16.9744638,233.375087 C16.9744638,233.375087 26.7378188,229.399364 27.4789962,228.76237 C28.0777061,228.248497 30.0584092,216.448497 30.7972795,211.931734 C30.9691635,210.879711 31.0326106,209.817861 30.9812761,208.753121 C30.818044,205.363526 30.8284263,197.140405 34.7309997,196.720173 C39.6539177,196.189538 47.7007403,195.234624 49.1830952,200.858324 Z" id="Stroke-44" stroke="#000000" stroke-linecap="round" stroke-linejoin="round" mask="url(#mask-11)"></path>
                            <path d="M44.559186,193.688728 C45.503971,194.194509 46.6264078,194.260405 47.6092611,193.833237 C49.8495205,192.858092 54.0301075,191.732081 56.0644522,195.659249 C58.6057969,200.563873 51.4431962,203.707225 47.1426365,202.706069 C46.3408959,202.518786 45.5258891,202.891618 45.179814,203.640751 C44.7126126,204.65578 43.8791485,205.797977 42.5127287,205.739017 C40.0775137,205.632659 38.5824693,201.471387 35.419343,202.767919 C33.0902577,203.722832 36.1599437,207.754624 34.7312304,211.043642 C33.3019403,214.333237 30.7975102,211.932081 30.7975102,211.932081 C30.7975102,211.932081 26.3544829,209.166763 27.3033055,201.797977 C27.6903328,198.788728 29.0873225,195.959827 31.4371724,194.046532 C34.0690734,191.903757 38.347715,190.364451 44.559186,193.688728" id="Fill-45" fill="#000000" mask="url(#mask-11)"></path>
                            <path d="M44.559186,193.688728 C45.503971,194.194509 46.6264078,194.260405 47.6092611,193.833237 C49.8495205,192.858092 54.0301075,191.732081 56.0644522,195.659249 C58.6057969,200.563873 51.4431962,203.707225 47.1426365,202.706069 C46.3408959,202.518786 45.5258891,202.891618 45.179814,203.640751 C44.7126126,204.65578 43.8791485,205.797977 42.5127287,205.739017 C40.0775137,205.632659 38.5824693,201.471387 35.419343,202.767919 C33.0902577,203.722832 36.1599437,207.754624 34.7312304,211.043642 C33.3019403,214.333237 30.7975102,211.932081 30.7975102,211.932081 C30.7975102,211.932081 26.3544829,209.166763 27.3033055,201.797977 C27.6903328,198.788728 29.0873225,195.959827 31.4371724,194.046532 C34.0690734,191.903757 38.347715,190.364451 44.559186,193.688728 Z" id="Stroke-46" stroke="#000000" stroke-linecap="round" stroke-linejoin="round" mask="url(#mask-11)"></path>
                            <path d="M41.0082826,205.176647 C41.0082826,205.176647 44.4955659,207.32289 42.4012348,210.630405 C41.4639481,212.110751 40.2544157,212.605549 39.2046546,212.700347 C36.8796068,212.909595 34.8746785,210.907283 35.4283986,208.633873 C35.4341666,208.609595 35.4405113,208.58474 35.446856,208.560462 C36.0963235,206.091098 38.303129,206.177225 39.161972,206.601503 C40.0202382,207.02578 41.1034532,208.056416 40.5572314,209.554104 C40.0110096,211.051792 38.5263474,210.969133 37.8007433,210.536185 C37.053798,210.091098 36.6390846,208.698035 37.8526546,208.06104" id="Stroke-47" stroke="#000000" stroke-linecap="round" stroke-linejoin="round" mask="url(#mask-11)"></path>
                            <path d="M15.3444502,251.248382 C15.3444502,251.248382 12.0469314,262.781329 12.0653887,268.548382" id="Stroke-48" stroke="#000000" stroke-linecap="round" stroke-linejoin="round" mask="url(#mask-11)"></path>
                            <path d="M61.8578645,251.248382 L61.8578645,262.589422" id="Stroke-49" stroke="#000000" stroke-linecap="round" stroke-linejoin="round" mask="url(#mask-11)"></path>
                            <polygon id="Fill-50" fill="#104EB2" mask="url(#mask-11)" points="80.84637 254.179769 46.6091618 268.547977 79.2163563 268.547977 85.5454928 265.088439"></polygon>
                            <path d="M81.8675799,256.54948 C81.8675799,256.54948 89.2649348,250.636185 95.5871498,249.976069 C100.890174,249.422312 105.198809,256.300925 106.83632,258.072601 C108.146791,259.489364 104.543573,260.597457 100.065361,254.837919 C100.065361,254.837919 97.8210645,258.028092 91.5571055,259.32578 C85.5457812,260.570867 84.4694877,262.589364 84.4694877,262.589364 L81.8675799,256.54948 Z" id="Fill-51" fill="#FFFFFF" mask="url(#mask-11)"></path>
                            <path d="M81.8675799,256.54948 C81.8675799,256.54948 89.2649348,250.636185 95.5871498,249.976069 C100.890174,249.422312 105.198809,256.300925 106.83632,258.072601 C108.146791,259.489364 104.543573,260.597457 100.065361,254.837919 C100.065361,254.837919 97.8210645,258.028092 91.5571055,259.32578 C85.5457812,260.570867 84.4694877,262.589364 84.4694877,262.589364 L81.8675799,256.54948 Z" id="Stroke-52" stroke="#000000" stroke-linecap="round" stroke-linejoin="round" mask="url(#mask-11)"></path>
                            <path d="M131.707699,180.399017 C131.707699,181.531387 132.623644,182.449884 133.753579,182.449884 C134.883514,182.449884 135.79946,181.531387 135.79946,180.399017 C135.79946,179.266647 134.883514,178.348728 133.753579,178.348728 C132.623644,178.348728 131.707699,179.266647 131.707699,180.399017" id="Fill-53" fill="#FFFFFF" mask="url(#mask-11)"></path>
                            <path d="M121.670137,180.399017 C121.670137,181.531387 122.586082,182.449884 123.716017,182.449884 C124.845953,182.449884 125.761898,181.531387 125.761898,180.399017 C125.761898,179.266647 124.845953,178.348728 123.716017,178.348728 C122.586082,178.348728 121.670137,179.266647 121.670137,180.399017" id="Fill-54" fill="#FFCA6E" mask="url(#mask-11)"></path>
                            <path d="M111.632633,180.399017 C111.632633,181.531387 112.548578,182.449884 113.678513,182.449884 C114.808448,182.449884 115.724394,181.531387 115.724394,180.399017 C115.724394,179.266647 114.808448,178.348728 113.678513,178.348728 C112.548578,178.348728 111.632633,179.266647 111.632633,180.399017" id="Fill-55" fill="#3165E8" mask="url(#mask-11)"></path>
                            <polygon id="Fill-56" fill="#FFCA6E" mask="url(#mask-11)" points="88.6148328 268.547977 143.087628 268.547977 143.087628 264.895954 88.6148328 264.895954"></polygon>
                            <polygon id="Fill-57" fill="#000000" mask="url(#mask-11)" points="95.5109556 264.895954 139.729546 264.895954 139.729546 263.695376 95.5109556 263.695376"></polygon>
                            <polygon id="Stroke-58" stroke="#000000" stroke-linecap="round" stroke-linejoin="round" mask="url(#mask-11)" points="95.5109556 264.895954 139.729546 264.895954 139.729546 263.695376 95.5109556 263.695376"></polygon>
                            <polygon id="Fill-59" fill="#000000" mask="url(#mask-11)" points="117.014735 239.735665 143.088032 239.735665 143.088032 264.89578 109.042895 264.89578"></polygon>
                            <polygon id="Fill-60" fill="#FFCA6E" mask="url(#mask-11)" points="69.9452355 220.653179 143.088205 220.653179 143.088205 188.039884 69.9452355 188.039884"></polygon>
                            <polygon id="Fill-61" fill="#EFEFEF" mask="url(#mask-11)" points="69.9452355 220.653179 143.088205 220.653179 143.088205 208.383237 69.9452355 208.383237"></polygon>
                            <polygon id="Fill-62" fill="#EFEFEF" mask="url(#mask-11)" points="69.9452355 208.383237 76.8448191 208.383237 76.8448191 188.039884 69.9452355 188.039884"></polygon>
                            <polygon id="Fill-63" fill="#000000" mask="url(#mask-11)" points="287.849279 239.78815 279.44946 244.648266 267.709439 224.269075 276.109258 219.409538"></polygon>
                            <path d="M315.742008,297.923526 C310.890612,300.730462 304.687216,299.065145 301.886315,294.202717 L273.371458,244.707919 L290.939383,234.543179 L319.454817,284.038555 C322.255141,288.900405 320.592827,295.117168 315.742008,297.923526" id="Fill-64" fill="#DDDFE4" mask="url(#mask-11)"></path>
                            <path d="M287.94393,140.299017 C303.012616,166.455087 294.070036,199.900751 267.970207,215.002486 C241.869801,230.103642 208.49605,221.141792 193.427364,194.985723 C178.358678,168.829075 187.301258,135.38341 213.401087,120.282254 C239.501494,105.181098 272.875244,114.142948 287.94393,140.299017" id="Fill-65" fill="#FFFFFF" opacity="0.504383176" mask="url(#mask-11)"></path>
                            <path d="M267.970265,215.002659 C241.870435,230.103815 208.496108,221.141965 193.427422,194.985896 C178.358735,168.829249 187.301316,135.383584 213.401145,120.282428 C239.500974,105.181272 272.875302,114.143121 287.943988,140.299191 C303.012674,166.45526 294.070094,199.900925 267.970265,215.002659 M203.614142,103.293988 C168.151251,123.811908 156.001708,169.25526 176.47551,204.793988 C196.949889,240.332139 242.294954,252.509017 277.757268,231.991098 C313.219005,211.472601 325.369701,166.029249 304.895899,130.491098 C284.420944,94.9523699 239.075879,82.7760694 203.614142,103.293988" id="Fill-66" fill="#FFCA6E" mask="url(#mask-11)"></path>
                            <path d="M75.7166143,42.6777457 C75.7166143,52.1476879 68.0562423,59.8245665 58.6066621,59.8245665 C49.1570819,59.8245665 41.4967099,52.1476879 41.4967099,42.6777457 C41.4967099,33.2078035 49.1570819,25.5309249 58.6066621,25.5309249 C68.0562423,25.5309249 75.7166143,33.2078035 75.7166143,42.6777457" id="Fill-67" fill="#FF8885" mask="url(#mask-11)"></path>
                        </g>
                    </g>
                </g>
            </g>
        </g>
    </g>
</svg>