<?xml version="1.0" encoding="UTF-8"?>
<svg width="338px" height="230px" viewBox="0 0 338 230" version="1.1" xmlns="http://www.w3.org/2000/svg" xmlns:xlink="http://www.w3.org/1999/xlink">
    <!-- Generator: Sketch 63.1 (92452) - https://sketch.com -->
    <title>插画/二级banner插画</title>
    <desc>Created with Sketch.</desc>
    <defs>
        <rect id="path-1" x="0" y="0" width="600" height="230"></rect>
        <polygon id="path-3" points="0 299.287283 337.95328 299.287283 337.95328 0 0 0"></polygon>
    </defs>
    <g id="页面-1" stroke="none" stroke-width="1" fill="none" fill-rule="evenodd">
        <g id="画板" transform="translate(-2159.000000, -51.000000)">
            <g id="插画/二级banner" transform="translate(2028.000000, 51.000000)">
                <mask id="mask-2" fill="white">
                    <use xlink:href="#path-1"></use>
                </mask>
                <g id="矩形"></g>
                <g id="插画/openEuler/二级Banner插画/16" mask="url(#mask-2)" fill-rule="evenodd" stroke-width="1">
                    <g id="编组" transform="translate(131.000000, 0.578035)">
                        <polygon id="Fill-1" fill="#000000" points="29.6159522 107.605202 136.50528 107.605202 136.50528 102.695376 29.6159522 102.695376"></polygon>
                        <polygon id="Fill-2" fill="#000000" points="52.4719044 119.519653 159.360655 119.519653 159.360655 114.609827 52.4719044 114.609827"></polygon>
                        <polygon id="Fill-3" fill="#FFFFFF" points="147.777522 134.823699 337.665461 134.823699 337.665461 18.916763 147.777522 18.916763"></polygon>
                        <path d="M147.488549,135.112717 L337.95328,135.112717 L337.95328,18.6271676 L147.488549,18.6271676 L147.488549,135.112717 Z M148.065341,134.534104 L337.375911,134.534104 L337.375911,19.2052023 L148.065341,19.2052023 L148.065341,134.534104 Z" id="Fill-4" fill="#000000"></path>
                        <polygon id="Fill-5" fill="#DBDDE2" points="147.488549 18.6271676 337.95328 18.6271676 337.95328 0 147.488549 0"></polygon>
                        <polygon id="Fill-6" fill="#000000" points="251.364717 126.660116 306.860741 126.660116 306.860741 124.609827 251.364717 124.609827"></polygon>
                        <polygon id="Stroke-7" stroke="#000000" stroke-linecap="round" stroke-linejoin="round" points="251.364717 126.660116 306.860741 126.660116 306.860741 124.609827 251.364717 124.609827"></polygon>
                        <g>
                            <path d="M190.147264,30.0321387 C190.147264,30.0321387 188.12907,31.7778035 188.102537,34.9338728 C188.075428,38.0905202 188.928503,42.2419653 184.176892,44.3182659 C179.425281,46.3939884 178.085394,50.8269364 180.400059,55.6309827 C182.714725,60.4356069 190.39067,57.7489017 191.730558,61.9003468 C193.071022,66.0512139 193.581483,68.0546821 199.296336,68.3963006 C205.011189,68.7379191 210.128486,63.3656647 219.509428,65.8078613 C228.891524,68.2494798 242.414984,64.586474 243.633169,61.4119075 C244.85193,58.237341 216.951356,40.7772254 216.951356,40.7772254 L190.147264,30.0321387 Z" id="Fill-8" fill="#F79C2F"></path>
                            <path d="M170.313874,78.4075145 C175.876454,69.5653179 195.50468,72.3208092 195.50468,72.3208092 L222.101703,70.783237 C222.101703,70.783237 240.32371,66.8745665 246.077785,78.6 C251.83186,90.3254335 268.711096,135.112717 268.711096,135.112717 L250.105523,135.112717 L239.513895,107.760694 C239.513895,107.760694 236.992738,116.262428 236.64897,122.388439 L238.405877,122.233526 L240.669209,133.986705 L238.343007,134.748555 C238.343584,134.750289 238.344161,134.752023 238.344738,134.753179 L237.254601,135.112717 C237.254601,135.112717 200.044031,147.415029 182.781229,146.646243 C165.519004,145.876879 164.751294,87.249711 170.313874,78.4075145" id="Fill-10" fill="#EFEFEF"></path>
                            <path d="M194.098057,35.542659 C194.098057,35.542659 191.413091,38.3617341 191.285044,42.2062428 C191.215829,44.2912139 189.01133,46.7536416 186.581883,46.7536416 L189.075931,47.9073988 C190.307382,48.476763 191.081436,49.7253179 191.034716,51.0836994 C190.92974,54.1732948 191.017412,59.4160694 192.81931,59.5056647 C195.376805,59.6345665 199.852709,58.0964162 200.491795,60.5310983 C201.13088,62.9657803 201.866289,71.776185 193.137699,72.0831214 C193.137699,72.0831214 206.373341,81.8033526 209.186931,82.06 C211.999945,82.3160694 222.101876,70.7831214 222.101876,70.7831214 C222.101876,70.7831214 213.023173,70.526474 212.639607,66.810289 C212.255463,63.094104 212.639607,47.9727168 212.639607,47.9727168 C212.639607,47.9727168 212.895126,29.5195376 202.026061,31.9542197 C191.156996,34.3894798 194.098057,35.542659 194.098057,35.542659" id="Fill-12" fill="#FFFFFF"></path>
                            <path d="M194.098057,35.542659 C194.098057,35.542659 191.413091,38.3617341 191.285044,42.2062428 C191.215829,44.2912139 189.01133,46.7536416 186.581883,46.7536416 L189.075931,47.9073988 C190.307382,48.476763 191.081436,49.7253179 191.034716,51.0836994 C190.92974,54.1732948 191.017412,59.4160694 192.81931,59.5056647 C195.376805,59.6345665 199.852709,58.0964162 200.491795,60.5310983 C201.13088,62.9657803 201.866289,71.776185 193.137699,72.0831214 C193.137699,72.0831214 206.373341,81.8033526 209.186931,82.06 C211.999945,82.3160694 222.101876,70.7831214 222.101876,70.7831214 C222.101876,70.7831214 213.023173,70.526474 212.639607,66.810289 C212.255463,63.094104 212.639607,47.9727168 212.639607,47.9727168 C212.639607,47.9727168 212.895126,29.5195376 202.026061,31.9542197 C191.156996,34.3894798 194.098057,35.542659 194.098057,35.542659 Z" id="Stroke-14" stroke="#000000" stroke-linecap="round" stroke-linejoin="round"></path>
                            <path d="M196.621002,24.5475723 C195.455306,25.2915029 194.050818,25.5568208 192.680361,25.3724277 C189.481473,24.942948 184.086163,24.8886127 183.996183,29.3915029 C183.890054,34.7221387 188.386146,36.9481503 192.550006,37.6198266 C193.961992,37.8475723 195.127112,38.8527746 195.607579,40.2019075 C196.109388,41.6117341 196.961886,43.2082659 198.317924,43.6157803 C200.875419,44.3845665 203.432914,39.7712717 206.373398,42.3342775 C209.315037,44.8972832 204.839132,47.3319653 205.222699,51.0487283 C205.606265,54.7643353 207.908241,57.9678035 214.813016,57.7117341 C221.718368,57.4556647 227.856009,53.9065318 232.970999,56.8984393 C238.085989,59.8909249 238.21346,65.4007514 245.246859,65.9134682 C252.279682,66.4256069 253.430381,61.1718497 258.161228,60.4030636 C262.892651,59.6342775 272.355497,62.0689595 275.168511,56.0458382 C277.982101,50.0227168 266.345327,49.3822543 263.404265,44.7689595 C260.463781,40.1556647 255.60431,37.977052 249.977705,38.2336994 C244.351678,38.4897688 237.957941,44.0001734 233.099047,42.5909249 C228.239576,41.1805202 221.218866,30.7573988 216.859473,26.7007514 C213.55561,23.626185 203.395999,20.2250289 196.621002,24.5475723" id="Fill-16" fill="#FFCA6E"></path>
                            <path d="M199.443533,43.6621965 C199.443533,43.6621965 194.870151,45.2824277 196.478246,49.636763 C197.197506,51.5853179 198.47683,52.4593064 199.670212,52.8298266 C202.313649,53.6512139 205.132431,51.8304046 205.054564,49.0575723 C205.05341,49.0280925 205.052257,48.9974566 205.051103,48.9679769 C204.910366,45.9442775 202.330953,45.4951445 201.231011,45.7726012 C200.130492,46.0512139 198.619298,46.9760694 198.881738,48.8483237 C199.144178,50.72 200.885513,50.9928324 201.833182,50.6720231 C202.80969,50.3425434 203.635079,48.8304046 202.386325,47.7905202" id="Stroke-18" stroke="#000000" stroke-linecap="round" stroke-linejoin="round"></path>
                            <path d="M237.254947,135.112486 L240.668978,133.987052 L238.405647,122.233873 C238.405647,122.233873 189.878422,126.654682 186.58148,124.732717 C183.285114,122.810751 185.467118,94.169711 185.467118,94.169711" id="Stroke-20" stroke="#000000" stroke-linecap="round" stroke-linejoin="round"></path>
                            <path d="M236.625783,122.39237 C236.625783,122.39237 236.870919,116.851908 238.789329,110.700462 C240.707161,104.549595 240.669093,94.1698266 240.669093,94.1698266" id="Stroke-22" stroke="#000000" stroke-linecap="round" stroke-linejoin="round"></path>
                            <path d="M238.64738,123.679942 C238.64738,123.679942 251.004568,119.657399 259.166749,122.479364 C267.329506,125.301329 264.939858,133.456243 254.862728,131.563179 C244.786175,129.66896 240.219715,131.844682 240.219715,131.844682 L238.64738,123.679942 Z" id="Fill-24" fill="#FFFFFF"></path>
                            <path d="M238.64738,123.679942 C238.64738,123.679942 251.004568,119.657399 259.166749,122.479364 C267.329506,125.301329 264.939858,133.456243 254.862728,131.563179 C244.786175,129.66896 240.219715,131.844682 240.219715,131.844682 L238.64738,123.679942 Z" id="Stroke-26" stroke="#000000" stroke-linecap="round" stroke-linejoin="round"></path>
                            <path d="M324.910402,9.31317919 C324.910402,10.693526 326.027071,11.8120231 327.403873,11.8120231 C328.781252,11.8120231 329.897344,10.693526 329.897344,9.31317919 C329.897344,7.9334104 328.781252,6.81491329 327.403873,6.81491329 C326.027071,6.81491329 324.910402,7.9334104 324.910402,9.31317919" id="Fill-28" fill="#FFFFFF"></path>
                            <path d="M313.77111,9.16023121 C313.77111,10.540578 314.887779,11.6590751 316.264581,11.6590751 C317.64196,11.6590751 318.758052,10.540578 318.758052,9.16023121 C318.758052,7.77988439 317.64196,6.66138728 316.264581,6.66138728 C314.887779,6.66138728 313.77111,7.77988439 313.77111,9.16023121" id="Fill-30" fill="#FFCA6E"></path>
                            <path d="M302.631818,9.16023121 C302.631818,10.540578 303.748487,11.6590751 305.125289,11.6590751 C306.502668,11.6590751 307.61876,10.540578 307.61876,9.16023121 C307.61876,7.77988439 306.502668,6.66138728 305.125289,6.66138728 C303.748487,6.66138728 302.631818,7.77988439 302.631818,9.16023121" id="Fill-32" fill="#3165E8"></path>
                            <polygon id="Fill-34" fill="#000000" points="273.154585 126.659884 324.634984 126.659884 333.918448 93.4610405 282.438049 93.4610405"></polygon>
                            <polygon id="Stroke-36" stroke="#000000" stroke-linecap="round" stroke-linejoin="round" points="273.154585 126.659884 324.634984 126.659884 333.918448 93.4610405 282.438049 93.4610405"></polygon>
                            <mask id="mask-4" fill="white">
                                <use xlink:href="#path-3"></use>
                            </mask>
                            <g id="Clip-39"></g>
                            <polygon id="Fill-38" fill="#3165E8" mask="url(#mask-4)" points="243.672044 135.112717 337.95328 135.112717 337.95328 126.660116 243.672044 126.660116"></polygon>
                            <polygon id="Fill-40" fill="#FFFFFF" mask="url(#mask-4)" points="0 268.548555 143.088205 268.548555 143.088205 172.75896 0 172.75896"></polygon>
                            <polygon id="Fill-41" fill="#DBDDE2" mask="url(#mask-4)" points="0 188.040462 143.088205 188.040462 143.088205 172.75896 0 172.75896"></polygon>
                            <path d="M16.9745792,233.375029 C16.9745792,233.375029 29.9650843,228.748439 50.6822925,233.056532 C73.4621082,237.793526 82.668859,268.548439 82.668859,268.548439 L-0.000403754266,268.548439 L-0.000403754266,247.350751 C7.19161331,236.896416 16.9745792,233.375029 16.9745792,233.375029" id="Fill-42" fill="#3165E8" mask="url(#mask-4)"></path>
                            <path d="M49.1830952,200.858324 C49.1830952,200.858324 50.3476379,205.208035 49.6058836,207.860636 C48.8652829,210.513237 52.1472283,211.893006 52.1472283,211.893006 L50.073085,212.412081 C49.2880713,212.609191 48.6807096,213.234046 48.5134399,214.027688 C48.0439314,216.254855 46.9180338,220.593006 45.2655253,220.593006 C43.0425696,220.593006 39.3366823,217.834046 39.01887,220.593006 C38.7016345,223.351387 38.5960816,228.975087 41.0307198,229.717861 C43.4659348,230.460636 50.6827539,233.05659 50.6827539,233.05659 C50.6827539,233.05659 36.0547369,239.652543 34.1490167,239.565838 C32.2432966,239.478555 16.9744638,233.375087 16.9744638,233.375087 C16.9744638,233.375087 26.7378188,229.399364 27.4789962,228.76237 C28.0777061,228.248497 30.0584092,216.448497 30.7972795,211.931734 C30.9691635,210.879711 31.0326106,209.817861 30.9812761,208.753121 C30.818044,205.363526 30.8284263,197.140405 34.7309997,196.720173 C39.6539177,196.189538 47.7007403,195.234624 49.1830952,200.858324" id="Fill-43" fill="#FFFFFF" mask="url(#mask-4)"></path>
                            <path d="M49.1830952,200.858324 C49.1830952,200.858324 50.3476379,205.208035 49.6058836,207.860636 C48.8652829,210.513237 52.1472283,211.893006 52.1472283,211.893006 L50.073085,212.412081 C49.2880713,212.609191 48.6807096,213.234046 48.5134399,214.027688 C48.0439314,216.254855 46.9180338,220.593006 45.2655253,220.593006 C43.0425696,220.593006 39.3366823,217.834046 39.01887,220.593006 C38.7016345,223.351387 38.5960816,228.975087 41.0307198,229.717861 C43.4659348,230.460636 50.6827539,233.05659 50.6827539,233.05659 C50.6827539,233.05659 36.0547369,239.652543 34.1490167,239.565838 C32.2432966,239.478555 16.9744638,233.375087 16.9744638,233.375087 C16.9744638,233.375087 26.7378188,229.399364 27.4789962,228.76237 C28.0777061,228.248497 30.0584092,216.448497 30.7972795,211.931734 C30.9691635,210.879711 31.0326106,209.817861 30.9812761,208.753121 C30.818044,205.363526 30.8284263,197.140405 34.7309997,196.720173 C39.6539177,196.189538 47.7007403,195.234624 49.1830952,200.858324 Z" id="Stroke-44" stroke="#000000" stroke-linecap="round" stroke-linejoin="round" mask="url(#mask-4)"></path>
                            <path d="M44.559186,193.688728 C45.503971,194.194509 46.6264078,194.260405 47.6092611,193.833237 C49.8495205,192.858092 54.0301075,191.732081 56.0644522,195.659249 C58.6057969,200.563873 51.4431962,203.707225 47.1426365,202.706069 C46.3408959,202.518786 45.5258891,202.891618 45.179814,203.640751 C44.7126126,204.65578 43.8791485,205.797977 42.5127287,205.739017 C40.0775137,205.632659 38.5824693,201.471387 35.419343,202.767919 C33.0902577,203.722832 36.1599437,207.754624 34.7312304,211.043642 C33.3019403,214.333237 30.7975102,211.932081 30.7975102,211.932081 C30.7975102,211.932081 26.3544829,209.166763 27.3033055,201.797977 C27.6903328,198.788728 29.0873225,195.959827 31.4371724,194.046532 C34.0690734,191.903757 38.347715,190.364451 44.559186,193.688728" id="Fill-45" fill="#000000" mask="url(#mask-4)"></path>
                            <path d="M44.559186,193.688728 C45.503971,194.194509 46.6264078,194.260405 47.6092611,193.833237 C49.8495205,192.858092 54.0301075,191.732081 56.0644522,195.659249 C58.6057969,200.563873 51.4431962,203.707225 47.1426365,202.706069 C46.3408959,202.518786 45.5258891,202.891618 45.179814,203.640751 C44.7126126,204.65578 43.8791485,205.797977 42.5127287,205.739017 C40.0775137,205.632659 38.5824693,201.471387 35.419343,202.767919 C33.0902577,203.722832 36.1599437,207.754624 34.7312304,211.043642 C33.3019403,214.333237 30.7975102,211.932081 30.7975102,211.932081 C30.7975102,211.932081 26.3544829,209.166763 27.3033055,201.797977 C27.6903328,198.788728 29.0873225,195.959827 31.4371724,194.046532 C34.0690734,191.903757 38.347715,190.364451 44.559186,193.688728 Z" id="Stroke-46" stroke="#000000" stroke-linecap="round" stroke-linejoin="round" mask="url(#mask-4)"></path>
                            <path d="M41.0082826,205.176647 C41.0082826,205.176647 44.4955659,207.32289 42.4012348,210.630405 C41.4639481,212.110751 40.2544157,212.605549 39.2046546,212.700347 C36.8796068,212.909595 34.8746785,210.907283 35.4283986,208.633873 C35.4341666,208.609595 35.4405113,208.58474 35.446856,208.560462 C36.0963235,206.091098 38.303129,206.177225 39.161972,206.601503 C40.0202382,207.02578 41.1034532,208.056416 40.5572314,209.554104 C40.0110096,211.051792 38.5263474,210.969133 37.8007433,210.536185 C37.053798,210.091098 36.6390846,208.698035 37.8526546,208.06104" id="Stroke-47" stroke="#000000" stroke-linecap="round" stroke-linejoin="round" mask="url(#mask-4)"></path>
                            <path d="M15.3444502,251.248382 C15.3444502,251.248382 12.0469314,262.781329 12.0653887,268.548382" id="Stroke-48" stroke="#000000" stroke-linecap="round" stroke-linejoin="round" mask="url(#mask-4)"></path>
                            <line x1="61.8578645" y1="251.248382" x2="61.8578645" y2="262.589422" id="Stroke-49" stroke="#000000" stroke-linecap="round" stroke-linejoin="round" mask="url(#mask-4)"></line>
                            <polygon id="Fill-50" fill="#104EB2" mask="url(#mask-4)" points="80.84637 254.179769 46.6091618 268.547977 79.2163563 268.547977 85.5454928 265.088439"></polygon>
                            <path d="M81.8675799,256.54948 C81.8675799,256.54948 89.2649348,250.636185 95.5871498,249.976069 C100.890174,249.422312 105.198809,256.300925 106.83632,258.072601 C108.146791,259.489364 104.543573,260.597457 100.065361,254.837919 C100.065361,254.837919 97.8210645,258.028092 91.5571055,259.32578 C85.5457812,260.570867 84.4694877,262.589364 84.4694877,262.589364 L81.8675799,256.54948 Z" id="Fill-51" fill="#FFFFFF" mask="url(#mask-4)"></path>
                            <path d="M81.8675799,256.54948 C81.8675799,256.54948 89.2649348,250.636185 95.5871498,249.976069 C100.890174,249.422312 105.198809,256.300925 106.83632,258.072601 C108.146791,259.489364 104.543573,260.597457 100.065361,254.837919 C100.065361,254.837919 97.8210645,258.028092 91.5571055,259.32578 C85.5457812,260.570867 84.4694877,262.589364 84.4694877,262.589364 L81.8675799,256.54948 Z" id="Stroke-52" stroke="#000000" stroke-linecap="round" stroke-linejoin="round" mask="url(#mask-4)"></path>
                            <path d="M131.707699,180.399017 C131.707699,181.531387 132.623644,182.449884 133.753579,182.449884 C134.883514,182.449884 135.79946,181.531387 135.79946,180.399017 C135.79946,179.266647 134.883514,178.348728 133.753579,178.348728 C132.623644,178.348728 131.707699,179.266647 131.707699,180.399017" id="Fill-53" fill="#FFFFFF" mask="url(#mask-4)"></path>
                            <path d="M121.670137,180.399017 C121.670137,181.531387 122.586082,182.449884 123.716017,182.449884 C124.845953,182.449884 125.761898,181.531387 125.761898,180.399017 C125.761898,179.266647 124.845953,178.348728 123.716017,178.348728 C122.586082,178.348728 121.670137,179.266647 121.670137,180.399017" id="Fill-54" fill="#FFCA6E" mask="url(#mask-4)"></path>
                            <path d="M111.632633,180.399017 C111.632633,181.531387 112.548578,182.449884 113.678513,182.449884 C114.808448,182.449884 115.724394,181.531387 115.724394,180.399017 C115.724394,179.266647 114.808448,178.348728 113.678513,178.348728 C112.548578,178.348728 111.632633,179.266647 111.632633,180.399017" id="Fill-55" fill="#3165E8" mask="url(#mask-4)"></path>
                            <polygon id="Fill-56" fill="#FFCA6E" mask="url(#mask-4)" points="88.6148328 268.547977 143.087628 268.547977 143.087628 264.895954 88.6148328 264.895954"></polygon>
                            <polygon id="Fill-57" fill="#000000" mask="url(#mask-4)" points="95.5109556 264.895954 139.729546 264.895954 139.729546 263.695376 95.5109556 263.695376"></polygon>
                            <polygon id="Stroke-58" stroke="#000000" stroke-linecap="round" stroke-linejoin="round" mask="url(#mask-4)" points="95.5109556 264.895954 139.729546 264.895954 139.729546 263.695376 95.5109556 263.695376"></polygon>
                            <polygon id="Fill-59" fill="#000000" mask="url(#mask-4)" points="117.014735 239.735665 143.088032 239.735665 143.088032 264.89578 109.042895 264.89578"></polygon>
                            <polygon id="Fill-60" fill="#FFCA6E" mask="url(#mask-4)" points="69.9452355 220.653179 143.088205 220.653179 143.088205 188.039884 69.9452355 188.039884"></polygon>
                            <polygon id="Fill-61" fill="#EFEFEF" mask="url(#mask-4)" points="69.9452355 220.653179 143.088205 220.653179 143.088205 208.383237 69.9452355 208.383237"></polygon>
                            <polygon id="Fill-62" fill="#EFEFEF" mask="url(#mask-4)" points="69.9452355 208.383237 76.8448191 208.383237 76.8448191 188.039884 69.9452355 188.039884"></polygon>
                            <polygon id="Fill-63" fill="#000000" mask="url(#mask-4)" points="287.849279 239.78815 279.44946 244.648266 267.709439 224.269075 276.109258 219.409538"></polygon>
                            <path d="M315.742008,297.923526 L315.742008,297.923526 C310.890612,300.730462 304.687216,299.065145 301.886315,294.202717 L273.371458,244.707919 L290.939383,234.543179 L319.454817,284.038555 C322.255141,288.900405 320.592827,295.117168 315.742008,297.923526" id="Fill-64" fill="#DDDFE4" mask="url(#mask-4)"></path>
                            <path d="M287.94393,140.299017 C303.012616,166.455087 294.070036,199.900751 267.970207,215.002486 C241.869801,230.103642 208.49605,221.141792 193.427364,194.985723 C178.358678,168.829075 187.301258,135.38341 213.401087,120.282254 C239.501494,105.181098 272.875244,114.142948 287.94393,140.299017" id="Fill-65" fill="#FFFFFF" opacity="0.504383176" mask="url(#mask-4)"></path>
                            <path d="M267.970265,215.002659 C241.870435,230.103815 208.496108,221.141965 193.427422,194.985896 C178.358735,168.829249 187.301316,135.383584 213.401145,120.282428 C239.500974,105.181272 272.875302,114.143121 287.943988,140.299191 C303.012674,166.45526 294.070094,199.900925 267.970265,215.002659 M203.614142,103.293988 C168.151251,123.811908 156.001708,169.25526 176.47551,204.793988 C196.949889,240.332139 242.294954,252.509017 277.757268,231.991098 C313.219005,211.472601 325.369701,166.029249 304.895899,130.491098 C284.420944,94.9523699 239.075879,82.7760694 203.614142,103.293988" id="Fill-66" fill="#FFCA6E" mask="url(#mask-4)"></path>
                            <path d="M75.7166143,42.6777457 C75.7166143,52.1476879 68.0562423,59.8245665 58.6066621,59.8245665 C49.1570819,59.8245665 41.4967099,52.1476879 41.4967099,42.6777457 C41.4967099,33.2078035 49.1570819,25.5309249 58.6066621,25.5309249 C68.0562423,25.5309249 75.7166143,33.2078035 75.7166143,42.6777457" id="Fill-67" fill="#FF8885" mask="url(#mask-4)"></path>
                        </g>
                    </g>
                </g>
            </g>
        </g>
    </g>
</svg>