<?xml version="1.0" encoding="UTF-8"?>
<svg width="350px" height="120px" viewBox="0 0 350 120" version="1.1" xmlns="http://www.w3.org/2000/svg" xmlns:xlink="http://www.w3.org/1999/xlink">
    <!-- Generator: Sketch 63.1 (92452) - https://sketch.com -->
    <title>编组 2</title>
    <desc>Created with Sketch.</desc>
    <g id="页面-1" stroke="none" stroke-width="1" fill="none" fill-rule="evenodd">
        <g id="首页" transform="translate(-253.000000, -1473.000000)">
            <g id="编组-2" transform="translate(253.000000, 1473.000000)">
                <rect id="Rectangle" fill="#FFFFFF" x="0" y="0" width="350" height="120"></rect>
                <text id="合作伙伴招募中..." fill="#000000" font-family="PingFangSC-Regular, PingFang SC" font-size="14" font-weight="normal">
                    <tspan x="178" y="64">合作伙伴招募中...</tspan>
                </text>
                <g id="Group-3" transform="translate(66.000000, 23.000000)">
                    <ellipse id="Oval" fill="#FFFFFF" cx="40.5" cy="36" rx="38.5" ry="36"></ellipse>
                    <path d="M23.1659184,15 C23.1659184,15 23.6166416,17.6363402 24.1844522,18.4760831 C24.7522628,19.315826 25.546694,20.6453081 24.457656,22.1504574 C23.3686179,23.6556067 24.2197043,23.9643553 23.1659184,25.203342 C22.1121324,26.4423288 20.8153588,25.9113345 19.1824313,25.7356672 C17.5495037,25.5599999 16.4604657,26.8868203 15.2467863,24.5379356 C14.033107,22.189051 17.6905121,15.3779508 17.6905121,15.3779508 L23.1659184,15 Z" id="Path" fill="#F79C2F"></path>
                    <path d="M31,71 L27.2840182,44 L12.7658894,44 C12.7658894,44 12.299872,52.0625435 12,61.0533568 C17.1818361,65.9803828 23.773997,69.4314288 31,71 Z" id="Path" fill="#000000"></path>
                    <path d="M32.2668063,34 C32.2668063,34 37.7171938,37.6412318 43.0344844,38.8500418 C48.351775,40.0588519 51.5065689,42.0262519 52.2669349,42.7971766 C53.0273009,43.5681014 54.8366292,46.3520649 53.5517821,47.7199938 C52.2669349,49.0879227 52.22213,45.0667791 49.8118885,43.7814934 C47.401647,42.4962076 46.6900393,40.0082792 35.8340691,38.75013 C35.8340691,38.75013 31.793719,38.8858128 29,36.330043 L32.2668063,34 Z" id="Path" stroke="#000000" stroke-width="0.3" fill="#FFFFFF" stroke-linecap="round" stroke-linejoin="round"></path>
                    <path d="M28.5877691,45 L14.5513825,45 C14.2614609,42.8030829 13.7978474,37.0759814 13.7978474,37.0759814 L6,34.7216991 C6,34.7216991 6.27033234,34.0079799 9.6867063,29.3118062 C13.1030802,24.6156326 19.5035576,24.001041 19.5035576,24.001041 L22.8885887,24.001041 C22.8885887,24.001041 30.8405386,23.7185271 35,32.4615881 L29.4039899,36.4266952 L28.5877691,45 Z" id="Path" fill="#F2F2F2"></path>
                    <path d="M22.1044209,24.7903559 C22.1448141,24.5243393 22.1317847,24.2544724 22.0658814,23.9921177 C21.8870578,23.2746149 21.5864492,21.7679891 22.1691674,21.51797 C22.9399587,21.1937264 24.1439346,22.1195785 24.6356995,21.51797 C24.944016,21.133826 24.9748476,20.0920796 24.944016,19.3862964 C24.9328166,18.9543641 25.2066585,18.5529485 25.6546855,18.34455 L26,18.1856836 C26,18.1856836 24.5724946,17.7676829 24.5724946,16.9811643 C24.5724946,16.1946458 23.8017033,15.3117657 23.8017033,15.3117657 C23.8017033,15.3117657 21.387585,14.24658 19.6394304,16.05401 C18.3013368,17.4317197 18.0469757,21.5427114 18.0007282,23.417855 C17.9878435,24.0444861 18.1460971,24.665196 18.463203,25.2317959 C18.9981321,26.1915048 19.9246232,27.7528222 20.8804044,28.8779084 C20.9614714,28.9751402 21.1049919,29.0202355 21.2415774,28.9913919 C21.3781629,28.9625482 21.4796759,28.8657077 21.4970374,28.7476901 L22.1044209,24.7903559 Z" id="Path" fill="#FFFFFF"></path>
                    <path d="M21.3556811,13.2342167 C21.8183407,13.368217 22.3126426,13.368217 22.7753022,13.2342167 C23.2032069,13.1066034 23.8356447,13.0695956 24.5555473,13.5175182 C25.6629863,14.2053539 24.4775018,15.3730155 23.431961,15.6869442 C23.1202852,15.7827423 22.8460748,15.9650009 22.6447778,16.2101587 C22.5293662,16.3470885 22.3732656,16.448005 22.1966889,16.4998409 C21.5952001,16.683604 21.3381882,16.1323146 20.5227471,16.4998409 C19.707306,16.8673671 21.1672954,18.152433 20.5227471,19.3928342 C19.8781988,20.6332354 17.8207575,19.9441236 17.048376,21.4129526 C16.2759945,22.8817816 17.8207575,23.5351616 17.048376,25.160955 C16.2759945,26.7867483 14.5603387,25.5565562 12.2875994,25.160955 C10.0148602,24.7653538 10.5719437,26.1818613 8.72710913,25.9802323 C6.88227458,25.7786033 6.32519106,23.8478142 7.99778723,22.2398867 C9.67038339,20.6319592 11.2151464,20.9024994 12.7599094,19.5727689 C14.3046724,18.2430384 14.5791773,15.6639738 16.4657258,14.1951448 C18.079115,12.9470868 19.7099972,12.7709805 21.3556811,13.2342167 Z" id="Path" fill="#FFCA6E"></path>
                    <path d="M29,37 C29,37 31.25,32.3559055 29,30" id="Path" stroke="#000000" stroke-width="0.3" fill="#FFFFFF" stroke-linecap="round" stroke-linejoin="round"></path>
                    <polyline id="Path" stroke="#000000" stroke-width="0.3" stroke-linecap="round" stroke-linejoin="round" points="13 36.5500998 13.8488312 37 15 30"></polyline>
                    <path d="M6,36 C6.25986846,36.4171848 6.6023395,36.7596558 7,37" id="Path" stroke="#000000" stroke-width="0.3" fill="#FFFFFF" stroke-linecap="round" stroke-linejoin="round"></path>
                    <path d="M6.402175,33.3494729 C6.402175,33.3494729 5.54486689,35.5035573 5.29992172,35.5613108 C5.05497655,35.6190644 3.58402976,30.6534882 4.43113181,22.6994733 C4.51274084,22.254341 4.65560873,21.8216775 4.8559586,21.4129209 C5.1493825,20.7727167 6.74407763,18.3409238 6.14957529,18.3065174 C5.55507294,18.2721111 4.34693191,19.9408199 3.98078991,19.2059982 C3.61464791,18.4711765 5.74133333,12.7289995 4.38392884,14.2576252 C3.02652434,15.786251 1.65508653,22.1993522 1.65508653,22.1993522 C1.65508653,22.1993522 -4.305246,44.3300194 6.39579622,40.5698949 C6.39579622,40.5698949 9.42954423,39.4049936 11,34.7576764 L6.402175,33.3494729 Z" id="Path" fill="#FFFFFF"></path>
                    <path d="M23.2262372,17 C23.2262372,17 24.2663284,17.470881 23.9347557,18.8736107 C23.8372334,19.3646804 23.5764184,19.7566817 23.2367079,19.9227667 C22.648021,20.2119041 22.0023268,19.6584124 22,18.7761301 L22,18.7463903 C22.0104707,17.7814972 22.5875235,17.6129714 22.8364939,17.6906255 C23.0854643,17.7682795 23.4321613,18.0475037 23.3856248,18.6472574 C23.3730534,18.8624363 23.2916315,19.057515 23.164744,19.1764654 C23.0378565,19.2954158 22.8795447,19.3250749 22.735277,19.2569244 C22.5130651,19.1627482 22.3176117,18.6885628 22.5910138,18.3449022" id="Path" stroke="#000000" stroke-width="0.3" stroke-linecap="round" stroke-linejoin="round"></path>
                    <path d="M75,48.4856389 L61.2273517,48.5104797 L48.2997849,40 L44,45.1370905 L51.6377927,56 L71.0477372,56 C72.6667947,53.6551018 73.9934534,51.1327511 75,48.4856389 L75,48.4856389 Z" id="Path" fill="#FFCB6E"></path>
                    <path d="M51.3180284,9.14439465 C51.3180284,9.14439465 50.8386226,10.6685864 51.0182309,11.6875549 C51.1978393,12.7065233 50.5388251,13.3554005 50,13.6792304 L51.557056,13.6792304 C51.557056,13.6792304 52.575287,17.2097065 53.9513842,16.7921364 C55.3274814,16.3745663 55.9284267,15.7841246 56.0472654,17.5651889 C56.166104,19.3462532 56.0472654,20 56.0472654,20 L60,18.8130296 C60,18.8130296 58.8021607,11.9042531 57.7245105,10.2838863 C56.6468602,8.66351946 54.012154,6.71567057 51.3180284,9.14439465 Z" id="Path" fill="#000000"></path>
                    <path d="M51.0934531,6.36519232 C51.0934531,6.36519232 47.9428833,5.2863618 48.0007885,7.50066144 C48.0586937,9.71496107 50.7920828,9.8713915 52.3147266,9.54774234 C52.3147266,9.54774234 52.4976544,10.2462851 53.6044335,10.366305 C54.7112127,10.4863249 54.7112127,9.26859495 55.8206238,9.54774234 C56.930035,9.82688974 55.4113393,12.0398408 56.5207504,12.5145263 C57.6301616,12.9892117 58.3987217,13 58.3987217,13 C58.3987217,13 59.7515979,12.275835 58.3987217,8.68467793 C57.0458454,5.09352084 55.061276,5.4562776 55.061276,5.4562776 C55.061276,5.4562776 52.5529276,3.96884003 51.0934531,6.36519232 Z" id="Path" stroke="#000000" stroke-width="0.3" fill="#FFFFFF" stroke-linecap="round" stroke-linejoin="round"></path>
                    <path d="M54.4714133,11 C54.4714133,11 53.615469,11.9670393 54.2103134,13.2497443 C54.4005039,13.7070092 54.7199592,13.9872369 55.0652048,13.9996591 C55.6642605,14.0197013 56.1422416,13.1528734 55.9611563,12.2459608 L55.9548393,12.2175676 C55.744275,11.2338264 55.1820681,11.3306974 54.969398,11.5261095 C54.756728,11.7215216 54.4977338,12.1708023 54.6640797,12.7620492 C54.7195977,12.9772364 54.8345248,13.1398338 54.9756147,13.2028046 C55.1167045,13.2657755 55.2682146,13.2220937 55.3863155,13.0843956 C55.5705593,12.8823028 55.6516266,12.3060876 55.3305159,12.0822823" id="Path" stroke="#FFFFFF" stroke-width="0.3" stroke-linecap="round" stroke-linejoin="round"></path>
                    <path d="M78.9162726,33.7969152 C78.2371527,30.3341902 77.1885703,26.6580977 75.6017422,24.6079692 C70.3575013,17.8251928 60.8631127,17 60.8631127,17 C58.116066,18.0706941 56.9810985,17.1773779 56.9810985,17.1773779 C40.4523036,19.0231362 34,38.7982005 34,38.7982005 L67.897519,49 L78.3168928,43.155527 C78.771561,40.8503094 79,38.5087373 79,36.1619537 C78.9960127,35.3676093 78.9667747,34.5796915 78.9162726,33.7969152 Z" id="Path" fill="#FFCB6E"></path>
                    <path d="M54,36.2251852 L56.286383,33 C56.286383,33 68.9988297,40.8711111 73,41" id="Path" stroke="#000000" stroke-width="0.3" stroke-linecap="round" stroke-linejoin="round"></path>
                    <path d="M68.91838,40 C68.91838,40 69.4054289,32.322503 68,29" id="Path" stroke="#000000" stroke-width="0.3" stroke-linecap="round" stroke-linejoin="round"></path>
                    <path d="M56,34.6483291 C56,34.6483291 50.3643329,30.133121 48.7072113,28.1394267 C48.6020425,28.0154375 48.4190108,27.9678731 48.2564501,28.0222873 C48.0938893,28.0767015 47.990064,28.2202861 48.0007542,28.3759003 C48.0368668,28.6822367 48.1649968,28.9739778 48.3714262,29.2198888 C49.2087087,30.3369325 50.3686938,31.7231118 50.3686938,31.7231118 C50.3686938,31.7231118 46.5442316,35.0912271 54.0027324,37 L56,34.6483291 Z" id="Path" fill="#000000"></path>
                    <path d="M68,61.2345615 L68,56 L52,56 C52,56 52.4085919,63.8185435 52.8082737,70 C58.5497191,68.3044137 63.7661273,65.2946105 68,61.2345615 L68,61.2345615 Z" id="Path" fill="#CCCCCC"></path>
                    <path d="M70,56 L57,56 C57,56 57.2885249,62.067726 57.6173677,68 C62.5858417,65.0638274 66.8265841,60.954127 70,56 L70,56 Z" id="Path" fill="#F2F2F2"></path>
                    <polygon id="Path" fill="#FFCB6E" points="36 21.9539854 40.7411095 21 44 34.0847372 36.3840683 35"></polygon>
                    <path d="M39,20.3488949 C39,20.3488949 38.1157168,14.4421701 38.4183074,12.3839193 C38.4470981,12.2010275 38.3086282,12.0313356 38.1088083,12.0046347 C37.8145078,11.9667062 37.3765112,12.1437057 36.9647668,13.2057025 C36.2614853,15.0275326 36.5972366,17.3778325 36.2297064,18.1364016 C35.8621762,18.8949707 36.0459413,21 36.0459413,21 L39,20.3488949 Z" id="Path" fill="#000000"></path>
                    <polygon id="Path" fill="#FFFFFF" points="38.2759713 33.1514673 41.7547694 33 45 65 29 65 33.3290338 39.0637425"></polygon>
                    <path d="M37.7809224,33.9958724 C37.7817905,33.8736942 37.7918848,33.7517611 37.8111173,33.6311346 C37.8554995,33.2621063 37.8264877,32.8878392 37.725784,32.5302898 C37.5341122,31.7596985 36.4930457,32.5913005 35.8143176,32.3499104 C35.3456408,32.1841206 35.2983793,30.6256957 35.3128203,29.6760512 C35.3210493,29.225285 35.0629722,28.812809 34.6564101,28.6269328 L34,28.3232058 C34,28.3232058 35.3522049,27.92531 35.4441023,26.9544445 C35.5359997,25.9835789 36.783179,24.246101 36.783179,24.246101 C36.783179,24.246101 41.01965,23.007319 41.743014,26.0883581 C42.3154037,28.5274589 41.7876499,32.1085204 41.5434653,33.4945238 C41.4724003,33.9013288 41.2931469,34.2809437 41.0249013,34.592716 C40.5352194,35.1590542 39.6792605,35.9893299 38.8561222,36 C37.871507,36.010551 37.7769839,34.5993476 37.7809224,33.9958724 Z" id="Path" fill="#FFFFFF"></path>
                    <path d="M38.925961,23.2890472 C38.6381877,23.3903598 38.3175047,23.3776268 38.0403469,23.2538832 C37.510621,23.002712 36.514134,22.7515408 35.4396254,23.4837048 C33.9681645,24.4883897 36.534666,26.343289 38.0827797,26.6233449 C38.279063,26.6618628 38.436639,26.7958346 38.49342,26.9724728 C38.5962447,27.2660171 38.8836175,27.4724683 39.2188844,27.4936531 C40.0524841,27.6054243 40.204421,26.7840944 41.0695031,27.075453 C41.9345852,27.3668116 41.2816672,28.8851415 40.568522,29.4615794 C39.8553768,30.0380173 41.6567187,31.2059634 42.7216457,30.9686066 C43.7865727,30.7312499 44.8254926,26.3181719 43.0118315,24.4996924 C43.0118315,24.4996924 41.4472921,22.4539029 38.925961,23.2890472 Z" id="Path" stroke="#000000" stroke-width="0.3" fill="#000000"></path>
                    <path d="M27.076723,69.8609836 C30.591637,71.1195068 34.2734969,71.8404955 38,72 L38,64 L27,64.0944262 C27,64.0944262 27.0247074,66.6819672 27.076723,69.8609836 Z" id="Path" fill="#CCCCCC"></path>
                    <path d="M36.1164552,71.8565052 C37.1760691,71.9491188 38.2484803,72 39.3311294,72 C42.2510277,72.0020388 45.1608986,71.6517569 48,70.9564573 L48,64 L36,64.093918 C36,64.093918 36.028154,67.8467265 36.1164552,71.8565052 Z" id="Path" fill="#F2F2F2"></path>
                    <path d="M38,32.0452732 C38,32.0452732 30.3099041,31.388069 25.5064015,35.0816085 C20.7028989,38.7751481 17.4820685,43.4195638 17.4820685,43.4195638 L17.0130797,38.7738544 L11.3323698,40.3263053 C11.3323698,40.3263053 9.45773552,59.3697036 14.6126495,59.7720471 C16.3591375,59.901418 19.6077109,56.7693483 23.1389987,52.5596188 C22.0483372,57.3065728 21.3904879,62.1390294 21.1732089,67 L30.7207648,67 C30.3680323,51.5647565 38,32.0452732 38,32.0452732 Z" id="Path" fill="#3165E8"></path>
                    <path d="M78,43.043735 C74.9176863,44.4902749 68.4537543,47.3884036 67.3536781,46.7951455 C65.8978494,46.0125498 60.9501321,41.8143024 56.0037275,37.3926365 C51.057323,32.9709707 42.5297635,33 42.5297635,33 C42.5297635,33 41.3377956,56.3099948 42.5297635,67 L52.976549,67 L51.7727663,46.2915073 C51.7727663,46.2915073 62.1736058,53.8473428 66.3061115,54.6312008 C68.8318234,55.109594 72.7293487,52.8640491 75.3771454,51.0552432 C76.5718104,48.4916613 77.4520204,45.8030603 78,43.043735 L78,43.043735 Z" id="Path" fill="#3165E8"></path>
                    <path d="M18,43 C18,43 18.6663534,49.5721649 19,51" id="Path" stroke="#000000" stroke-width="0.3" stroke-linecap="round" stroke-linejoin="round"></path>
                    <path d="M23,53 C23,53 24.9886076,43.4624563 26,41" id="Path" stroke="#000000" stroke-width="0.3" stroke-linecap="round" stroke-linejoin="round"></path>
                    <line x1="51" y1="47" x2="49" y2="45" id="Path" stroke="#000000" stroke-width="0.3" fill="#FFFFFF" stroke-linecap="round" stroke-linejoin="round"></line>
                    <path d="M15,39.8044416 C15,39.8044416 14.9385392,36.8627927 14.5977114,35.4056631 C14.3731883,34.5019347 14.2698819,33.5733498 14.2904076,32.6434165 C14.2904076,32.1873788 13.0821449,32.2188769 13.1128753,33.8581477 C13.1436056,35.4974185 13.1128753,37.0449339 12.4312195,37.2270751 C11.7495638,37.4092163 8.59131881,32.3393914 7.19867383,31.3382995 C5.98203013,30.4632 5.77390164,31.4889426 6.20692064,32.1271215 C6.63993964,32.7653005 10.5371106,38.7006385 10.6209208,41 L15,39.8044416 Z" id="Path" stroke="#000000" stroke-width="0.3" fill="#FFFFFF" stroke-linecap="round" stroke-linejoin="round"></path>
                    <path d="M38.7737628,26 C38.7737628,26 37.7336716,26.4694664 38.0652443,27.8729063 C38.1627666,28.3642247 38.4235816,28.7564244 38.7632921,28.9225935 C39.351979,29.2118773 39.9976732,28.6597584 40,27.7753764 L40,27.7456215 C39.9895293,26.7802399 39.4182935,26.6116287 39.1635061,26.6893221 C38.9087187,26.7670155 38.5678387,27.046381 38.6143752,27.6464384 C38.6258494,27.863026 38.7070236,28.0599713 38.8343547,28.180154 C38.9616858,28.3003366 39.1209245,28.3303072 39.2658864,28.2613732 C39.4880983,28.1671494 39.6835517,27.6927238 39.4101496,27.3488893" id="Path" stroke="#000000" stroke-width="0.3" stroke-linecap="round" stroke-linejoin="round"></path>
                    <path d="M45.2067806,32.8648431 C45.2067806,32.8648431 46.5916675,31.3163985 47.6540038,32.3633671 C48.7163401,33.4103357 49.2501095,34.7654212 48.8859393,34.9603523 C48.5217692,35.1552834 43.9904524,34.6585235 45.2067806,32.8648431 Z" id="Path" fill="#FFFFFF"></path>
                    <circle id="Oval" fill="#FF8885" cx="9" cy="66" r="4"></circle>
                    <rect id="Rectangle" stroke="#FFFFFF" stroke-width="0.3" fill="#000000" x="62" y="63" width="16" height="1"></rect>
                    <rect id="Rectangle" stroke="#FFFFFF" stroke-width="0.3" fill="#000000" x="66" y="64" width="16" height="1"></rect>
                </g>
            </g>
        </g>
    </g>
</svg>