<?xml version="1.0" encoding="UTF-8"?>
<svg width="91px" height="96px" viewBox="0 0 91 96" version="1.1" xmlns="http://www.w3.org/2000/svg" xmlns:xlink="http://www.w3.org/1999/xlink">
    <!-- Generator: Sketch 52.3 (67297) - http://www.bohemiancoding.com/sketch -->
    <title>Group 8</title>
    <desc>Created with Sketch.</desc>
    <g id="页面-1" stroke="none" stroke-width="1" fill="none" fill-rule="evenodd">
        <g id="light-copy-2" transform="translate(-554.000000, -1260.000000)">
            <g id="Group-8" transform="translate(555.000000, 1261.000000)">
                <g id="Group-2">
                    <rect id="Rectangle" stroke="#CCCCCC" stroke-width="0.3" fill="#FFFFFF" stroke-linecap="round" stroke-linejoin="round" x="0" y="0" width="35" height="35"></rect>
                    <path d="M0,6 L35,6" id="Path" stroke="#CCCCCC" stroke-width="0.3" fill="#FFFFFF" stroke-linecap="round" stroke-linejoin="round"></path>
                    <path d="M0,14 L35,14" id="Path" stroke="#CCCCCC" stroke-width="0.3" fill="#FFFFFF" stroke-linecap="round" stroke-linejoin="round"></path>
                    <path d="M0,21 L35,21" id="Path" stroke="#CCCCCC" stroke-width="0.3" fill="#FFFFFF" stroke-linecap="round" stroke-linejoin="round"></path>
                    <path d="M0,27 L35,27" id="Path" stroke="#CCCCCC" stroke-width="0.3" fill="#FFFFFF" stroke-linecap="round" stroke-linejoin="round"></path>
                    <path d="M27,0 L27,35" id="Path" stroke="#CCCCCC" stroke-width="0.3" fill="#FFFFFF" stroke-linecap="round" stroke-linejoin="round"></path>
                    <path d="M21,0 L21,35" id="Path" stroke="#CCCCCC" stroke-width="0.3" fill="#FFFFFF" stroke-linecap="round" stroke-linejoin="round"></path>
                    <path d="M14,0 L14,35" id="Path" stroke="#CCCCCC" stroke-width="0.3" fill="#FFFFFF" stroke-linecap="round" stroke-linejoin="round"></path>
                    <path d="M7,0 L7,35" id="Path" stroke="#CCCCCC" stroke-width="0.3" fill="#FFFFFF" stroke-linecap="round" stroke-linejoin="round"></path>
                    <polygon id="Path" stroke="#FFFFFF" stroke-width="0.3" fill="#000000" points="66.4166317 44 62.4708106 53.2151845 58 53.2151845 58 54 78.6824864 54 79.0562789 53.2151845 83 44"></polygon>
                    <path d="M49.0341821,86 C49.0341821,86 48.019529,88.9788011 49.7482809,90.2016258 C51.4770329,91.4244505 56.661029,92.2364062 57,95 L43.4185629,94.9999901 C43.304277,95.0008105 43.1947176,94.9506853 43.1156315,94.8613941 C43.0365454,94.7721029 42.994906,94.6515189 43.0004987,94.5279797 C43.0637733,93.2220029 43.6784407,89.4239093 44.900996,86 L49.0341821,86 Z" id="Path" fill="#FFFFFF"></path>
                    <path d="M66.6663853,75 C66.6663853,75 67.1571777,77.2674772 69.0579582,78.0811014 C70.8755537,78.8569342 70.8609963,76.0225878 72.8200065,75.5112939 C72.8755025,75.4956919 72.9343579,75.5169321 72.9696505,75.5652987 C73.004943,75.6136653 73.0098857,75.6798569 72.9822175,75.7335956 L70.8090056,80.537535 C70.683669,80.8156386 70.4587624,81.028004 70.185117,81.1266344 L65.1274601,82.9806305 C65.0376988,83.0141183 64.9387132,83.0038334 64.8566654,82.9524939 C64.7746176,82.9011544 64.7177659,82.8139279 64.7011362,82.7138685 C64.4640586,81.3133679 63.6426053,76.6450325 63,75.4423804" id="Path" fill="#EAEAEA"></path>
                    <path d="M28,54.5659398 C28,54.5659398 42.4887988,46.3232929 51.4331475,45.0434068 C61.1446528,43.6576146 71,75.9138995 71,75.9138995 L61.5413077,77 L52.736442,56.2063572 L28,54.5659398 Z" id="Path" fill="#DBDDE2"></path>
                    <path d="M53,58 L51,53" id="Path" stroke="#000000" stroke-width="0.3" stroke-linecap="round" stroke-linejoin="round"></path>
                    <path d="M43.6833076,18.78786 C43.6833076,18.78786 43.7999229,20.0139078 43.9398612,21.2596987 C44.0797995,22.5054896 45,22.6614602 45,22.6614602 C45,22.6614602 44.5929067,22.8332254 44.2006554,22.9556327 C43.9714749,23.0290754 43.8070347,23.2174127 43.7765998,23.4413135 C43.6536237,24.3731888 43.2698535,26.6890568 42.4832305,26.949666 C41.4973015,27.2793761 39.9919044,26.0098935 39.1692367,26.1836329 C38.346569,26.3573724 37.4539322,28 37.4539322,28 L34,25.2359631 L34.7124133,24.1540401 C34.897359,23.8770962 35.0085798,23.5630196 35.0368157,23.2379593 C35.153431,21.9191189 35.7661912,18.2330783 39.0059753,18.0356471 C42.9433308,17.8026783 43.6833076,18.78786 43.6833076,18.78786 Z" id="Path" fill="#FFFFFF"></path>
                    <path d="M42.4000288,16.5501376 C42.677217,16.7924888 43.0430683,16.8963217 43.4006215,16.8341174 C44.2653312,16.6996006 45.8403381,16.6953302 45.9885741,18.4034794 C46.1594572,20.3870676 44.3765081,20.6902641 43.1226791,20.4169602 C42.7473455,20.3315985 42.3553802,20.4397868 42.0706156,20.7073455 C41.642991,21.1067278 41.0854149,21.3233825 40.5100205,21.3137385 C39.1182497,21.3137385 38.5932474,19.349367 37.4979484,20.1778193 C36.2729431,21.1044902 37.8870678,22.7571245 38.0003036,23.6090639 C38.1135394,24.4610033 35.7355877,25.2702389 35.04382,24.9136628 C34.3520522,24.5570867 32.7091038,17.0711231 35.8900002,16.2875096 C36.1602301,16.2231739 36.4120371,16.0936984 36.6250034,15.9095816 C37.380595,15.2434035 39.4600159,13.966562 42.4000288,16.5501376 Z" id="Path" stroke="#FFFFFF" stroke-width="0.3" fill="#000000"></path>
                    <path d="M38.5792861,22 C38.5792861,22 39.3944464,22.7122083 38.755419,23.5441685 C38.5497296,23.8402817 38.2241534,24.0100329 37.882033,23.9995406 C37.2837636,23.9743297 36.8397924,23.3550866 37.0552276,22.7516004 C37.0570092,22.7445241 37.0594477,22.7376612 37.0625058,22.7311165 C37.1250467,22.5137652 37.2770028,22.3399865 37.4740598,22.2604587 C37.6711168,22.1809309 37.8910832,22.20461 38.069811,22.3245905 C38.2736011,22.4711289 38.5152378,22.7972951 38.3274599,23.1849129 C38.2629875,23.3253018 38.1431293,23.4264226 38.0016179,23.459816 C37.8601065,23.4932095 37.7122417,23.4552653 37.5996382,23.3566623 C37.4939121,23.2706935 37.4403127,23.1288427 37.4600768,22.9873134 C37.4798409,22.8457842 37.5697785,22.7274201 37.694255,22.679119" id="Path" stroke="#000000" stroke-width="0.3" stroke-linecap="round" stroke-linejoin="round"></path>
                    <path d="M42,46.0694728 C42,46.0694728 37.6402715,39.4184716 38.3914027,29.8324479 L33,29 L34.3190045,50 L42,46.0694728 Z" id="Path" stroke="#FFFFFF" stroke-width="0.3" fill="#000000" stroke-linecap="round" stroke-linejoin="round"></path>
                    <path d="M32.7469388,25 C32.7469388,25 36.322449,28.1063321 37,29.3966547 L36.5244898,33 L32,26.562724 L32.7469388,25 Z" id="Path" fill="#002F9C"></path>
                    <path d="M37.3418476,31.8798759 L36.4080245,43.5609085 C36.4080245,43.5609085 37.415343,46.7380969 37.7050011,46.9786274 L44.5811387,43.4406433 L47,48.117867 L38.9738765,52.8453834 C38.9738765,52.8453834 30.9953088,52.8934895 17.2170941,57 C17.2170941,57 13.9746526,36.4455809 32.5516807,26 L37.3418476,31.8798759 Z" id="Path" fill="#3165EC"></path>
                    <path d="M37,48 L35,49" id="Path" stroke="#000000" stroke-width="0.3" stroke-linecap="round" stroke-linejoin="round"></path>
                    <path d="M30,32.0030806 C33.2657895,31.9042773 34.4921053,34.1987101 34.8710526,36.4953385 C35.2078947,38.5372739 37,44 37,44" id="Path" stroke="#000000" stroke-width="0.3" stroke-linecap="round" stroke-linejoin="round"></path>
                    <path d="M28,39 C28,39 29.4095642,49.7712749 33,53" id="Path" stroke="#000000" stroke-width="0.3" stroke-linecap="round" stroke-linejoin="round"></path>
                    <path d="M45,44.2408876 C45,44.2408876 53.2831024,40.2213235 58.2542585,41.1351513 C58.954107,41.2623486 59.5767195,41.6525376 59.9911424,42.2236501 L64,47.7620001 C64,47.7620001 63.307404,48.9506152 60.6772655,46.0152897 C60.5079656,45.8245531 60.243226,45.7459776 59.9954576,45.8129269 C59.1324097,46.0365911 57.0740404,46.2389539 55.9391324,43.582676 C55.9391324,43.582676 51.0585964,44.611531 46.7908244,47.6150208 L45,44.2408876 Z" id="Path" fill="#FFFFFF"></path>
                    <path d="M51.1908547,87 L42.2640762,87 C46.3438767,70.4272369 46.9317682,62.4927782 46.9317682,62.4927782 C38.9368604,62.4927782 36.0245041,65.3167978 27.6606005,65.3167978 C19.2966969,65.3167978 18,56.8123536 18,56.8123536 C18,56.8123536 42.5997164,48.9102805 53.0671042,53.3578954 C60.6242205,56.5705415 51.1908547,87 51.1908547,87 Z" id="Path" fill="#FFFFFF"></path>
                    <rect id="Rectangle" fill="#FFCA6E" x="20" y="66" width="17" height="20"></rect>
                    <polygon id="Path" fill="#F4F4F4" points="20 66 20 72.7339781 20 86 37 72.7339781 37 66"></polygon>
                    <polyline id="Path" fill="#FFCA6E" points="1 86 18 72 18 86 1 86"></polyline>
                    <polygon id="Path" stroke="#FFFFFF" stroke-width="0.3" fill="#000000" points="70 85 78.1422394 69 89 85"></polygon>
                    <polygon id="Path" fill="#3165EC" points="84 77.0010224 78.3995539 69 70 85"></polygon>
                </g>
            </g>
        </g>
    </g>
</svg>