<?xml version="1.0" encoding="UTF-8"?>
<svg width="120px" height="83px" viewBox="0 0 120 83" version="1.1" xmlns="http://www.w3.org/2000/svg" xmlns:xlink="http://www.w3.org/1999/xlink">
    <!-- Generator: Sketch 52.3 (67297) - http://www.bohemiancoding.com/sketch -->
    <title>Group 7</title>
    <desc>Created with Sketch.</desc>
    <g id="页面-1" stroke="none" stroke-width="1" fill="none" fill-rule="evenodd">
        <g id="light-copy-2" transform="translate(-299.000000, -1266.000000)">
            <g id="Group-7" transform="translate(300.000000, 1267.000000)">
                <path d="M61.108289,30 C61.108289,30 59.6941415,31.2076683 58.6123702,33.9450497 C57.530599,36.6824311 55.0718403,38.8300678 56.3683142,41.2454044 C57.6647882,43.6607409 59.3142829,42.7851814 59.2585428,45.2991442 C59.2234471,46.75841 59.4422787,48.5195929 60.662368,48.5759507 C62.0847734,48.6484108 62.8899084,47.5695605 64.8862306,47.6782507 C66.8825527,47.7869408 69.9585816,49.5702643 73.5899473,48.8134588 C77.221313,48.0566534 81.5752358,45.703713 82.9047409,44.7878979 C84.234246,43.8720828 71.2075732,31.0587225 71.2075732,31.0587225 L61.108289,30 Z" id="Path" fill="#DBDDE2"></path>
                <path d="M82,78.7753054 C82,78.7753054 85.4284534,79.7088304 88.426096,77.7702851 C90.8606786,76.1973874 92.121051,73.1721128 93.9705324,71.9321792 C95.8200137,70.6922456 94.9543843,69.4032866 93.1349595,70.2979998 C91.3155348,71.192713 87.2699197,75.259777 82.6612447,74.4345164 L82,78.7753054 Z" id="Path" stroke="#000000" stroke-width="0.3" fill="#000000" stroke-linecap="round" stroke-linejoin="round"></path>
                <path d="M64.4639568,50.5116256 C62.1107601,51.0815763 59.6809023,51.2350105 57.2779503,50.9653885 C53.2333126,50.5240574 50.4311715,51.0089 49.5138516,56.4623431 C48.5965318,61.9157861 43.9075622,80 50.3167574,80 L80.5642245,80 C87.0878338,80 87.111921,58.5322479 86.9653907,53.5284238 C86.8188604,48.5245998 83.0973922,48.3484817 78.7857883,49.7677859 C74.4741844,51.18709 73.2055933,50.5116256 73.2055933,50.5116256 L64.4639568,50.5116256 Z" id="Path" fill="#F4F4F4"></path>
                <path d="M62.7641892,31.0730839 C62.7641892,31.0730839 61.2033784,34.3427229 60.9135135,36.7965091 C60.6236486,39.2502953 59,39.584525 59,39.584525 C59,39.584525 60.6317568,39.9561221 60.7412162,40.4024538 C60.8506757,40.8487854 60.8506757,45.6795473 62.5918919,45.5300781 C64.3331081,45.3806089 66.0033784,44.3488561 66.1858108,45.5300781 C66.3682432,46.7113 67.0554054,50.3213967 65.1722973,51.8451522 C65.1722973,51.8451522 66.9966216,54 69.5101351,54 C72.0236486,54 74,51.8451522 74,51.8451522 C74,51.8451522 71.5959459,50.0619015 72.0682432,42.2189199 C72.5405405,34.3759382 71.4216216,30.5935368 68.2614865,30.101534 C66.3747003,29.8098244 64.4463886,30.1506193 62.7641892,31.0730839 Z" id="Path" stroke="#000000" stroke-width="0.3" fill="#000000" stroke-linecap="round" stroke-linejoin="round"></path>
                <path d="M65.2164531,51 C65.2164531,51 64.1715577,54.5518459 66.6732955,57 L69,52.9993579 C69,52.9993579 66.4505259,52.7585875 65.2164531,51 Z" id="Path" stroke="#000000" stroke-width="0.3" fill="#FFFFFF" stroke-linecap="round" stroke-linejoin="round"></path>
                <path d="M72.7832933,51 C72.7832933,51 73.8286072,54.5518459 71.3276363,57 L69,52.9993579 C69,52.9993579 71.55757,52.7585875 72.7832933,51 Z" id="Path" stroke="#000000" stroke-width="0.3" fill="#FFFFFF" stroke-linecap="round" stroke-linejoin="round"></path>
                <path d="M62.2474194,27.5168875 C62.0103068,27.8055721 61.6591443,27.9661389 61.2938092,27.9529196 C60.0351246,27.8900303 57.2955157,28.0556387 57.022767,30.6047495 C56.7136518,33.5081364 59.61691,33.7869454 61.8029401,33.5102327 C62.2867196,33.4501032 62.7600161,33.6874625 63.0151564,34.1181621 C63.3505363,34.6862616 63.9788684,35.3361172 65.0496595,35.1369679 C66.8679841,34.7994623 67.2720562,33.0301781 68.6135756,34.0657544 C70.0399501,35.1642199 67.1730585,38.4009198 68.6883289,40.2037449 C70.2035994,42.00657 72.1835527,40.4573982 73.7836783,42.4551799 C75.3838039,44.4529617 75.1676253,48.1969682 79.9417373,48.4778735 C84.7158493,48.7587788 84.9623333,47.624676 87.5928428,47.7567434 C90.2233522,47.8888109 91.8254982,49.9704449 96.3288819,49.9997933 C100.547395,50.024949 102.886972,47.7525508 103.030418,44.2244641 C103.044898,43.773053 103.209025,43.3406461 103.495101,43.0002201 C104.351734,41.9918958 105.939737,39.606297 104.260817,37.2500466 C102.052563,34.151703 95.6763054,34.8267143 91.9608623,35.3046725 C88.2454193,35.7826308 82.8449954,37.3569583 79.8609229,34.8120401 C76.9637258,32.3383964 75.5494734,28.4769966 71.5653224,27.7265183 C71.3530512,27.6913601 71.1520743,27.6036329 70.9794178,27.4707687 C70.403615,27.0158698 68.7428787,25.9320784 66.0800434,26.0033529 C63.8313821,26.0746274 62.7302856,26.9529805 62.2474194,27.5168875 Z" id="Path" stroke="#000000" stroke-width="0.3" fill="#FFFFFF" stroke-linecap="round" stroke-linejoin="round"></path>
                <path d="M65.4808261,35 C65.4808261,35 63.4317712,35.8666526 64.154342,38.1918181 C64.4784362,39.2318013 65.0522425,39.6968344 65.5870865,39.8955303 C66.7736611,40.3309704 68.036389,39.3565147 67.9991979,37.8768639 C68.000081,37.8606753 68.000081,37.8444354 67.9991979,37.8282468 C67.9354416,36.2133136 66.7789742,35.9765695 66.2848632,36.1245346 C65.7907523,36.2724997 65.1142277,36.7586707 65.2346562,37.7690608 C65.3550846,38.7794509 66.1325567,38.9126194 66.5575983,38.7414027 C66.9826399,38.570186 67.3651774,37.756378 66.8037683,37.2004521" id="Path" stroke="#FFFFFF" stroke-width="0.3" stroke-linecap="round" stroke-linejoin="round"></path>
                <path d="M89,51.5548469 C89,51.5548469 88.4873601,55.7490788 88.1526613,63.5847506 C87.8179625,71.4204223 88.5572655,80 82.1789231,80 C75.8005807,80 78.2875199,69.8052012 79.558528,65.2410714 C80.8655481,60.5145975 83.1597177,51 83.1597177,51 L89,51.5548469 Z" id="Path" fill="#DBDDE2"></path>
                <path d="M83.0000404,51.5831597 C83.0000404,51.5831597 82.9594441,48.0509865 85.4532122,45.6277282 C87.4752908,43.6611993 90.550938,43.1745532 92.1283913,41.6906815 C93.7058446,40.2068097 94.6820871,41.3516248 93.4274705,42.8873522 C92.1728538,44.4230797 87.4810902,47.3389674 87.1350558,52 L83.0000404,51.5831597 Z" id="Path" stroke="#000000" stroke-width="0.3" fill="#000000" stroke-linecap="round" stroke-linejoin="round"></path>
                <path d="M53.6932569,60 C53.74606,61.1563122 53.6288117,62.3142053 53.3454978,63.4343164 C52.8804711,65.2088174 52.7167008,68.0634495 53.9520543,70.751266 C55.0640747,73.1575812 55.0782277,73.4953828 55.0782277,73.4953828 L78,74" id="Path" stroke="#000000" stroke-width="0.3" stroke-linecap="round" stroke-linejoin="round"></path>
                <path d="M54,74.0470197 L51,73.9529803" id="Path" stroke="#000000" stroke-width="0.3" fill="#3165E8" stroke-linecap="round" stroke-linejoin="round"></path>
                <path d="M109.306565,76.0000029 L92.0019533,76.0000029 L92.0019533,76.998989 L108.720564,76.998989 L108.720564,78.9989875 L92,78.9989875 L92,80 L109.306565,80 C109.688777,80.0000016 109.998923,79.6791703 110,79.2826753 L110,76.7173276 C110.000001,76.5267296 109.92688,76.3439675 109.79678,76.2093846 C109.666679,76.0748018 109.490296,75.9994645 109.306565,76.0000029 Z" id="Path" fill="#000000"></path>
                <rect id="Rectangle" fill="#E5E5E5" x="93" y="77" width="17" height="2"></rect>
                <path d="M93,78 L110,78" id="Path" stroke="#999999" stroke-width="0.3"></path>
                <path d="M93,79 L110,79" id="Path" stroke="#999999" stroke-width="0.3"></path>
                <path d="M109.256111,72 L95,72 L95,73.0005063 L108.615482,73.0005063 L108.615482,74.9994937 L95,74.9994937 L95,76 L109.251897,76 C109.665063,76 110,75.6780984 110,75.2810127 L110,72.7189873 C110.000007,72.3234781 109.66763,72.0022282 109.256111,72 Z" id="Path" fill="#FFCB6E"></path>
                <rect id="Rectangle" fill="#E5E5E5" x="96" y="73" width="12" height="2"></rect>
                <path d="M96,74 L108,74" id="Path" stroke="#B3B3B3" stroke-width="0.3"></path>
                <path d="M96,74 L108,74" id="Path" stroke="#B3B3B3" stroke-width="0.3"></path>
                <rect id="Rectangle" fill="#DBDDE2" x="15" y="47" width="23" height="17"></rect>
                <polygon id="Path" fill="#FFCA6E" points="36.0334586 31 41 35.9163743 41 59 19 59 19 31"></polygon>
                <polygon id="Path" fill="#FFCA6E" points="36 31 36 36 41 36"></polygon>
                <rect id="Rectangle" fill="#FFFFFF" x="23" y="38" width="14" height="7"></rect>
                <path d="M23,49.1022167 L31,49.1022167" id="Path" stroke="#FFFFFF" stroke-width="0.3"></path>
                <path d="M23,52.1022167 L31,52.1022167" id="Path" stroke="#FFFFFF" stroke-width="0.3"></path>
                <rect id="Rectangle" stroke="#020202" stroke-width="0.25" x="0" y="15" width="118" height="66"></rect>
                <rect id="Rectangle" stroke="#020202" stroke-width="0.25" fill="#FFFFFF" x="0" y="0" width="118" height="15"></rect>
                <circle id="Oval" stroke="#020202" stroke-width="0.25" fill="#FFFFFF" cx="29" cy="8" r="2"></circle>
                <circle id="Oval" stroke="#020202" stroke-width="0.25" fill="#FFCA6E" cx="21" cy="8" r="2"></circle>
                <circle id="Oval" stroke="#020202" stroke-width="0.25" fill="#3165E8" cx="12" cy="8" r="2"></circle>
            </g>
        </g>
    </g>
</svg>