<?xml version="1.0" encoding="UTF-8"?>
<svg width="120px" height="83px" viewBox="0 0 120 83" version="1.1" xmlns="http://www.w3.org/2000/svg" xmlns:xlink="http://www.w3.org/1999/xlink">
    <!-- Generator: Sketch 52.3 (67297) - http://www.bohemiancoding.com/sketch -->
    <title>Group 4</title>
    <desc>Created with Sketch.</desc>
    <g id="页面-1" stroke="none" stroke-width="1" fill="none" fill-rule="evenodd">
        <g id="light-copy-2" transform="translate(-1020.000000, -1267.000000)">
            <g id="Group-4" transform="translate(1021.000000, 1268.000000)">
                <path d="M117.991737,45.7711451 C117.046963,45.2693338 116.407933,45 116.407933,45 L98,81 L108.819446,81 C108.819446,81 113.529541,75.369507 118,69.2258623 L117.991737,45.7711451 Z" id="Path" fill="#5789F7"></path>
                <path d="M71,44.9744562 C71,44.9744562 69.1539083,41.727202 67.9088107,36.1409961 C67.4827895,34.2286274 65.6468411,34.5014084 66.0601831,38.6453575 C66.4735251,42.7893066 69.0676897,44.1590153 69.5444277,47 L71,44.9744562 Z" id="Path" fill="#FFCA6E"></path>
                <path d="M89.9126876,35 C89.9126876,35 83.9099591,46.9783864 80.9085948,47.8250406 C77.9072306,48.6716947 70.2673943,42.2632579 70.2673943,42.2632579 L68,45.0073974 C68,45.0073974 75.9590723,54.3260375 81.3997271,53.9911872 C86.840382,53.6563368 92,43.7006643 92,43.7006643 L89.9126876,35 Z" id="Path" fill="#DBDDE2"></path>
                <path d="M85.850127,22.8295523 C85.5021673,23.0589176 85.0845644,23.1886047 84.652431,23.2014986 C83.2990344,23.2336091 80.3676732,23.5466863 81.1222217,25.6980882 C81.9426436,28.0260977 85.0746188,27.2099564 86.0537354,26.8915275 C86.2148642,26.8388643 86.3941098,26.9066807 86.4639463,27.0467282 C86.6196468,27.3464259 86.9310478,27.8040002 87.395155,27.8494901 C88.092813,27.9110351 87.9550779,26.9851831 89.3324284,27.2875567 C90.7097789,27.5899304 89.2755379,29.2810821 89.8354608,29.7787945 C90.3953837,30.2765069 92.9883957,29.7787945 92.9883957,29.7787945 C92.9883957,29.7787945 95.8269355,24.9836301 91.994308,23.3566993 C92.0032907,23.362051 89.2216415,20.6915297 85.850127,22.8295523 Z" id="Path" fill="#FFCA6E"></path>
                <path d="M99.701952,34.0613456 C99.2119064,33.7323282 98.7218607,33.3979608 98.2515296,33.0448689 C97.3080509,32.3413601 94.4015733,30.6374242 91.9119161,34.0934449 C88.8843352,38.2877486 88,72 88,72 L92.5258813,72 C92.5258813,72 95.0408857,49.5893643 95.5985238,47.9977758 C95.5985238,47.9977758 109.601437,54.0939609 112.003788,54.6235988 L117,45.6090556 L99.701952,34.0613456 Z" id="Path" fill="#EFEFEF"></path>
                <path d="M88.8051574,72 L88.578251,74.9377857 C88.578251,74.9377857 88.5328697,76.6776136 87.0473889,76.9140177 C85.5619081,77.1504218 80.6123224,77.0308917 80.025391,78.8902497 C79.4384597,80.7496078 89.2105636,79.9952397 90.3360195,78.6511894 C91.4614754,77.3071392 92,72.0106249 92,72.0106249 L88.8051574,72 Z" id="Path" fill="#FFCA6E"></path>
                <path d="M95,48 L96,40" id="Path" stroke="#000000" fill="#FFFFFF" stroke-linecap="round" stroke-linejoin="round"></path>
                <rect id="Rectangle" fill="#F4F4F4" x="29" y="23" width="37" height="27"></rect>
                <polyline id="Path" fill="#DBDDE2" points="29 23 47.5014027 38 66 23"></polyline>
                <path d="M29,50 L43,36" id="Path" stroke="#000000" stroke-width="0.3" fill="#FFFFFF"></path>
                <path d="M65,50 L51,36" id="Path" stroke="#000000" stroke-width="0.3" fill="#FFFFFF"></path>
                <polygon id="Path" fill="#FFCA6E" points="3 60 3 80 23 80"></polygon>
                <path d="M87.5354003,28 C87.5354003,28 86.6299277,28.5675156 87.1740516,29.4445851 C87.3472117,29.7543997 87.6566755,29.9588222 88.0038931,29.9927536 C88.2861902,30.0295051 88.5685259,29.9250262 88.7625467,29.7120121 C88.9565675,29.498998 89.0385713,29.2034714 88.9828959,28.9179135 C88.9828959,28.9179135 88.9828959,28.9050154 88.9828959,28.8985663 C88.9461431,28.6835842 88.814169,28.4981345 88.6254956,28.3963483 C88.4368222,28.294562 88.2127189,28.2879136 88.0185991,28.3783437 C87.7135923,28.4989447 87.554643,28.8431419 87.6572504,29.1608273 C87.7040273,29.3045916 87.8129005,29.4183039 87.952411,29.4691069 C88.0919214,29.5199099 88.2465234,29.5021425 88.3715444,29.4209386 C88.4884555,29.3538559 88.5597932,29.2263755 88.5571569,29.0892493 C88.5545206,28.9521231 88.4783382,28.8276122 88.3589392,28.7652862" id="Path" stroke="#000000" stroke-linecap="round" stroke-linejoin="round"></path>
                <rect id="Rectangle" stroke="#020202" stroke-width="0.25" x="0" y="15" width="118" height="66"></rect>
                <rect id="Rectangle" stroke="#020202" stroke-width="0.25" fill="#FFFFFF" x="0" y="0" width="118" height="15"></rect>
                <circle id="Oval" stroke="#020202" stroke-width="0.25" fill="#FFFFFF" cx="28.5" cy="8" r="2"></circle>
                <circle id="Oval" stroke="#020202" stroke-width="0.25" fill="#FFCA6E" cx="20.5" cy="8" r="2"></circle>
                <circle id="Oval" stroke="#020202" stroke-width="0.25" fill="#3165E8" cx="11.5" cy="8" r="2"></circle>
            </g>
        </g>
    </g>
</svg>