<?xml version="1.0" encoding="UTF-8"?>
<svg width="128px" height="94px" viewBox="0 0 128 94" version="1.1" xmlns="http://www.w3.org/2000/svg" xmlns:xlink="http://www.w3.org/1999/xlink">
    <!-- Generator: Sketch 52.3 (67297) - http://www.bohemiancoding.com/sketch -->
    <title>Group 6</title>
    <desc>Created with Sketch.</desc>
    <g id="页面-1" stroke="none" stroke-width="1" fill="none" fill-rule="evenodd">
        <g id="light-copy-2" transform="translate(-1496.000000, -1262.000000)">
            <g id="Group-6" transform="translate(1496.000000, 1262.000000)">
                <g id="Group">
                    <path d="M16.9127214,55.6457439 C16.9127214,55.6457439 23.4483945,51.4455598 27.5431938,51.2301657 C31.6513312,51.0147716 6.88246392,47.4915403 0,53.4456474 C0,53.4456474 5.60200551,55.9688349 8.74979909,57.245814 L0,65 C0,65 10.5771199,63.9230297 16.9260595,64.1384238 L16.9260595,55.6611291 L16.9127214,55.6457439 Z" id="Path" stroke="#050505" stroke-width="0.25" fill="#FFCB6E"></path>
                    <path d="M17,54.9625247 C17,54.9625247 23.3237139,51 29,51 L29,58 L17,54.9625247 Z" id="Path" stroke="#684609" stroke-width="0.5" fill="#724B11" stroke-linecap="round" stroke-linejoin="round"></path>
                    <path d="M111.087279,55.6457439 C111.087279,55.6457439 104.551605,51.4455598 100.456806,51.2301657 C96.3486688,51.0147716 121.117536,47.4915403 128,53.4456474 C128,53.4456474 122.397994,55.9688349 119.250201,57.245814 L128,65 C128,65 117.42288,63.9230297 111.07394,64.1384238 L111.07394,55.6611291 L111.087279,55.6457439 Z" id="Path" stroke="#050505" stroke-width="0.25" fill="#FFCB6E"></path>
                    <path d="M111,54.9625247 C111,54.9625247 104.676286,51 99,51 L99,58 L111,54.9625247 Z" id="Path" stroke="#684609" stroke-width="0.5" fill="#724B11" stroke-linecap="round" stroke-linejoin="round"></path>
                    <path d="M64.5,0 C64.5,0 56.683138,18.7971014 22.0044447,18.7971014 C22.0044447,18.7971014 20.6648059,93 64.5,93 C108.335194,93 106.995555,18.7971014 106.995555,18.7971014 C106.995555,18.7971014 77.4268247,21.2318841 64.5,0 Z" id="Path" stroke="#002FA7" stroke-width="0.3" fill="#FFFFFF"></path>
                    <path d="M63.7064018,9 C63.7064018,9 54.0875644,24.0937275 26,24.3215573 C26,24.3215573 27.2303164,88 63.7064018,88 C100.182487,88 102,24.3215573 102,24.3215573 C102,24.3215573 79.0573951,25.9875631 63.7064018,9 Z" id="Path" stroke="#002FA7" stroke-width="0.3"></path>
                    <path d="M18,69.8471782 C18,69.8471782 35.9632785,78 65,78 C94.0367215,78 112,68.8262524 112,68.8262524 L112,55 C112,55 92.7664512,62.5402663 65.3175676,62.5402663 C37.8686839,62.5402663 18,55 18,55 L18,69.8617628 L18,69.8471782 Z" id="Path" stroke="#050505" stroke-width="0.25" fill="#FEB32A"></path>
                    <path d="M64.952962,22.5547471 L69.0886959,31.0711294 C69.2383441,31.3891112 69.5376407,31.5964907 69.864146,31.6517918 L79.1151295,33.0204961 C79.6865138,33.1034479 80.0810411,33.6426345 79.9858104,34.2232969 C79.9586016,34.4583269 79.8497665,34.6657064 79.6729094,34.8316099 L72.9795507,41.467752 C72.7346718,41.7166073 72.6258367,42.0622397 72.6802542,42.4078721 L74.2583632,51.7675974 C74.3535939,52.3482599 73.972671,52.8874464 73.4012867,52.9842235 C73.1836165,53.0256994 72.952342,52.9842235 72.7482761,52.8736211 L64.4768085,48.4495264 C64.1775119,48.2836229 63.8101935,48.2836229 63.510897,48.4495264 L55.2394293,52.8736211 C54.7360669,53.150127 54.1102651,52.9565729 53.8381774,52.4450369 C53.7293423,52.2376575 53.6885291,52.0026275 53.7293423,51.7675974 L55.3074512,42.4078721 C55.3618688,42.0622397 55.2530337,41.7166073 55.0081547,41.467752 L48.314796,34.8316099 C47.9066644,34.4306763 47.89306,33.7532368 48.2875872,33.3384779 C48.4508399,33.1725744 48.6549057,33.061972 48.8861803,33.0204961 L58.1371638,31.6517918 C58.4772735,31.5964907 58.7765701,31.3891112 58.9262183,31.0711294 L63.0891609,22.5547471 C63.3612487,22.0432112 64.0006549,21.849657 64.5040172,22.1261629 C64.6808743,22.22294 64.8305226,22.3750183 64.9257533,22.5547471 L64.952962,22.5547471 Z" id="Path" stroke="#020202" stroke-width="0.25" fill="#3165EA"></path>
                </g>
            </g>
        </g>
    </g>
</svg>