<?xml version="1.0" encoding="UTF-8"?>
<svg width="120px" height="83px" viewBox="0 0 120 83" version="1.1" xmlns="http://www.w3.org/2000/svg" xmlns:xlink="http://www.w3.org/1999/xlink">
    <!-- Generator: Sketch 52.3 (67297) - http://www.bohemiancoding.com/sketch -->
    <title>Group 5</title>
    <desc>Created with Sketch.</desc>
    <g id="页面-1" stroke="none" stroke-width="1" fill="none" fill-rule="evenodd">
        <g id="light-copy-2" transform="translate(-1260.000000, -1267.000000)">
            <g id="Group-5" transform="translate(1261.000000, 1268.000000)">
                <g id="Group">
                    <rect id="Rectangle" stroke="#020202" stroke-width="0.25" x="0" y="15" width="118" height="66"></rect>
                    <polygon id="Path" fill="#FEB32A" points="118 0 70.7290837 0 43 80 118 80"></polygon>
                    <rect id="Rectangle" stroke="#020202" stroke-width="0.25" fill="#FFFFFF" x="0" y="0" width="118" height="15"></rect>
                    <path d="M37.2700056,49 C37.2700056,49 60.6460177,50.8454145 65.9943513,67.556668 L71,81 L6,81 C6,81 8.27640746,49.0768923 37.2700056,49.0128154 L37.2700056,49 Z" id="Path" fill="#F2F2F2"></path>
                    <path d="M82,44.3957561 L73.5701416,43 C73.5701416,43 64.7670528,64.9582351 62,80 L76.993565,80 L82,44.383294 L82,44.3957561 Z" id="Path" fill="#DDDFE4"></path>
                    <path d="M59.02,66 C59.02,66 59.82,75.8479428 59.98,81" id="Path" stroke="#000000" stroke-linecap="round" stroke-linejoin="round"></path>
                    <path d="M22,66 C22,66 19.36975,75.5076097 20.1419335,81" id="Path" stroke="#000000" stroke-linecap="round" stroke-linejoin="round"></path>
                    <path d="M42.7072099,26.5226225 C43.3888274,26.7429938 43.9365558,27.2449508 44.2043341,27.9183077 C44.7033755,29.1793216 45.5432256,31.3830352 45.6284278,32.4604063 C45.7623169,34.0274915 49,35.2885054 49,35.2885054 L47.0038345,36.2189622 C46.6630257,36.3781193 46.4682779,36.7576478 46.5413083,37.1249333 C46.8821171,38.7899614 47.6611085,43.2096314 46.4074192,43.5279456 C44.8494363,43.9197169 41.2222576,43.0015029 40.966651,45.0950308 C40.8205901,46.5519303 40.8205901,48.0088299 40.966651,49.4657294 L37.2055831,52 L32.6776954,48.8658296 C32.6776954,48.8658296 33.3227977,39.7938753 32.6776954,38.4716472 C32.0325932,37.1494191 30.6084995,27.3796222 35.7936611,26.3389797 C39.0922029,25.6778656 41.4413489,26.1186083 42.7072099,26.5226225 Z" id="Path" fill="#000000"></path>
                    <g transform="translate(26.000000, 21.000000)">
                        <path d="M7.3,19.65 C6.3375,19.65 5.4375,19.3 4.7125,19.025 L4.5875,18.975 C3.85,18.6875 1.75,16.1625 1.075,13.05 C0.675,11.175 0.675,8.4375 3,6.0875 C3.1875,5.9125 3.35,5.7125 3.5,5.5 C4.1,4.55 6.325,1.4625 10.1625,1.4625 C11.275,1.4625 12.4375,1.725 13.6125,2.25 C13.9625,2.4 14.325,2.475 14.7,2.475 C15.25,2.475 15.7875,2.3125 16.25,2 C17.2625,1.325 18.8,0.525 20.3375,0.525 C21.875,0.525 23.0625,1.3 23.95,2.8375 C24.5125,3.8 24.6125,4.625 24.25,5.3125 C23.3625,7.025 19.8,7.5875 17.75,7.7625 C16.6125,7.8875 15.7125,8.7875 15.5875,9.9125 C15.45,10.8625 14.85,11.525 13.8,11.8625 C13.4875,11.9625 13.2125,12.0125 12.9625,12.0125 C12.2125,12.0125 11.8,11.5875 11.4,11.1875 C11.05,10.825 10.6875,10.4625 10.1375,10.4625 C9.75,10.4625 9.3,10.65 8.775,11.025 C7.3,12.075 8.2625,13.6125 9.1875,15.0875 C10.0125,16.4 10.7875,17.625 9.95,18.5 C9.1875,19.2875 8.325,19.675 7.325,19.675 L7.3,19.65 Z" id="Path" fill="#FFFFFF"></path>
                        <path d="M20.325,0.675 C21.775,0.675 22.95,1.425 23.8125,2.9125 C24.35,3.8375 24.45,4.5875 24.1125,5.2375 C23.475,6.4625 21.2125,7.3 17.7375,7.6 C16.5375,7.725 15.5625,8.6875 15.4375,9.875 C15.3125,10.775 14.7375,11.3875 13.75,11.7 C13.4625,11.7875 13.1875,11.8375 12.95,11.8375 C12.275,11.8375 11.9,11.4625 11.5,11.05 C11.125,10.675 10.7375,10.275 10.125,10.275 C9.7,10.275 9.225,10.475 8.6625,10.875 C7.075,12.0125 8.1125,13.675 9.0375,15.15 C9.9625,16.625 10.5125,17.6375 9.8125,18.375 C9.075,19.1375 8.2625,19.5 7.3,19.5 C6.3375,19.5 5.475,19.1625 4.7625,18.8875 L4.625,18.8375 C3.925,18.575 1.8625,16.0375 1.2125,13.025 C0.8125,11.1875 0.825,8.5 3.0875,6.2125 C3.2875,6.025 3.4625,5.8125 3.6125,5.5875 C4.1875,4.6625 6.375,1.625 10.1375,1.625 C11.225,1.625 12.3625,1.8875 13.525,2.4 C13.8875,2.5625 14.275,2.6375 14.675,2.6375 C15.2625,2.6375 15.825,2.4625 16.3,2.1375 C17.3,1.475 18.8,0.6875 20.3,0.6875 L20.325,0.675 Z M20.3,0.375 C18.725,0.375 17.15,1.2 16.125,1.875 C15.6875,2.175 15.175,2.325 14.6625,2.325 C14.3125,2.325 13.9625,2.25 13.6375,2.1125 C12.35,1.55 11.175,1.3125 10.125,1.3125 C6.2375,1.3125 3.9625,4.4375 3.3375,5.425 C3.2,5.625 3.0375,5.825 2.8625,5.9875 C-2.275,11.175 3.1,18.6 4.5,19.125 C5.25,19.4125 6.2375,19.8125 7.275,19.8125 C8.175,19.8125 9.125,19.5125 10.0125,18.5875 C11.9375,16.5875 6.225,13 8.8125,11.1375 C9.35,10.75 9.7625,10.6 10.0875,10.6 C11.15,10.6 11.4125,12.1625 12.9125,12.1625 C13.175,12.1625 13.4625,12.1125 13.8,12.0125 C15.1125,11.5875 15.5875,10.7375 15.7,9.9375 C15.8125,8.875 16.6625,8.0375 17.725,7.925 C20.9625,7.65 26.275,6.6125 24.0375,2.775 C23,0.975 21.6375,0.375 20.2875,0.375 L20.3,0.375 Z" id="Shape" fill="#000000" fill-rule="nonzero"></path>
                    </g>
                    <path d="M38,53.5348985 C38,53.5348985 36.7034333,55.4932318 35.0320778,55.9703891 C33.3607224,56.4475465 34.2217237,51 34.2217237,51 L37.9898706,53.5348985 L38,53.5348985 Z" id="Path" stroke="#000000" stroke-width="0.25" fill="#FFFFFF" stroke-linecap="round" stroke-linejoin="round"></path>
                    <path d="M38,53.2662865 C38,53.2662865 39.9885638,55.6092106 41.2738551,55.9814509 C42.5591463,56.3536912 41.7467452,51 41.7467452,51 L38,53.2662865 Z" id="Path" stroke="#000000" stroke-width="0.25" fill="#FFFFFF" stroke-linecap="round" stroke-linejoin="round"></path>
                    <path d="M78.4979214,44 L74,43.2194892 C74,43.2194892 77.7857505,24.0905766 81.2466512,22.3120355 C84.7075518,20.5334945 79.6473902,26.8031716 79.8472979,29.8740338 C79.8472979,29.8740338 85.544665,31.8828895 81.621478,37.9350471 C80.3970438,39.854336 79.3475288,41.8887822 78.4979214,44 Z" id="Path" fill="#000000"></path>
                    <circle id="Oval" stroke="#020202" stroke-width="0.25" fill="#FFFFFF" cx="111" cy="8" r="2"></circle>
                    <circle id="Oval" stroke="#020202" stroke-width="0.25" fill="#FFCA6E" cx="103" cy="8" r="2"></circle>
                    <circle id="Oval" stroke="#020202" stroke-width="0.25" fill="#3165E8" cx="94" cy="8" r="2"></circle>
                    <polygon id="Path" fill="#FFFFFF" points="84.4002068 57 78.2518097 77.0077751 67 77.0077751 67 78 77.9480352 78 102.796794 78 107.547828 78 114 57"></polygon>
                </g>
            </g>
        </g>
    </g>
</svg>