<?xml version="1.0" encoding="UTF-8"?>
<svg width="96px" height="88px" viewBox="0 0 96 88" version="1.1" xmlns="http://www.w3.org/2000/svg" xmlns:xlink="http://www.w3.org/1999/xlink">
    <!-- Generator: Sketch 52.3 (67297) - http://www.bohemiancoding.com/sketch -->
    <title>Group 9</title>
    <desc>Created with Sketch.</desc>
    <g id="页面-1" stroke="none" stroke-width="1" fill="none" fill-rule="evenodd">
        <g id="light-copy-2" transform="translate(-791.000000, -1264.000000)">
            <g id="Group-9" transform="translate(792.000000, 1265.000000)">
                <path d="M36.142206,72 C36.0396536,76.7084469 34.9799453,79.4305177 34,81 L59,81 C58.0314494,79.4305177 56.9603464,76.7084469 56.857794,72 L36.1308113,72 L36.142206,72 Z" id="Path" stroke="#000000" stroke-width="0.25" fill="#3165EC"></path>
                <path d="M90.982593,71.9992432 L3.01810722,71.9992432 C1.37974951,72.0374591 0.0242737181,70.6234714 0.000700225948,68.8528022 C0.000700225948,68.8145863 0.000700225948,68.7763704 0.000700225948,68.7381545 L0.000700225948,13.2614307 C-0.0346600122,11.4907614 1.2736688,10.0258192 2.9120265,10.000342 C2.94738674,10.000342 2.98274698,10.000342 3.01810722,10.000342 L90.982593,10.000342 C92.6209507,9.97486471 93.9764265,11.3761138 94,13.146783 C94,13.1849989 94,13.2232148 94,13.2614307 L94,68.7381545 C94,70.534301 92.6445242,71.9865046 90.982593,71.9992432 Z" id="Path" stroke="#000000" stroke-width="0.25" fill="#FFFFFF"></path>
                <path d="M70.8812121,86 L22,86 L22,83.7565632 C22,82.2410501 23.1997576,81.0119332 24.7083636,81 C24.7083636,81 24.7321212,81 24.744,81 L68.256,81 C69.7646061,81 70.9881212,82.2052506 71,83.7207637 C71,83.7207637 71,83.7446301 71,83.7565632 L71,86 L70.8930909,86 L70.8812121,86 Z" id="Path" stroke="#000000" stroke-width="0.25" fill="#FFFFFF"></path>
                <path d="M90.982593,61.9992432 L3.01810722,61.9992432 C1.37974951,62.0374591 0.0242737181,60.6234714 0.000700225948,58.8528022 C0.000700225948,58.8145863 0.000700225948,58.7763704 0.000700225948,58.7381545 L0.000700225948,3.26143067 C-0.0346600122,1.49076142 1.2736688,0.0258192251 2.9120265,0.000341969572 C2.94738674,0.000341969572 2.98274698,0.000341969572 3.01810722,0.000341969572 L90.982593,0.000341969572 C92.6209507,-0.0251352859 93.9764265,1.37611377 94,3.14678302 C94,3.18499891 94,3.22321479 94,3.26143067 L94,58.7381545 C93.9646398,60.5215624 92.6327375,61.9610273 90.982593,61.9992432 Z" id="Path" stroke="#000000" stroke-width="0.25" fill="#FFFFFF"></path>
                <path d="M4.10591202,14.4137081 L4.10591202,8.13389892 C4.11768002,6.38316424 5.44746428,4.9749646 7.07144859,5.00033757 L85.0933034,5.00033757 C86.7055198,5.00033757 88,6.4085372 88,8.13389892 L88,52.8664387 C88,54.6044868 86.6937518,56 85.0933034,56 L7.01260857,56 C5.40039227,56 4,54.5918004 4,52.8664387 L4,25.7934835" id="Path" stroke="#000000" stroke-width="0.25" fill="#FFFFFF"></path>
                <g id="Group" transform="translate(41.000000, 63.000000)">
                    <path d="M2.14666667,3.24 C1.48,3.24 1.14666667,2.64 1.05333333,2.13333333 C1.05333333,1.57333333 1.54666667,1.08 2.14666667,1.08 L9.77333333,1.08 C10.32,1.10666667 10.7866667,1.56 10.8,2.12 C10.8266667,2.72 10.36,3.22666667 9.76,3.25333333 L2.13333333,3.25333333 L2.14666667,3.24 Z" id="Path" fill="#3165EC"></path>
                    <path d="M9.77333333,1.24 C10.24,1.26666667 10.6266667,1.65333333 10.6533333,2.12 C10.6533333,2.36 10.5733333,2.6 10.4133333,2.78666667 C10.2533333,2.97333333 10.0266667,3.06666667 9.78666667,3.08 L2.16,3.08 C1.6,3.08 1.30666667,2.56 1.24,2.16 C1.24,1.65333333 1.65333333,1.24 2.16,1.24 L9.77333333,1.24 Z M9.77333333,0.906666667 L2.14666667,0.906666667 C1.45333333,0.906666667 0.906666667,1.46666667 0.893333333,2.16 C1.01333333,2.84 1.46666667,3.41333333 2.14666667,3.41333333 L9.77333333,3.41333333 C10.4666667,3.38666667 11,2.8 10.9733333,2.10666667 C10.9466667,1.45333333 10.4266667,0.933333333 9.77333333,0.906666667 Z" id="Shape" fill="#000000" fill-rule="nonzero"></path>
                </g>
                <polygon id="Path" fill="#FFC607" points="47.3036923 39.7822625 44.0632769 50.408675 33.3422 20.7033125 61.3254154 32.096975 51.3030154 35.524025 61.4579231 46.3038875 57.4586 50.5493375"></polygon>
                <path d="M37.5,17 L37.5,11" id="Path" stroke="#000000" stroke-width="0.25" fill="#40ADFF"></path>
                <path d="M33,18 L30,13" id="Path" stroke="#000000" stroke-width="0.25" fill="#40ADFF"></path>
                <path d="M28,23 L23,19" id="Path" stroke="#000000" stroke-width="0.25" fill="#40ADFF"></path>
                <path d="M27,27.54 L21,27.46" id="Path" stroke="#000000" stroke-width="0.25" fill="#40ADFF"></path>
            </g>
        </g>
    </g>
</svg>