<?xml version="1.0" encoding="utf-8"?>
<!-- Generator: Adobe Illustrator 23.0.0, SVG Export Plug-In . SVG Version: 6.00 Build 0)  -->
<svg version="1.1" id="图层_1" xmlns="http://www.w3.org/2000/svg" xmlns:xlink="http://www.w3.org/1999/xlink" x="0px" y="0px"
	 viewBox="0 0 138.6 56.2" style="enable-background:new 0 0 138.6 56.2;" xml:space="preserve">
<style type="text/css">
	.st0{fill:#003296;}
	.st1{fill:none;}
</style>
<path class="st0" d="M2.7,26.1v-24c0-0.7,0.6-1.3,1.3-1.3h37.3c0.7,0,1.3,0.6,1.3,1.3v10.7c0,0.7,0.6,1.3,1.3,1.3h10.7
	c0.7,0,1.3,0.6,1.3,1.3v10.7c0,0.7-0.6,1.3-1.3,1.3H4.1C3.3,27.4,2.7,26.8,2.7,26.1"/>
<path class="st0" d="M135.9,26.1v-24c0-0.7-0.6-1.3-1.3-1.3H97.3c-0.7,0-1.3,0.6-1.3,1.3v10.7c0,0.7-0.6,1.3-1.3,1.3H84
	c-0.7,0-1.3,0.6-1.3,1.3v10.7c0,0.7,0.6,1.3,1.3,1.3h50.6C135.4,27.4,135.9,26.8,135.9,26.1"/>
<polygon class="st0" points="37.7,42.6 37.7,39.2 39.5,39.2 39.5,42.6 41.9,47.6 40,47.6 38.6,44.4 37,47.6 35.1,47.6 "/>
<polygon class="st0" points="35.6,35.4 37.7,35.4 37.7,36.9 42.4,36.9 42.4,42.1 40.8,42.1 40.8,38.3 35.6,38.3 "/>
<polygon class="st0" points="52.6,35.4 52.6,38.1 56.2,38.1 56.2,39.4 52.6,39.4 52.6,42.7 55.4,42.7 56.2,43.9 56.2,44.1 
	52.6,44.1 52.6,47.6 51,47.6 51,44.1 47,44.1 47,42.7 51,42.7 51,39.4 49.4,39.4 47,39.4 47,38.1 48,36.2 49.9,36.2 48.9,38.1 
	51,38.1 51,35.4 "/>
<polygon class="st0" points="59.8,47.6 56.9,47.6 56.9,46 58.2,46 58.2,42.7 56.9,43.3 56.9,41.7 58.2,41.2 58.2,39.2 56.9,39.2 
	56.9,37.8 58.2,37.8 58.2,35.4 59.8,35.4 59.8,37.8 61.4,37.8 61.4,39 61.4,39.2 59.8,39.2 "/>
<polygon class="st0" points="66.2,36.9 66.2,35.4 64.6,35.4 64.6,36.9 61.9,36.9 61.9,38.3 64.6,38.3 64.6,39.9 62.1,39.9 
	62.1,41.5 67,41.5 67,43.2 61.9,45.8 61.9,47.6 65.3,45.9 69.9,47.6 69.9,46 67.1,45 68.8,44.2 68.8,39.9 66.2,39.9 66.2,38.3 
	69.6,38.3 69.6,36.9 "/>
<path class="st0" d="M77.7,39.1v8.4H76v-8.4h-2.2v3.7L72.2,47h-1.9l1.8-4.6v-3.3h-1.7v-1.6H76v-2.1h1.7v2.1h3.2l-1.2-1.8h2.2
	l1.2,1.8v1.6H77.7z M81.5,40.1v2.4l1.9,4.6h-1.9l-1.7-4.2v-2.8H81.5z"/>
<polygon class="st0" points="92.8,43.7 87.4,43.7 87.4,42.7 93.6,42.7 93.6,42.6 92.8,41.3 87.4,41.3 87.4,41 87.4,40.5 93.9,40.5 
	93.9,46.1 91.9,46.1 91.9,47.6 95.6,47.6 95.6,45.9 95.6,39 87.8,39 88.4,38.1 96.6,38.1 96.6,36.6 89.2,36.6 89.2,35.4 87,35.4 
	87,36.6 84.1,36.6 84.1,38.1 86.2,38.1 84.9,40.5 85.7,41.4 85.7,47.6 87.4,47.6 87.4,45.1 93.6,45.1 93.6,45 "/>
<polygon class="st0" points="102.4,35.6 102.4,37 101.5,40.5 102.4,46.1 100.8,46.1 99.8,40 100.7,37.1 99.3,37.1 99.3,47.6 
	97.6,47.6 97.6,35.6 "/>
<polygon class="st0" points="108.2,41.8 109.8,41.8 109.8,35.6 102.9,35.6 102.9,47.6 104.5,47.6 107.2,45.9 110.2,47.6 110.2,45.8 
	108.8,44.9 110.1,43.7 110.1,41.9 104.5,45.8 104.5,41.8 108,41.8 108,41.6 107.1,40.4 104.5,40.4 104.5,39.5 108,39.5 108,39.3 
	107.1,38.1 104.5,38.1 104.5,37.1 108.2,37.1 "/>
<path class="st0" d="M115.4,37.1v1.8l-2,2.9h-2.4l2.5-3.4v-2.9h8.6v1.5H115.4z M122.5,47.4h-10.2v-1.5l3.8-4.8h2.4l-3.8,4.8h6.8
	l0.9,1.4V47.4z M122,38.2v1.2l1.9,2.4h-2.2l-1.5-2.1v-1.6H122z"/>
<path class="st0" d="M132.7,38.2l0.9,1.4v0.2h-8.8v-1.5H132.7z M135.9,35.6v11.8h-5v-1.6h3.3v-8.7h-10v-1.5H135.9z M124.9,43.7h6.1
	v-1.5h-6.1v-1.5h7.8v4.6h-7.8V43.7z"/>
<polygon class="st0" points="47.2,35.4 45.5,35.4 43.3,40.7 44.3,42.1 44.3,47.6 46,47.6 46,41.8 45.1,40.5 "/>
<polygon class="st0" points="20.2,35.4 18.6,35.4 16.3,40.7 17.4,42.2 17.4,47.6 19.1,47.6 19.1,41.8 18.2,40.5 "/>
<polygon class="st0" points="25.8,36.9 25.8,35.4 23.6,35.4 23.6,36.9 20.1,36.9 20.1,38.3 29.3,38.3 29.3,36.9 "/>
<polygon class="st0" points="20.7,44.8 27,44.8 27,46.2 20.7,46.2 20.7,47.6 28.7,47.6 28.7,46.3 28.7,43.4 20.7,43.4 "/>
<polygon class="st0" points="10,41.8 10,45.6 8.9,47.6 7.1,47.6 8.3,45.2 8.3,41.8 7.1,41.8 7.1,40.2 9.2,38.1 6.3,38.1 6.3,36.7 
	10.1,36.7 10.1,35.4 12.2,35.4 12.2,36.7 15.7,36.7 15.7,38.1 11.4,38.1 9.1,40.3 14.5,40.3 15.4,41.6 15.4,41.8 "/>
<polygon class="st0" points="11.5,42.5 11.5,47.6 15.7,47.6 15.7,46 13.2,46 13.2,42.5 "/>
<polygon class="st0" points="6.6,40.3 4.7,38.4 6.6,35.4 4.7,35.4 2.7,38.5 4.6,40.4 2.8,43.2 4.6,46 2.7,46 2.7,47.6 6.5,47.6 
	6.5,46 4.8,43.1 "/>
<polygon class="st0" points="20.7,39.1 20.7,40.5 28.9,40.5 28.9,40.3 28.1,39.1 "/>
<polygon class="st0" points="20.7,41.1 20.7,42.5 28.9,42.5 28.9,42.4 28.1,41.1 "/>
<polygon class="st0" points="31.5,36.9 32,35.4 33.7,35.4 33.1,36.9 35.3,36.9 35.3,38.3 32.6,38.3 31.8,40.7 34.4,40.7 34.4,42.1 
	34.4,43.8 35,43.8 35.9,45 35.9,45.2 34.4,45.2 34.4,47.6 32.7,47.6 32.7,45.2 30.2,45.2 30.2,43.8 32.7,43.8 32.7,42.1 30.2,42.1 
	30.2,40.6 31,38.3 30.2,38.3 30.2,36.9 "/>
<path class="st0" d="M6.2,54.6c-0.4,0.3-0.8,0.5-1.5,0.5c-0.6,0-1.1-0.2-1.5-0.5c-0.3-0.3-0.5-0.8-0.5-1.4v-2.9h1v2.9
	c0,0.1,0,0.3,0,0.4c0,0.1,0.1,0.2,0.1,0.3C4,54,4.1,54.1,4.2,54.1c0.1,0.1,0.3,0.1,0.5,0.1c0.4,0,0.6-0.1,0.8-0.2
	c0.1-0.2,0.2-0.4,0.2-0.8v-2.9h1v2.9C6.8,53.8,6.6,54.3,6.2,54.6"/>
<path class="st0" d="M8.6,51.6V52h0c0.1-0.2,0.3-0.3,0.5-0.4c0.2-0.1,0.4-0.1,0.6-0.1c0.3,0,0.5,0,0.6,0.1c0.2,0.1,0.3,0.2,0.4,0.3
	c0.1,0.1,0.2,0.3,0.2,0.4c0,0.2,0.1,0.4,0.1,0.6V55H9.9V53c0-0.3,0-0.5-0.1-0.6c-0.1-0.1-0.2-0.2-0.5-0.2c-0.3,0-0.4,0.1-0.6,0.2
	c-0.1,0.2-0.2,0.4-0.2,0.7V55H7.7v-3.4H8.6z"/>
<path class="st0" d="M11.7,50.3h0.9V51h-0.9V50.3z M12.7,55h-0.9v-3.4h0.9V55z"/>
<path class="st0" d="M13.6,52.5c0.1-0.2,0.2-0.4,0.4-0.6c0.2-0.2,0.3-0.3,0.6-0.4c0.2-0.1,0.5-0.1,0.7-0.1c0.3,0,0.5,0,0.7,0.1
	c0.2,0.1,0.4,0.2,0.6,0.4c0.2,0.2,0.3,0.3,0.4,0.6c0.1,0.2,0.1,0.5,0.1,0.7c0,0.3,0,0.5-0.1,0.7c-0.1,0.2-0.2,0.4-0.4,0.6
	c-0.2,0.2-0.3,0.3-0.6,0.4C15.7,55,15.5,55,15.2,55c-0.3,0-0.5,0-0.7-0.1c-0.2-0.1-0.4-0.2-0.6-0.4c-0.2-0.2-0.3-0.3-0.4-0.6
	s-0.1-0.5-0.1-0.7C13.4,53,13.5,52.7,13.6,52.5 M14.4,53.7c0,0.1,0.1,0.2,0.1,0.4c0.1,0.1,0.1,0.2,0.3,0.2c0.1,0.1,0.2,0.1,0.4,0.1
	s0.3,0,0.4-0.1c0.1-0.1,0.2-0.1,0.3-0.2c0.1-0.1,0.1-0.2,0.1-0.4c0-0.1,0-0.3,0-0.4c0-0.1,0-0.3,0-0.4c0-0.1-0.1-0.2-0.1-0.3
	c-0.1-0.1-0.1-0.2-0.3-0.2c-0.1-0.1-0.2-0.1-0.4-0.1s-0.3,0-0.4,0.1c-0.1,0.1-0.2,0.1-0.3,0.2c-0.1,0.1-0.1,0.2-0.1,0.3
	c0,0.1,0,0.3,0,0.4C14.4,53.4,14.4,53.5,14.4,53.7"/>
<path class="st0" d="M18.6,51.6V52h0c0.1-0.2,0.3-0.3,0.5-0.4c0.2-0.1,0.4-0.1,0.6-0.1c0.3,0,0.5,0,0.6,0.1c0.2,0.1,0.3,0.2,0.4,0.3
	c0.1,0.1,0.2,0.3,0.2,0.4c0,0.2,0.1,0.4,0.1,0.6V55h-0.9V53c0-0.3,0-0.5-0.1-0.6c-0.1-0.1-0.2-0.2-0.5-0.2c-0.3,0-0.4,0.1-0.6,0.2
	c-0.1,0.2-0.2,0.4-0.2,0.7V55h-0.9v-3.4H18.6z"/>
<polygon class="st0" points="21.5,51.1 21.5,50.3 25.3,50.3 25.3,51.1 23.9,51.1 23.9,55 22.9,55 22.9,51.1 "/>
<path class="st0" d="M26.1,54.1c0.1,0.1,0.3,0.2,0.6,0.2c0.2,0,0.4,0,0.5-0.1c0.1-0.1,0.2-0.2,0.3-0.3h0.8c-0.1,0.4-0.3,0.7-0.6,0.9
	c-0.3,0.2-0.6,0.3-1,0.3c-0.3,0-0.5,0-0.7-0.1c-0.2-0.1-0.4-0.2-0.5-0.4c-0.1-0.2-0.3-0.3-0.3-0.6C25,53.8,25,53.5,25,53.3
	c0-0.3,0-0.5,0.1-0.7c0.1-0.2,0.2-0.4,0.4-0.6c0.2-0.2,0.3-0.3,0.6-0.4c0.2-0.1,0.4-0.1,0.7-0.1c0.3,0,0.5,0.1,0.8,0.2
	c0.2,0.1,0.4,0.3,0.5,0.5c0.1,0.2,0.2,0.4,0.3,0.6c0.1,0.2,0.1,0.5,0.1,0.8h-2.5C25.9,53.8,26,54,26.1,54.1 M27.2,52.4
	c-0.1-0.1-0.3-0.2-0.5-0.2c-0.2,0-0.3,0-0.4,0.1c-0.1,0-0.2,0.1-0.2,0.2C26,52.5,26,52.6,26,52.7c0,0.1,0,0.2,0,0.2h1.5
	C27.4,52.7,27.3,52.5,27.2,52.4"/>
<path class="st0" d="M30.7,52.2c-0.1,0-0.3,0-0.4,0.1c-0.1,0.1-0.2,0.2-0.2,0.3c-0.1,0.1-0.1,0.2-0.1,0.4c0,0.1,0,0.3,0,0.4
	c0,0.1,0,0.2,0,0.4c0,0.1,0.1,0.2,0.1,0.3c0.1,0.1,0.1,0.2,0.2,0.3c0.1,0.1,0.2,0.1,0.4,0.1c0.2,0,0.4-0.1,0.5-0.2
	c0.1-0.1,0.2-0.3,0.2-0.5h0.9c-0.1,0.5-0.2,0.8-0.5,1c-0.3,0.2-0.7,0.4-1.1,0.4c-0.3,0-0.5,0-0.7-0.1c-0.2-0.1-0.4-0.2-0.5-0.4
	c-0.1-0.2-0.3-0.3-0.3-0.6s-0.1-0.4-0.1-0.7c0-0.3,0-0.5,0.1-0.7c0.1-0.2,0.2-0.4,0.3-0.6c0.1-0.2,0.3-0.3,0.5-0.4
	c0.2-0.1,0.5-0.1,0.7-0.1c0.2,0,0.4,0,0.6,0.1c0.2,0.1,0.4,0.1,0.5,0.2c0.1,0.1,0.3,0.2,0.4,0.4c0.1,0.2,0.1,0.3,0.2,0.6h-0.9
	C31.3,52.4,31.1,52.2,30.7,52.2"/>
<path class="st0" d="M33.9,50.3V52h0c0.1-0.2,0.3-0.3,0.5-0.4c0.2-0.1,0.4-0.1,0.5-0.1c0.3,0,0.5,0,0.6,0.1c0.2,0.1,0.3,0.2,0.4,0.3
	c0.1,0.1,0.2,0.3,0.2,0.4c0,0.2,0.1,0.4,0.1,0.6V55h-0.9V53c0-0.3,0-0.5-0.1-0.6c-0.1-0.1-0.2-0.2-0.5-0.2c-0.3,0-0.4,0.1-0.6,0.2
	c-0.1,0.2-0.2,0.4-0.2,0.7V55H33v-4.7H33.9z"/>
<path class="st0" d="M39.8,53.8c0.1,0.1,0.1,0.2,0.2,0.3c0.1,0.1,0.2,0.1,0.3,0.2c0.1,0,0.3,0.1,0.4,0.1c0.1,0,0.2,0,0.3,0
	c0.1,0,0.2,0,0.3-0.1c0.1,0,0.2-0.1,0.2-0.2c0.1-0.1,0.1-0.2,0.1-0.3c0-0.1,0-0.2-0.1-0.3c-0.1-0.1-0.2-0.1-0.3-0.2
	c-0.1-0.1-0.3-0.1-0.4-0.1c-0.2,0-0.3-0.1-0.5-0.1c-0.2,0-0.3-0.1-0.5-0.2c-0.2-0.1-0.3-0.1-0.4-0.2c-0.1-0.1-0.2-0.2-0.3-0.4
	c-0.1-0.2-0.1-0.3-0.1-0.5c0-0.2,0.1-0.5,0.2-0.6c0.1-0.2,0.2-0.3,0.4-0.4c0.2-0.1,0.4-0.2,0.6-0.3c0.2-0.1,0.4-0.1,0.6-0.1
	c0.2,0,0.5,0,0.7,0.1c0.2,0.1,0.4,0.1,0.6,0.3c0.2,0.1,0.3,0.3,0.4,0.5c0.1,0.2,0.2,0.4,0.2,0.7h-1c0-0.1,0-0.3-0.1-0.3
	c-0.1-0.1-0.1-0.2-0.2-0.2C41.2,51,41.1,51,41,51c-0.1,0-0.2,0-0.4,0c-0.1,0-0.2,0-0.2,0c-0.1,0-0.2,0-0.2,0.1
	c-0.1,0-0.1,0.1-0.2,0.2c0,0.1-0.1,0.1-0.1,0.3c0,0.1,0,0.2,0.1,0.2c0,0.1,0.1,0.1,0.2,0.2c0.1,0,0.2,0.1,0.4,0.1
	c0.2,0,0.4,0.1,0.7,0.2c0.1,0,0.2,0,0.4,0.1s0.3,0.1,0.5,0.2c0.2,0.1,0.3,0.2,0.4,0.4c0.1,0.2,0.2,0.4,0.2,0.6c0,0.2,0,0.4-0.1,0.6
	s-0.2,0.3-0.4,0.5s-0.4,0.2-0.6,0.3c-0.2,0.1-0.5,0.1-0.8,0.1c-0.3,0-0.5,0-0.8-0.1c-0.2-0.1-0.5-0.2-0.6-0.3
	c-0.2-0.1-0.3-0.3-0.4-0.5c-0.1-0.2-0.2-0.5-0.2-0.8h1C39.8,53.6,39.8,53.7,39.8,53.8"/>
<path class="st0" d="M43.4,52.5c0.1-0.2,0.2-0.4,0.4-0.6c0.2-0.2,0.3-0.3,0.6-0.4c0.2-0.1,0.5-0.1,0.7-0.1c0.3,0,0.5,0,0.7,0.1
	c0.2,0.1,0.4,0.2,0.6,0.4c0.2,0.2,0.3,0.3,0.4,0.6c0.1,0.2,0.1,0.5,0.1,0.7c0,0.3,0,0.5-0.1,0.7c-0.1,0.2-0.2,0.4-0.4,0.6
	c-0.2,0.2-0.3,0.3-0.6,0.4C45.5,55,45.3,55,45,55c-0.3,0-0.5,0-0.7-0.1c-0.2-0.1-0.4-0.2-0.6-0.4c-0.2-0.2-0.3-0.3-0.4-0.6
	c-0.1-0.2-0.1-0.5-0.1-0.7C43.3,53,43.3,52.7,43.4,52.5 M44.2,53.7c0,0.1,0.1,0.2,0.1,0.4c0.1,0.1,0.1,0.2,0.3,0.2
	c0.1,0.1,0.2,0.1,0.4,0.1s0.3,0,0.4-0.1c0.1-0.1,0.2-0.1,0.3-0.2c0.1-0.1,0.1-0.2,0.1-0.4c0-0.1,0-0.3,0-0.4c0-0.1,0-0.3,0-0.4
	s-0.1-0.2-0.1-0.3c-0.1-0.1-0.1-0.2-0.3-0.2c-0.1-0.1-0.2-0.1-0.4-0.1s-0.3,0-0.4,0.1c-0.1,0.1-0.2,0.1-0.3,0.2
	c-0.1,0.1-0.1,0.2-0.1,0.3c0,0.1,0,0.3,0,0.4C44.2,53.4,44.2,53.5,44.2,53.7"/>
<path class="st0" d="M47.2,52.2v-0.6h0.6v-0.3c0-0.3,0.1-0.6,0.3-0.7c0.2-0.2,0.5-0.3,0.9-0.3c0.1,0,0.2,0,0.3,0c0.1,0,0.2,0,0.2,0
	V51c-0.1,0-0.2,0-0.3,0c-0.1,0-0.2,0-0.3,0.1c-0.1,0.1-0.1,0.2-0.1,0.3v0.2h0.6v0.6h-0.6V55h-0.9v-2.8H47.2z"/>
<path class="st0" d="M51.7,51.6v0.6H51v1.7c0,0.2,0,0.3,0.1,0.3c0.1,0.1,0.2,0.1,0.3,0.1c0.1,0,0.1,0,0.2,0c0,0,0.1,0,0.1,0V55
	c-0.1,0-0.2,0-0.3,0c-0.1,0-0.2,0-0.3,0c-0.1,0-0.3,0-0.4,0c-0.1,0-0.2-0.1-0.3-0.1c-0.1-0.1-0.2-0.1-0.2-0.2
	c-0.1-0.1-0.1-0.2-0.1-0.4v-2h-0.6v-0.6h0.6v-1H51v1H51.7z"/>
<polygon class="st0" points="55.2,55 54.6,52.7 54.6,52.7 54,55 53,55 52,51.6 53,51.6 53.6,53.9 53.6,53.9 54.2,51.6 55.1,51.6 
	55.6,53.9 55.7,53.9 56.3,51.6 57.2,51.6 56.2,55 "/>
<path class="st0" d="M57.7,52.6c0-0.2,0.1-0.4,0.2-0.5c0.1-0.1,0.2-0.3,0.4-0.3c0.1-0.1,0.3-0.2,0.5-0.2c0.2,0,0.4-0.1,0.6-0.1
	c0.2,0,0.3,0,0.5,0c0.2,0,0.3,0.1,0.5,0.1c0.1,0.1,0.3,0.2,0.4,0.3c0.1,0.1,0.1,0.3,0.1,0.5v1.8c0,0.2,0,0.3,0,0.4
	c0,0.1,0,0.2,0.1,0.3H60c0-0.1,0-0.1,0-0.2c0-0.1,0-0.1,0-0.2c-0.1,0.2-0.3,0.3-0.5,0.3C59.2,55,59,55,58.8,55c-0.2,0-0.3,0-0.5-0.1
	c-0.1,0-0.3-0.1-0.4-0.2c-0.1-0.1-0.2-0.2-0.2-0.3c-0.1-0.1-0.1-0.3-0.1-0.5c0-0.2,0-0.4,0.1-0.5c0.1-0.1,0.2-0.2,0.3-0.3
	c0.1-0.1,0.2-0.1,0.4-0.2c0.1,0,0.3-0.1,0.4-0.1c0.1,0,0.3,0,0.4-0.1c0.1,0,0.3,0,0.4-0.1c0.1,0,0.2-0.1,0.3-0.1
	c0.1-0.1,0.1-0.1,0.1-0.2c0-0.1,0-0.2,0-0.2c0-0.1-0.1-0.1-0.1-0.1c-0.1,0-0.1-0.1-0.2-0.1c-0.1,0-0.1,0-0.2,0c-0.2,0-0.3,0-0.4,0.1
	c-0.1,0.1-0.2,0.2-0.2,0.4H57.7z M59.9,53.3c0,0-0.1,0.1-0.1,0.1c-0.1,0-0.1,0-0.2,0.1c-0.1,0-0.1,0-0.2,0c-0.1,0-0.1,0-0.2,0
	c-0.1,0-0.1,0-0.2,0.1c-0.1,0-0.1,0.1-0.2,0.1c-0.1,0-0.1,0.1-0.1,0.1c0,0.1,0,0.1,0,0.2c0,0.1,0,0.2,0,0.2c0,0.1,0.1,0.1,0.1,0.1
	c0.1,0,0.1,0.1,0.2,0.1c0.1,0,0.1,0,0.2,0c0.2,0,0.3,0,0.4-0.1c0.1-0.1,0.2-0.1,0.2-0.2c0-0.1,0.1-0.2,0.1-0.3c0-0.1,0-0.2,0-0.2
	V53.3z"/>
<path class="st0" d="M62.6,51.6v0.6h0c0-0.1,0.1-0.2,0.2-0.3c0.1-0.1,0.2-0.2,0.3-0.2c0.1-0.1,0.2-0.1,0.3-0.1
	c0.1,0,0.2-0.1,0.3-0.1c0.1,0,0.1,0,0.2,0v0.9c0,0-0.1,0-0.2,0c-0.1,0-0.1,0-0.2,0c-0.2,0-0.3,0-0.4,0.1c-0.1,0.1-0.2,0.1-0.3,0.2
	c-0.1,0.1-0.1,0.2-0.2,0.3c0,0.1,0,0.3,0,0.4V55h-0.9v-3.4H62.6z"/>
<path class="st0" d="M65.3,54.1c0.1,0.1,0.3,0.2,0.6,0.2c0.2,0,0.4,0,0.5-0.1c0.1-0.1,0.2-0.2,0.3-0.3h0.8c-0.1,0.4-0.3,0.7-0.6,0.9
	c-0.3,0.2-0.6,0.3-1,0.3c-0.3,0-0.5,0-0.7-0.1c-0.2-0.1-0.4-0.2-0.5-0.4c-0.1-0.2-0.3-0.3-0.3-0.6c-0.1-0.2-0.1-0.5-0.1-0.7
	c0-0.3,0-0.5,0.1-0.7c0.1-0.2,0.2-0.4,0.4-0.6c0.2-0.2,0.3-0.3,0.6-0.4c0.2-0.1,0.4-0.1,0.7-0.1c0.3,0,0.5,0.1,0.8,0.2
	c0.2,0.1,0.4,0.3,0.5,0.5c0.1,0.2,0.2,0.4,0.3,0.6c0.1,0.2,0.1,0.5,0.1,0.8H65C65,53.8,65.1,54,65.3,54.1 M66.3,52.4
	c-0.1-0.1-0.3-0.2-0.5-0.2c-0.2,0-0.3,0-0.4,0.1c-0.1,0-0.2,0.1-0.2,0.2c-0.1,0.1-0.1,0.2-0.1,0.2c0,0.1,0,0.2,0,0.2h1.5
	C66.5,52.7,66.4,52.5,66.3,52.4"/>
<polygon class="st0" points="69.9,51.1 69.9,50.3 73.7,50.3 73.7,51.1 72.3,51.1 72.3,55 71.3,55 71.3,51.1 "/>
<path class="st0" d="M74.5,54.1c0.1,0.1,0.3,0.2,0.6,0.2c0.2,0,0.4,0,0.5-0.1c0.1-0.1,0.2-0.2,0.3-0.3h0.8c-0.1,0.4-0.3,0.7-0.6,0.9
	c-0.3,0.2-0.6,0.3-1,0.3c-0.3,0-0.5,0-0.7-0.1c-0.2-0.1-0.4-0.2-0.5-0.4c-0.1-0.2-0.3-0.3-0.3-0.6c-0.1-0.2-0.1-0.5-0.1-0.7
	c0-0.3,0-0.5,0.1-0.7c0.1-0.2,0.2-0.4,0.4-0.6c0.2-0.2,0.3-0.3,0.6-0.4c0.2-0.1,0.4-0.1,0.7-0.1c0.3,0,0.5,0.1,0.8,0.2
	c0.2,0.1,0.4,0.3,0.5,0.5c0.1,0.2,0.2,0.4,0.3,0.6c0.1,0.2,0.1,0.5,0.1,0.8h-2.5C74.3,53.8,74.4,54,74.5,54.1 M75.6,52.4
	c-0.1-0.1-0.3-0.2-0.5-0.2c-0.1,0-0.3,0-0.4,0.1c-0.1,0-0.2,0.1-0.2,0.2c-0.1,0.1-0.1,0.2-0.1,0.2c0,0.1,0,0.2,0,0.2h1.5
	C75.8,52.7,75.7,52.5,75.6,52.4"/>
<path class="st0" d="M79.1,52.2c-0.1,0-0.3,0-0.4,0.1c-0.1,0.1-0.2,0.2-0.2,0.3s-0.1,0.2-0.1,0.4c0,0.1,0,0.3,0,0.4
	c0,0.1,0,0.2,0,0.4c0,0.1,0.1,0.2,0.1,0.3c0.1,0.1,0.1,0.2,0.2,0.3c0.1,0.1,0.2,0.1,0.4,0.1c0.2,0,0.4-0.1,0.5-0.2s0.2-0.3,0.2-0.5
	h0.9c-0.1,0.5-0.2,0.8-0.5,1c-0.3,0.2-0.7,0.4-1.1,0.4c-0.3,0-0.5,0-0.7-0.1c-0.2-0.1-0.4-0.2-0.5-0.4c-0.1-0.2-0.3-0.3-0.3-0.6
	c-0.1-0.2-0.1-0.4-0.1-0.7c0-0.3,0-0.5,0.1-0.7c0.1-0.2,0.2-0.4,0.3-0.6c0.1-0.2,0.3-0.3,0.5-0.4c0.2-0.1,0.5-0.1,0.7-0.1
	c0.2,0,0.4,0,0.6,0.1c0.2,0.1,0.4,0.1,0.5,0.2c0.1,0.1,0.3,0.2,0.4,0.4c0.1,0.2,0.1,0.3,0.2,0.6h-0.9C79.7,52.4,79.5,52.2,79.1,52.2
	"/>
<path class="st0" d="M82.3,50.3V52h0c0.1-0.2,0.3-0.3,0.5-0.4c0.2-0.1,0.4-0.1,0.5-0.1c0.3,0,0.5,0,0.6,0.1c0.2,0.1,0.3,0.2,0.4,0.3
	c0.1,0.1,0.2,0.3,0.2,0.4c0,0.2,0.1,0.4,0.1,0.6V55h-0.9V53c0-0.3,0-0.5-0.1-0.6c-0.1-0.1-0.2-0.2-0.5-0.2c-0.3,0-0.4,0.1-0.6,0.2
	c-0.1,0.2-0.2,0.4-0.2,0.7V55h-0.9v-4.7H82.3z"/>
<path class="st0" d="M86.3,51.6V52h0c0.1-0.2,0.3-0.3,0.5-0.4c0.2-0.1,0.4-0.1,0.6-0.1c0.3,0,0.5,0,0.6,0.1c0.2,0.1,0.3,0.2,0.4,0.3
	c0.1,0.1,0.2,0.3,0.2,0.4c0,0.2,0.1,0.4,0.1,0.6V55h-0.9V53c0-0.3,0-0.5-0.1-0.6c-0.1-0.1-0.2-0.2-0.5-0.2c-0.3,0-0.4,0.1-0.6,0.2
	c-0.1,0.2-0.2,0.4-0.2,0.7V55h-0.9v-3.4H86.3z"/>
<path class="st0" d="M89.5,52.5c0.1-0.2,0.2-0.4,0.4-0.6c0.2-0.2,0.3-0.3,0.6-0.4c0.2-0.1,0.5-0.1,0.7-0.1c0.3,0,0.5,0,0.7,0.1
	c0.2,0.1,0.4,0.2,0.6,0.4c0.2,0.2,0.3,0.3,0.4,0.6c0.1,0.2,0.1,0.5,0.1,0.7c0,0.3,0,0.5-0.1,0.7c-0.1,0.2-0.2,0.4-0.4,0.6
	c-0.2,0.2-0.3,0.3-0.6,0.4C91.6,55,91.4,55,91.1,55c-0.3,0-0.5,0-0.7-0.1c-0.2-0.1-0.4-0.2-0.6-0.4c-0.2-0.2-0.3-0.3-0.4-0.6
	c-0.1-0.2-0.1-0.5-0.1-0.7C89.3,53,89.4,52.7,89.5,52.5 M90.3,53.7c0,0.1,0.1,0.2,0.1,0.4c0.1,0.1,0.1,0.2,0.3,0.2
	c0.1,0.1,0.2,0.1,0.4,0.1c0.2,0,0.3,0,0.4-0.1c0.1-0.1,0.2-0.1,0.3-0.2c0.1-0.1,0.1-0.2,0.1-0.4c0-0.1,0-0.3,0-0.4
	c0-0.1,0-0.3,0-0.4c0-0.1-0.1-0.2-0.1-0.3c-0.1-0.1-0.1-0.2-0.3-0.2c-0.1-0.1-0.2-0.1-0.4-0.1c-0.2,0-0.3,0-0.4,0.1
	c-0.1,0.1-0.2,0.1-0.3,0.2c-0.1,0.1-0.1,0.2-0.1,0.3c0,0.1,0,0.3,0,0.4C90.3,53.4,90.3,53.5,90.3,53.7"/>
<rect x="93.6" y="50.3" class="st0" width="0.9" height="4.7"/>
<path class="st0" d="M95.4,52.5c0.1-0.2,0.2-0.4,0.4-0.6c0.2-0.2,0.3-0.3,0.6-0.4c0.2-0.1,0.5-0.1,0.7-0.1c0.3,0,0.5,0,0.7,0.1
	c0.2,0.1,0.4,0.2,0.6,0.4c0.2,0.2,0.3,0.3,0.4,0.6c0.1,0.2,0.1,0.5,0.1,0.7c0,0.3,0,0.5-0.1,0.7c-0.1,0.2-0.2,0.4-0.4,0.6
	c-0.2,0.2-0.3,0.3-0.6,0.4C97.6,55,97.3,55,97.1,55c-0.3,0-0.5,0-0.7-0.1c-0.2-0.1-0.4-0.2-0.6-0.4c-0.2-0.2-0.3-0.3-0.4-0.6
	c-0.1-0.2-0.1-0.5-0.1-0.7C95.3,53,95.4,52.7,95.4,52.5 M96.3,53.7c0,0.1,0.1,0.2,0.1,0.4c0.1,0.1,0.1,0.2,0.3,0.2
	c0.1,0.1,0.2,0.1,0.4,0.1c0.2,0,0.3,0,0.4-0.1c0.1-0.1,0.2-0.1,0.3-0.2c0.1-0.1,0.1-0.2,0.1-0.4c0-0.1,0-0.3,0-0.4
	c0-0.1,0-0.3,0-0.4c0-0.1-0.1-0.2-0.1-0.3c-0.1-0.1-0.1-0.2-0.3-0.2c-0.1-0.1-0.2-0.1-0.4-0.1c-0.2,0-0.3,0-0.4,0.1
	c-0.1,0.1-0.2,0.1-0.3,0.2c-0.1,0.1-0.1,0.2-0.1,0.3c0,0.1,0,0.3,0,0.4C96.2,53.4,96.3,53.5,96.3,53.7"/>
<path class="st0" d="M102.8,55.2c0,0.2-0.1,0.3-0.2,0.5s-0.3,0.3-0.5,0.4c-0.2,0.1-0.5,0.2-0.9,0.2c-0.2,0-0.3,0-0.5-0.1
	c-0.2,0-0.3-0.1-0.5-0.2c-0.1-0.1-0.3-0.2-0.4-0.3c-0.1-0.1-0.1-0.3-0.2-0.5h0.9c0,0.2,0.1,0.3,0.3,0.4c0.1,0.1,0.3,0.1,0.4,0.1
	c0.3,0,0.5-0.1,0.6-0.2c0.1-0.2,0.2-0.4,0.2-0.6v-0.4h0c-0.1,0.2-0.2,0.3-0.4,0.4c-0.2,0.1-0.4,0.1-0.6,0.1c-0.3,0-0.5,0-0.7-0.1
	c-0.2-0.1-0.3-0.2-0.5-0.4c-0.1-0.2-0.2-0.3-0.3-0.5c-0.1-0.2-0.1-0.4-0.1-0.7c0-0.2,0-0.4,0.1-0.6c0.1-0.2,0.2-0.4,0.3-0.5
	c0.1-0.2,0.3-0.3,0.5-0.4c0.2-0.1,0.4-0.1,0.6-0.1c0.2,0,0.4,0,0.6,0.1c0.2,0.1,0.3,0.2,0.4,0.4h0v-0.5h0.9v3.2
	C102.8,54.9,102.8,55,102.8,55.2 M101.5,54.1c0.1-0.1,0.2-0.1,0.3-0.2c0.1-0.1,0.1-0.2,0.1-0.3c0-0.1,0-0.2,0-0.4c0-0.1,0-0.3,0-0.4
	c0-0.1-0.1-0.2-0.1-0.3c-0.1-0.1-0.1-0.2-0.2-0.2c-0.1-0.1-0.2-0.1-0.4-0.1c-0.1,0-0.2,0-0.3,0.1c-0.1,0.1-0.2,0.1-0.2,0.2
	c-0.1,0.1-0.1,0.2-0.1,0.3c0,0.1,0,0.2,0,0.4c0,0.1,0,0.2,0,0.4c0,0.1,0.1,0.2,0.1,0.3c0.1,0.1,0.1,0.2,0.2,0.2
	c0.1,0.1,0.2,0.1,0.4,0.1C101.3,54.2,101.4,54.1,101.5,54.1"/>
<path class="st0" d="M105,56c-0.2,0.1-0.4,0.2-0.8,0.2c-0.1,0-0.2,0-0.3,0c-0.1,0-0.2,0-0.3,0v-0.8c0.1,0,0.2,0,0.3,0
	c0.1,0,0.2,0,0.3,0c0.1,0,0.2-0.1,0.3-0.1c0.1-0.1,0.1-0.2,0.1-0.3c0-0.1,0-0.1,0-0.2l-1.2-3.2h1l0.8,2.3h0l0.7-2.3h1l-1.4,3.8
	C105.3,55.7,105.2,55.9,105,56"/>
<path class="st0" d="M112.3,51.5c-0.1-0.1-0.1-0.2-0.2-0.3c-0.1-0.1-0.2-0.1-0.3-0.2c-0.1,0-0.2-0.1-0.4-0.1c-0.2,0-0.4,0-0.6,0.1
	c-0.2,0.1-0.3,0.2-0.4,0.4c-0.1,0.2-0.2,0.3-0.2,0.5c0,0.2-0.1,0.4-0.1,0.6c0,0.2,0,0.4,0.1,0.6c0,0.2,0.1,0.4,0.2,0.5
	c0.1,0.1,0.2,0.3,0.4,0.4c0.2,0.1,0.4,0.1,0.6,0.1c0.3,0,0.6-0.1,0.7-0.3c0.2-0.2,0.3-0.4,0.3-0.8h1c0,0.3-0.1,0.6-0.2,0.8
	c-0.1,0.2-0.3,0.4-0.4,0.6c-0.2,0.2-0.4,0.3-0.6,0.4c-0.2,0.1-0.5,0.1-0.8,0.1c-0.4,0-0.7-0.1-1-0.2c-0.3-0.1-0.5-0.3-0.7-0.5
	c-0.2-0.2-0.3-0.5-0.5-0.8c-0.1-0.3-0.2-0.6-0.2-1c0-0.4,0.1-0.7,0.2-1c0.1-0.3,0.3-0.6,0.5-0.8c0.2-0.2,0.4-0.4,0.7-0.5
	c0.3-0.1,0.6-0.2,1-0.2c0.3,0,0.5,0,0.7,0.1c0.2,0.1,0.4,0.2,0.6,0.3c0.2,0.1,0.3,0.3,0.5,0.5c0.1,0.2,0.2,0.5,0.2,0.7h-1
	C112.4,51.7,112.4,51.6,112.3,51.5"/>
<path class="st0" d="M114.3,52.5c0.1-0.2,0.2-0.4,0.4-0.6c0.2-0.2,0.3-0.3,0.6-0.4c0.2-0.1,0.5-0.1,0.7-0.1c0.3,0,0.5,0,0.7,0.1
	c0.2,0.1,0.4,0.2,0.6,0.4c0.2,0.2,0.3,0.3,0.4,0.6c0.1,0.2,0.1,0.5,0.1,0.7c0,0.3,0,0.5-0.1,0.7c-0.1,0.2-0.2,0.4-0.4,0.6
	c-0.2,0.2-0.3,0.3-0.6,0.4c-0.2,0.1-0.5,0.1-0.7,0.1c-0.3,0-0.5,0-0.7-0.1c-0.2-0.1-0.4-0.2-0.6-0.4c-0.2-0.2-0.3-0.3-0.4-0.6
	c-0.1-0.2-0.1-0.5-0.1-0.7C114.1,53,114.2,52.7,114.3,52.5 M115.1,53.7c0,0.1,0.1,0.2,0.1,0.4c0.1,0.1,0.1,0.2,0.3,0.2
	c0.1,0.1,0.2,0.1,0.4,0.1c0.2,0,0.3,0,0.4-0.1c0.1-0.1,0.2-0.1,0.3-0.2c0.1-0.1,0.1-0.2,0.1-0.4c0-0.1,0-0.3,0-0.4
	c0-0.1,0-0.3,0-0.4c0-0.1-0.1-0.2-0.1-0.3c-0.1-0.1-0.1-0.2-0.3-0.2c-0.1-0.1-0.2-0.1-0.4-0.1c-0.2,0-0.3,0-0.4,0.1
	c-0.1,0.1-0.2,0.1-0.3,0.2c-0.1,0.1-0.1,0.2-0.1,0.3c0,0.1,0,0.3,0,0.4C115.1,53.4,115.1,53.5,115.1,53.7"/>
<rect x="118.4" y="53.9" class="st0" width="1" height="1"/>
<path class="st0" d="M121.4,53.9v1c0,0.1,0,0.3-0.1,0.4c-0.1,0.1-0.1,0.2-0.2,0.3c-0.1,0.1-0.2,0.2-0.3,0.2
	c-0.1,0.1-0.3,0.1-0.4,0.1v-0.5c0.1,0,0.1,0,0.2-0.1c0.1,0,0.1-0.1,0.2-0.1c0-0.1,0.1-0.1,0.1-0.2c0-0.1,0-0.1,0-0.2h-0.5v-1H121.4z
	"/>
<polygon class="st0" points="125.3,50.3 125.3,54.1 127.6,54.1 127.6,55 124.2,55 124.2,50.3 "/>
<path class="st0" d="M130,51.6v0.6h-0.7v1.7c0,0.2,0,0.3,0.1,0.3c0.1,0.1,0.2,0.1,0.3,0.1c0.1,0,0.1,0,0.2,0c0,0,0.1,0,0.1,0V55
	c-0.1,0-0.2,0-0.3,0c-0.1,0-0.2,0-0.3,0c-0.1,0-0.3,0-0.4,0c-0.1,0-0.2-0.1-0.3-0.1c-0.1-0.1-0.2-0.1-0.2-0.2
	c-0.1-0.1-0.1-0.2-0.1-0.4v-2h-0.6v-0.6h0.6v-1h0.9v1H130z"/>
<path class="st0" d="M133,54.5c-0.1,0.2-0.3,0.3-0.4,0.4c-0.2,0.1-0.4,0.1-0.6,0.1c-0.3,0-0.5-0.1-0.7-0.1c-0.2-0.1-0.4-0.2-0.5-0.4
	c-0.1-0.2-0.2-0.4-0.3-0.6c-0.1-0.2-0.1-0.4-0.1-0.7c0-0.2,0-0.4,0.1-0.7c0.1-0.2,0.2-0.4,0.3-0.6c0.1-0.2,0.3-0.3,0.5-0.4
	c0.2-0.1,0.4-0.1,0.7-0.1c0.2,0,0.4,0,0.6,0.1c0.2,0.1,0.3,0.2,0.4,0.4h0v-1.7h0.9V55h-0.9L133,54.5L133,54.5z M133,52.8
	c0-0.1-0.1-0.2-0.1-0.3s-0.1-0.2-0.2-0.2c-0.1-0.1-0.2-0.1-0.4-0.1c-0.2,0-0.3,0-0.4,0.1c-0.1,0.1-0.2,0.1-0.3,0.2
	c-0.1,0.1-0.1,0.2-0.1,0.3c0,0.1,0,0.3,0,0.4c0,0.1,0,0.3,0,0.4c0,0.1,0.1,0.2,0.1,0.4c0.1,0.1,0.2,0.2,0.3,0.3
	c0.1,0.1,0.2,0.1,0.4,0.1c0.2,0,0.3,0,0.4-0.1c0.1-0.1,0.2-0.1,0.2-0.2c0.1-0.1,0.1-0.2,0.1-0.4c0-0.1,0-0.3,0-0.4
	C133,53.1,133,53,133,52.8"/>
<rect x="134.9" y="53.9" class="st0" width="1" height="1"/>
<rect x="-58.2" y="-113.1" class="st1" width="255.1" height="393.5"/>
</svg>
