<?xml version="1.0" encoding="UTF-8"?>
<svg width="360px" height="212px" viewBox="0 0 360 212" version="1.1" xmlns="http://www.w3.org/2000/svg" xmlns:xlink="http://www.w3.org/1999/xlink">
    <!-- Generator: Sketch 63.1 (92452) - https://sketch.com -->
    <title>编组 3</title>
    <desc>Created with Sketch.</desc>
    <defs>
        <rect id="path-1" x="0" y="0" width="360" height="212"></rect>
        <polygon id="path-3" points="0 200 636 200 636 0 0 0"></polygon>
        <linearGradient x1="44.3832492%" y1="65.4601663%" x2="46.007214%" y2="39.4840483%" id="linearGradient-5">
            <stop stop-color="#002FA7" offset="0%"></stop>
            <stop stop-color="#3165F3" offset="100%"></stop>
        </linearGradient>
        <linearGradient x1="30.933626%" y1="47.713698%" x2="93.9985795%" y2="53.6783264%" id="linearGradient-6">
            <stop stop-color="#002FA7" offset="0%"></stop>
            <stop stop-color="#3165F3" offset="100%"></stop>
        </linearGradient>
        <linearGradient x1="30.933626%" y1="35.9861592%" x2="93.9985795%" y2="72.5462262%" id="linearGradient-7">
            <stop stop-color="#002FA7" offset="0%"></stop>
            <stop stop-color="#3165F3" offset="100%"></stop>
        </linearGradient>
        <linearGradient x1="0%" y1="0%" x2="100%" y2="100%" id="linearGradient-8">
            <stop stop-color="#3165F3" offset="0%"></stop>
            <stop stop-color="#002FA7" offset="100%"></stop>
        </linearGradient>
    </defs>
    <g id="页面-1" stroke="none" stroke-width="1" fill="none" fill-rule="evenodd">
        <g id="首页" transform="translate(0.000000, -68.000000)">
            <g id="编组-3" transform="translate(0.000000, 68.000000)">
                <mask id="mask-2" fill="white">
                    <use xlink:href="#path-1"></use>
                </mask>
                <use id="矩形" fill="#002FA7" xlink:href="#path-1"></use>
                <g id="编组-48" opacity="0.198696403" mask="url(#mask-2)">
                    <g transform="translate(-194.000000, 0.000000)">
                        <mask id="mask-4" fill="white">
                            <use xlink:href="#path-3"></use>
                        </mask>
                        <use id="Fill-3" stroke="none" fill="#002FA7" fill-rule="evenodd" transform="translate(318.000000, 100.000000) scale(-1, 1) translate(-318.000000, -100.000000) " xlink:href="#path-3"></use>
                        <path d="M66.4769985,0 C63.9052393,2.14565301 61.2774786,4.28069548 58.5175015,6.35340093 L58.5175015,6.35340093 C44.0429474,17.023308 27.2855883,16.0053579 11.0352247,20.5811594 L11.0352247,20.5811594 C1.63758381,23.3763773 -3.9459934,33.2839823 0.623592935,41.9219682 L0.623592935,41.9219682 C3.92403383,47.7673889 10.7800702,50.8146074 12.3043702,57.1676768 L12.3043702,57.1676768 C14.5875065,65.8086469 15.8599657,77.4935197 25.7612883,78.2561533 L25.7612883,78.2561533 C40.7425065,79.526104 55.4722151,79.7814205 68.4218065,90.1996584 L68.4218065,90.1996584 C87.210461,105.190382 110.824188,94.5201435 129.36067,83.5945884 L129.36067,83.5945884 C136.471861,79.2741034 142.310593,73.4283511 150.945752,72.1584004 L150.945752,72.1584004 C160.224431,70.5535541 170.506829,71.8334522 178.442799,76.535254 L178.442799,76.535254 L178.884846,126 L624,126 L624,68.1005266 C612.829532,84.4832223 593.437453,105.158882 570.234294,97.2158874 L570.234294,97.2158874 C554.358709,91.7812942 535.50113,99.8847734 517.020317,107.987921 L517.020317,107.987921 C500.441567,115.256814 484.166019,122.526038 470.618305,120.022279 L470.618305,120.022279 C458.191615,117.727415 433.902557,116.013479 406.246453,116.712781 L406.246453,116.712781 C378.590018,116.013479 354.30096,117.727415 341.874601,120.022279 L341.874601,120.022279 C313.224388,125.317277 257.246127,125.317277 242.258282,97.2158874 L242.258282,97.2158874 C242.079342,96.8799971 241.895763,96.5464278 241.708208,96.2151795 L241.708208,96.2151795 C239.863474,92.956413 237.628717,89.9274314 235.177245,87.1017082 L235.177245,87.1017082 C232.60151,84.133074 229.780229,81.3816247 226.818117,78.8009389 L226.818117,78.8009389 C223.798014,76.1698531 220.626808,73.7138414 217.360829,71.3960984 L217.360829,71.3960984 C214.168083,69.1304135 210.883217,66.9957026 207.533733,64.9694183 L207.533733,64.9694183 C204.429795,63.0916818 201.269854,61.3067876 198.066505,59.6041253 L198.066505,59.6041253 C195.304871,58.1358898 192.510763,56.7293282 189.688157,55.3821194 L189.688157,55.3821194 C187.518349,54.3469272 185.331641,53.3465509 183.127702,52.3872905 L183.127702,52.3872905 C182.76187,52.2278006 171.568869,47.79491 167.970195,47.1287661 L167.970195,47.1287661 C162.841257,46.1797847 157.57712,46.1237477 152.392512,46.5833173 L152.392512,46.5833173 C147.180731,47.0455396 142.057758,48.060837 136.978856,49.2929876 L136.978856,49.2929876 C128.59852,51.3252403 121.997638,55.897726 114.379452,60.7255282 L114.379452,60.7255282 C107.77857,65.0460133 103.715979,71.6510833 96.8599428,74.9539499 L96.8599428,74.9539499 C92.2903564,77.2415191 86.9553064,78.5114698 81.8787246,76.9865342 L81.8787246,76.9865342 C76.5469883,75.4609354 74.2605383,70.6334648 70.9600974,66.0606475 L70.9600974,66.0606475 C68.6736473,63.013429 65.3732065,61.7401625 61.817611,61.4881618 L61.817611,61.4881618 C52.1681292,60.2182111 38.9663656,63.013429 34.6486201,53.6098253 L34.6486201,53.6098253 C29.8238792,42.9399183 40.4873519,33.2839823 49.8849929,27.4415459 L49.8849929,27.4415459 C57.5031792,22.8657444 66.1353565,24.6466596 74.5156928,23.3763773 L74.5156928,23.3763773 C80.09927,22.3584273 84.4170155,19.0558923 87.4656155,14.4834065 L87.4656155,14.4834065 C90.3882951,9.85123645 89.573126,4.05223698 92.6416082,0 L92.6416082,0 L66.4769985,0 Z" id="Clip-21" stroke="none" fill="none" mask="url(#mask-4)" transform="translate(311.500000, 63.000000) scale(-1, 1) translate(-311.500000, -63.000000) "></path>
                        <path d="M-2.99596334,1 L-2.99596334,73.7019314 C-2.99596334,73.7019314 -3.11256958,122.098876 -2.09234803,127.936499 L-2.09234803,127.936499 C-1.32859378,132.760655 188.218669,140.877337 188.218669,140.877337 L188.218669,140.877337 C188.218669,140.877337 240.169573,145.116074 249.555212,145.882055 L249.555212,145.882055 C245.239785,145.216791 239.93636,141.898755 236.482357,140.110362 L236.482357,140.110362 C230.337773,136.928824 224.230064,133.135031 219.362501,128.171064 L219.362501,128.171064 C214.097946,122.80224 211.965148,115.131828 207.669985,108.971181 L207.669985,108.971181 C203.091778,102.403689 197.364452,96.5799809 190.502291,92.3856387 L190.502291,92.3856387 C182.601969,87.5568442 173.075804,85.0852966 163.814744,85.9519948 L163.814744,85.9519948 C153.856704,86.8839604 146.729106,89.823313 138.483284,94.8161042 L138.483284,94.8161042 C119.899372,105.732658 96.2263124,116.393775 77.3895876,101.415733 L77.3895876,101.415733 C64.4067619,91.0060778 49.6399603,90.7509716 34.620678,89.4820672 L34.620678,89.4820672 C24.6941981,88.7203932 23.4185059,77.0448155 21.1295686,68.4109642 L21.1295686,68.4109642 C19.6010635,62.0631288 12.7276074,59.018752 9.41911296,53.1774844 L9.41911296,53.1774844 C4.83791625,44.5469462 10.4356802,34.6475034 19.8571986,31.8545884 L19.8571986,31.8545884 C36.1488509,27.2825566 52.9487869,18.0089521 67.4597856,7.34750412 L67.4597856,7.34750412 C70.2271075,5.27683755 72.8615448,3.14322272 75.4395061,1 L75.4395061,1 L-2.99596334,1 Z M251,146 C251,146 250.487398,145.957924 249.555212,145.882055 L249.555212,145.882055 C250.051536,145.958587 250.534239,146 251,146 L251,146 Z" id="Fill-1" stroke="none" fill="url(#linearGradient-5)" fill-rule="evenodd" mask="url(#mask-4)"></path>
                        <path d="M66.5900881,41 C64.0143379,43.143554 61.3821603,45.2771689 58.617212,47.3478354 C44.1186597,58.0092834 27.3331333,67.2828879 11.0554547,71.8549197 C1.6420173,74.6478347 -3.9509453,84.5472775 0.626322018,93.1778157 C3.93231059,99.018752 10.7998712,102.06346 12.3267334,108.411296 C14.6137074,117.045147 15.8883054,128.720393 25.8062712,129.482398 C40.8126711,130.751303 55.5668069,131.006409 68.538497,141.416064 C87.3587332,156.394438 111.01182,145.73299 129.580124,134.816436 C137.818873,129.823313 144.940358,126.884292 154.889525,125.952326 C164.142641,125.085297 173.660967,127.557176 181.554181,132.38597 C188.410456,136.580312 194.13287,142.404352 198.707482,148.971512 C202.998629,155.132159 205.129929,162.802571 210.389969,168.171395 C215.253357,173.135363 221.355495,176.929155 227.494809,180.110362 C231.342834,182.104496 237.487458,186 242,186" id="Stroke-3" stroke="#5988FF" stroke-width="1" fill="none" mask="url(#mask-4)"></path>
                        <path d="M537.252846,74 C540.324797,78.0551798 539.508375,83.8583907 542.434691,88.4939248 L542.434691,88.4939248 C545.486406,93.0697311 549.809033,96.3746645 555.398923,97.3933538 L555.398923,97.3933538 C563.788734,98.6645586 572.431003,96.8823501 580.057471,101.461475 L580.057471,101.461475 C589.465737,107.308154 600.141266,116.971102 595.31107,127.648758 L595.31107,127.648758 C590.988443,137.059191 577.772085,134.262275 568.111362,135.532816 L568.111362,135.532816 C564.551746,135.785 561.247905,137.059191 558.95887,140.108622 L558.95887,140.108622 C555.654366,144.684761 553.365331,149.515737 548.027567,151.042444 L548.027567,151.042444 C542.945577,152.568487 537.604163,151.297614 533.02941,149.008383 L533.02941,149.008383 C526.165954,145.703118 522.098438,139.093251 515.490425,134.769629 L515.490425,134.769629 C507.863626,129.93832 501.255281,125.362514 492.865138,123.328785 L492.865138,123.328785 C487.780494,122.09574 482.65206,121.079705 477.434387,120.617147 L477.434387,120.617147 C472.243917,120.157244 466.973497,120.213322 461.839091,121.162992 L461.839091,121.162992 C458.236017,121.82962 447.030693,126.26573 446.664447,126.425335 L446.664447,126.425335 C444.457685,127.385293 442.268505,128.386395 440.096243,129.422339 L440.096243,129.422339 C437.270778,130.770527 434.473511,132.17811 431.708754,133.647411 L431.708754,133.647411 C428.501783,135.35131 425.337938,137.137501 422.23049,139.016601 L422.23049,139.016601 C418.877551,141.044357 415.588639,143.180618 412.392615,145.447948 L412.392615,145.447948 C409.122944,147.767374 405.948152,150.22517 402.924304,152.858166 L402.924304,152.858166 C399.959174,155.440726 397.134703,158.194174 394.556056,161.164964 L394.556056,161.164964 C392.10148,163.992739 389.864529,167.02392 388.017709,170.285053 L388.017709,170.285053 C387.829942,170.616542 387.646487,170.950354 387.467013,171.28682 L387.467013,171.28682 C376.615992,191.62311 347.442073,195.925497 326.807583,196.207544 L326.807583,196.207544 C312.069514,196.408627 298.038724,194.253784 284.215938,189.14806 L284.215938,189.14806 C269.992404,183.894676 254.773306,181.459445 239.830552,182.578344 L239.830552,182.578344 C224.039527,183.760289 209.649789,190.991324 193.938051,192.950393 L193.938051,192.950393 C186.171588,193.918977 177.277525,193.748753 169.520682,194.789675 L169.520682,194.789675 C162.359651,195.750295 154.528829,195.188855 147.292492,194.189743 L147.292492,194.189743 C141.499243,193.389391 135.86888,191.611165 130.401072,189.582745 L130.401072,189.582745 C118.240987,185.071976 110.813566,173.330171 98.6226292,168.895389 L98.6226292,168.895389 C87.9122671,164.999483 71.659786,167.549192 60.368208,170.888635 L60.368208,170.888635 C59.9492151,171.012404 59.5328761,171.145132 59.1195228,171.286488 L59.1195228,171.286488 C22.2517924,183.901976 -5,124.380325 -5,124.380325 L-5,124.380325 L-4.23698829,210 L450.823524,210 L451.354315,150.591168 C459.299589,145.885619 469.593612,144.604792 478.882451,146.210804 L478.882451,146.210804 C487.527373,147.481677 493.372706,153.331674 500.491937,157.655297 L500.491937,157.655297 C519.050041,168.588786 542.690134,179.266774 561.500031,164.265164 L561.500031,164.265164 C574.464263,153.83936 589.210626,153.583858 604.208782,152.312985 L604.208782,152.312985 C614.121299,151.549797 615.395197,139.856439 617.680583,131.209193 L617.680583,131.209193 C619.206938,124.85151 626.070394,121.802079 629.374567,115.952413 L629.374567,115.952413 C633.949319,107.308154 628.359429,97.3933538 618.951495,94.5964378 L618.951495,94.5964378 C602.682427,90.0169814 585.906453,91.0356707 571.415866,80.3580149 L571.415866,80.3580149 C568.652105,78.2838042 566.021373,76.1472112 563.447038,74 L563.447038,74 L537.252846,74 Z" id="Fill-5" stroke="none" fill="url(#linearGradient-6)" fill-rule="evenodd" mask="url(#mask-4)"></path>
                        <path d="M537.691968,75 C540.76641,79.0475465 539.949657,84.8406389 542.878013,89.4678259 C545.932201,94.0353927 550.258663,97.3343749 555.852752,98.3512299 C564.249362,99.6198145 572.898635,97.8411463 580.531283,102.412025 C589.947506,108.248177 600.631355,117.893394 595.797576,128.552154 C591.471114,137.945642 578.244045,135.153431 568.575825,136.422015 C565.013324,136.673745 561.706474,137.945642 559.415584,140.989582 C556.108734,145.557149 553.817511,150.379758 548.475421,151.903384 C543.389313,153.42701 538.043902,152.158426 533.465442,149.872986 C526.596092,146.574004 522.525279,139.976039 515.911579,135.660202 C508.27893,130.837593 501.664898,126.270027 493.268287,124.239629 C488.179855,123.009135 483.046933,121.994599 477.825031,121.533205 C472.630355,121.07413 467.355663,121.129775 462.217097,122.078067 C458.611103,122.743163 447.396697,127.171616 447.030155,127.330603 C444.821604,128.289163 442.630649,129.288463 440.45696,130.322542 C437.628873,131.668301 434.829338,133.073681 432.062341,134.540006 C428.852771,136.240836 425.686694,138.02381 422.576396,139.899527 C419.22074,141.923631 415.929162,144.056046 412.730548,146.319293 C409.458227,148.634874 406.280862,151.087913 403.254563,153.716168 C400.28703,156.294078 397.460271,159.042236 394.879533,162.008008 C392.422969,164.830691 390.184204,167.856414 388.335888,171.111675 C388.147968,171.442567 387.964033,171.775777 387.784746,172.111306 C376.92493,192.411309 347.727369,196.705948 327.076155,196.987156 C312.326475,197.188209 298.283982,195.037246 284.450325,189.940716 C270.215265,184.696791 254.983169,182.265945 240.028636,183.382498 C224.224814,184.562646 209.823415,191.780329 194.098944,193.736201 C186.326185,194.703042 177.425247,194.533124 169.662117,195.572171 C162.494951,196.531062 154.657783,195.970633 147.415913,194.97332 C141.617969,194.174078 135.982711,192.399385 130.510472,190.374618 C118.340533,185.871971 110.907092,174.15131 98.7066074,169.724513 C87.9875654,165.835622 71.7215809,168.38074 60.4208519,171.71417 C60.0015194,171.837716 59.585175,171.970205 59.1711547,172.111306 C22.2735459,184.704078 -5,125.289606 -5,125.289606" id="Stroke-7" stroke="#5988FF" stroke-width="1" fill="none" mask="url(#mask-4)"></path>
                        <path d="M403,74 L403,136.463006 C408.245203,138.349696 413.036462,141.536178 416.906911,145.651083 L416.906911,145.651083 C421.220701,150.223569 421.220701,156.576638 422.237933,162.419406 L422.237933,162.419406 C423.000028,167.246877 427.062326,170.804728 432.138543,171.822678 L432.138543,171.822678 C440.26314,173.600278 448.387737,173.34463 454.484498,179.190382 L454.484498,179.190382 C464.892068,188.845986 476.065045,197.990958 491.552144,194.943739 L491.552144,194.943739 C509.32586,191.641204 525.82986,188.845986 543.348108,193.673789 L543.348108,193.673789 C548.128101,194.953024 552.590003,197.124208 556.457801,200 L556.457801,200 L641,200 C631.411517,194.947055 620.888971,187.366477 618.391287,178.971539 L618.391287,178.971539 C618.31574,178.718544 618.235223,178.466875 618.150068,178.217195 L618.150068,178.217195 C618.001293,177.781168 617.83794,177.350114 617.662658,176.924366 L617.662658,176.924366 C617.482737,176.488007 617.289894,176.056953 617.086116,175.630873 L617.086116,175.630873 C616.878031,175.194845 616.658018,174.764455 616.428395,174.339038 L616.428395,174.339038 C616.193802,173.904668 615.949269,173.475935 615.69579,173.052176 L615.69579,173.052176 C615.437672,172.620128 615.170276,172.193716 614.895259,171.772278 L614.895259,171.772278 C614.615934,171.344209 614.328326,170.921113 614.03376,170.502991 L614.03376,170.502991 C613.735549,170.079563 613.430379,169.660778 613.118583,169.246966 L613.118583,169.246966 C612.803804,168.828844 612.48273,168.415364 612.156023,168.006526 L612.156023,168.006526 C611.827329,167.595036 611.493001,167.188187 611.153371,166.785318 L611.153371,166.785318 C610.813079,166.381122 610.467486,165.981237 610.118247,165.58533 L610.118247,165.58533 C609.768346,165.189756 609.414138,164.797828 609.055953,164.40988 L609.055953,164.40988 C608.699425,164.023921 608.338589,163.640946 607.974772,163.261951 L607.974772,163.261951 C607.613605,162.885939 607.249125,162.513243 606.881,162.144195 L606.881,162.144195 C606.517513,161.779457 606.151376,161.417704 605.781926,161.058934 L605.781926,161.058934 C605.41844,160.706465 605.052634,160.356648 604.684177,160.009816 L604.684177,160.009816 C604.323673,159.670278 603.960187,159.333393 603.595044,158.999161 L603.595044,158.999161 C603.239179,158.673881 602.880994,158.35059 602.520821,158.029953 L602.520821,158.029953 C602.172245,157.719262 601.821682,157.411225 601.469461,157.104845 L601.469461,157.104845 C601.130163,156.810402 600.78954,156.517949 600.446928,156.227153 L600.446928,156.227153 C600.119559,155.949621 599.790864,155.673415 599.460512,155.399198 L599.460512,155.399198 C599.14739,155.13924 598.833275,154.880939 598.517502,154.624296 L598.517502,154.624296 C598.220616,154.382906 597.923068,154.142842 597.624194,153.904768 L597.624194,153.904768 C597.346195,153.682941 597.067865,153.462441 596.787877,153.243266 L596.787877,153.243266 C596.531416,153.042329 596.273629,152.842386 596.015511,152.643107 L596.015511,152.643107 C595.782243,152.464054 595.548313,152.285001 595.314052,152.107606 L595.314052,152.107606 C595.106298,151.950437 594.898213,151.794263 594.689796,151.63842 L594.689796,151.63842 C594.510538,151.505125 594.330618,151.371498 594.150697,151.23953 L594.150697,151.23953 C594.037045,151.156303 593.923725,151.073077 593.809742,150.990182 L593.809742,150.990182 C593.526442,150.78427 593.246454,150.579023 592.947249,150.396322 L592.947249,150.396322 C592.648707,150.213953 592.341549,150.046174 592.033398,149.880715 L592.033398,149.880715 C591.477068,149.582625 590.912455,149.301114 590.340221,149.03585 L590.340221,149.03585 C589.765005,148.76926 589.182168,148.518586 588.593035,148.283827 L588.593035,148.283827 C588.000589,148.048074 587.401847,147.828236 586.798135,147.623983 L586.798135,147.623983 C586.190779,147.419067 585.57812,147.229735 584.961155,147.055655 L584.961155,147.055655 C584.341207,146.880581 583.717283,146.721423 583.089383,146.577186 L583.089383,146.577186 C582.458832,146.432285 581.824967,146.302638 581.188452,146.187579 L581.188452,146.187579 C580.549618,146.07219 579.908132,145.972053 579.26499,145.886505 L579.26499,145.886505 C578.61986,145.800294 577.973073,145.728673 577.32463,145.671973 L577.32463,145.671973 C576.675855,145.614941 576.025754,145.572167 575.37466,145.543651 L575.37466,145.543651 C574.723566,145.515136 574.072471,145.500878 573.420714,145.500546 L573.420714,145.500546 C572.770283,145.500214 572.119851,145.513809 571.469751,145.54133 L571.469751,145.54133 C570.821307,145.568851 570.173526,145.610299 569.527071,145.665673 L569.527071,145.665673 C568.883266,145.720383 568.240455,145.78902 567.599633,145.871584 L567.599633,145.871584 C566.962455,145.953153 566.327265,146.048979 565.693732,146.1584 L565.693732,146.1584 C557.059194,147.428351 551.220882,153.274103 544.110203,157.594588 L544.110203,157.594588 C525.575055,168.520143 501.963027,179.190382 483.175725,164.199658 L483.175725,164.199658 C470.227065,153.78142 455.498416,153.526104 440.518276,152.256153 L440.518276,152.256153 C430.617666,151.49352 429.345298,139.808647 427.062326,131.167677 L427.062326,131.167677 C425.538136,124.814607 418.682593,121.767389 415.38239,115.921968 L415.38239,115.921968 C410.813132,107.283982 416.396308,97.3763773 425.793272,94.5811594 L425.793272,94.5811594 C442.042467,90.0053579 458.79862,91.023308 473.272132,80.3534009 L473.272132,80.3534009 C476.031911,78.2806955 478.659482,76.145653 481.231057,74 L481.231057,74 L403,74 Z" id="Fill-24" stroke="none" fill="url(#linearGradient-7)" fill-rule="evenodd" mask="url(#mask-4)" transform="translate(522.000000, 137.000000) scale(-1, 1) translate(-522.000000, -137.000000) "></path>
                        <path d="M455.682539,74 C453.103266,76.1425991 450.467488,78.2752634 447.698758,80.3450075 C433.180374,91.001706 416.371888,89.9850477 400.071944,94.5550426 C390.645631,97.3467135 385.045018,107.241746 389.628547,115.86844 C392.939057,121.706774 399.816011,124.750125 401.344962,131.095133 C403.635064,139.725138 404.911406,151.395183 414.842937,152.156849 C429.869863,153.425188 444.64418,153.680181 457.633613,164.085198 C476.479592,179.056899 500.165032,168.400201 518.758402,157.48851 C525.891289,153.173507 531.747835,147.335173 540.409673,146.066834 C541.044852,145.957551 541.682026,145.861846 542.321526,145.78005 C542.96435,145.697592 543.608836,145.629373 544.254651,145.5744 C544.903126,145.519428 545.55293,145.478033 546.203066,145.450547 C546.855197,145.423061 547.507993,145.409483 548.160456,145.409814 C548.814248,145.410146 549.467708,145.424385 550.120504,145.452865 C550.773299,145.481345 551.425762,145.523733 552.076564,145.581024 C552.7267,145.637983 553.375839,145.709182 554.022652,145.794952 C554.668135,145.880723 555.311624,145.980733 555.952454,146.095976 C556.590957,146.210557 557.226801,146.34004 557.859321,146.484757 C558.48885,146.628811 559.115055,146.788098 559.736939,146.96295 C560.355832,147.136809 560.970403,147.325569 561.579324,147.530888 C562.185254,147.734551 562.785866,147.954109 563.380162,148.189563 C563.971135,148.423693 564.555793,148.674049 565.132805,148.940301 C565.706826,149.205559 566.273203,149.486713 566.830938,149.784425 C567.140384,149.949343 567.448501,150.11724 567.747976,150.299378 C568.048115,150.481846 568.328977,150.686834 568.613162,150.892484 C568.727169,150.974942 568.841175,151.058063 568.954849,151.141184 C569.135665,151.273648 569.316147,151.406443 569.495965,151.5399 C569.705032,151.695544 569.913767,151.85152 570.121838,152.00849 C570.357163,152.185991 570.591824,152.364155 570.825487,152.543643 C571.084744,152.742007 571.343004,152.942027 571.600599,153.142709 C571.881128,153.361606 572.16066,153.581495 572.439527,153.803041 C572.739335,154.041144 573.037813,154.280572 573.335626,154.521656 C573.652052,154.778304 573.967481,155.036277 574.281581,155.295906 C574.612964,155.569774 574.942686,155.845299 575.271078,156.12281 C575.614759,156.412905 575.956446,156.705319 576.296472,156.999388 C576.650125,157.305379 577.001783,157.613026 577.351448,157.923322 C577.712745,158.243552 578.072049,158.566101 578.428693,158.8913 C578.795309,159.225108 579.159598,159.561565 579.521561,159.900672 C579.891168,160.247065 580.258116,160.596438 580.622737,160.94846 C580.993009,161.306774 581.360622,161.667737 581.725244,162.032012 C582.094186,162.400923 582.460137,162.773146 582.822432,163.14868 C583.187386,163.527195 583.549348,163.909353 583.90699,164.295153 C584.266293,164.682609 584.621276,165.074039 584.97227,165.469112 C585.323264,165.864516 585.669604,166.263894 586.010959,166.667245 C586.351649,167.069604 586.687021,167.476267 587.016743,167.887235 C587.34447,168.295554 587.666547,168.70851 587.982308,169.12577 C588.295078,169.539388 588.601201,169.957311 588.900343,170.380532 C589.19583,170.798123 589.484336,171.220682 589.764533,171.648209 C590.040409,172.069112 590.30864,172.494982 590.567564,172.926152 C590.821835,173.349373 591.067132,173.777893 591.302458,174.211711 C591.532798,174.636588 591.753166,175.066433 591.962233,175.501907 C592.166647,175.927115 592.35976,176.357953 592.540243,176.793758 C592.716405,177.218966 592.879936,177.649473 593.029507,178.084616 C593.114929,178.33431 593.195698,178.585329 593.27148,178.838334 C597.396323,192.641044 623.335304,204.238234 631,206" id="Stroke-26" stroke="#5988FF" stroke-width="1" fill="none" mask="url(#mask-4)" transform="translate(509.500000, 140.000000) scale(-1, 1) translate(-509.500000, -140.000000) "></path>
                        <circle id="椭圆形" stroke="none" fill="url(#linearGradient-8)" fill-rule="evenodd" mask="url(#mask-4)" transform="translate(181.500000, 40.500000) scale(-1, 1) translate(-181.500000, -40.500000) " cx="181.5" cy="40.5" r="25.5"></circle>
                        <circle id="椭圆形备份-9" stroke="none" fill="url(#linearGradient-8)" fill-rule="evenodd" mask="url(#mask-4)" transform="translate(509.000000, 3.000000) scale(-1, 1) translate(-509.000000, -3.000000) " cx="509" cy="3" r="12"></circle>
                        <circle id="椭圆形备份-7" stroke="none" fill="url(#linearGradient-8)" fill-rule="evenodd" mask="url(#mask-4)" transform="translate(299.000000, -13.000000) scale(-1, 1) translate(-299.000000, 13.000000) " cx="299" cy="-13" r="39"></circle>
                        <circle id="椭圆形备份-6" stroke="none" fill="url(#linearGradient-8)" fill-rule="evenodd" mask="url(#mask-4)" transform="translate(375.500000, 105.500000) scale(-1, 1) translate(-375.500000, -105.500000) " cx="375.5" cy="105.5" r="17.5"></circle>
                        <circle id="椭圆形备份-8" stroke="none" fill="url(#linearGradient-8)" fill-rule="evenodd" mask="url(#mask-4)" transform="translate(266.500000, 61.500000) scale(-1, 1) translate(-266.500000, -61.500000) " cx="266.5" cy="61.5" r="6.5"></circle>
                    </g>
                </g>
            </g>
        </g>
    </g>
</svg>