<?xml version="1.0" encoding="UTF-8"?>
<svg width="103px" height="70px" viewBox="0 0 103 70" version="1.1" xmlns="http://www.w3.org/2000/svg" xmlns:xlink="http://www.w3.org/1999/xlink">
    <!-- Generator: Sketch 63.1 (92452) - https://sketch.com -->
    <title>插画/二级banner插画</title>
    <desc>Created with Sketch.</desc>
    <defs>
        <rect id="path-1" x="0" y="0" width="184" height="70"></rect>
        <polygon id="path-3" points="0 91.3150631 102.778761 91.3150631 102.778761 0 0 0"></polygon>
    </defs>
    <g id="页面-1" stroke="none" stroke-width="1" fill="none" fill-rule="evenodd">
        <g id="首页" transform="translate(-119.000000, -210.000000)">
            <g id="插画/二级banner插画" transform="translate(79.000000, 210.000000)">
                <mask id="mask-2" fill="white">
                    <use xlink:href="#path-1"></use>
                </mask>
                <g id="矩形"></g>
                <g id="插画/openEuler/一级Banner插画/7" mask="url(#mask-2)">
                    <g transform="translate(40.000000, 0.000000)" id="编组">
                        <g transform="translate(0.130788, 0.176363)">
                            <polygon id="Fill-1" fill="#000000" points="9.00683929 32.8312507 41.5141512 32.8312507 41.5141512 31.3332214 9.00683929 31.3332214"></polygon>
                            <polygon id="Fill-2" fill="#000000" points="15.9578192 36.4664497 48.4649557 36.4664497 48.4649557 34.9684204 15.9578192 34.9684204"></polygon>
                            <polygon id="Fill-3" fill="#FFFFFF" points="44.9422792 41.1358428 102.691229 41.1358428 102.691229 5.77166323 44.9422792 5.77166323"></polygon>
                            <path d="M44.8543964,41.2240244 L102.778761,41.2240244 L102.778761,5.68330525 L44.8543964,5.68330525 L44.8543964,41.2240244 Z M45.0298111,41.0474848 L102.603171,41.0474848 L102.603171,5.85966848 L45.0298111,5.85966848 L45.0298111,41.0474848 Z" id="Fill-4" fill="#000000"></path>
                            <polygon id="Fill-5" fill="#DBDDE2" points="44.8543964 5.68330525 102.778761 5.68330525 102.778761 0 44.8543964 0"></polygon>
                            <polygon id="Fill-6" fill="#000000" points="76.4453423 38.6450648 93.3228604 38.6450648 93.3228604 38.0195044 76.4453423 38.0195044"></polygon>
                            <polygon id="Stroke-7" stroke="#000000" stroke-linecap="round" stroke-linejoin="round" points="76.4453423 38.6450648 93.3228604 38.6450648 93.3228604 38.0195044 76.4453423 38.0195044"></polygon>
                            <g>
                                <path d="M57.8278165,9.1630577 C57.8278165,9.1630577 57.2140407,9.69567467 57.2059716,10.6586179 C57.1977271,11.6217376 57.4571654,12.8883783 56.0120997,13.521875 C54.567034,14.1551954 54.1595458,15.5077251 54.8634847,16.9734799 C55.5674236,18.4394111 57.9018414,17.6196748 58.3093296,18.8863156 C58.7169932,20.15278 58.8722351,20.7640549 60.6102432,20.8682856 C62.3482513,20.9725163 63.9045299,19.3333964 66.7574733,20.078531 C69.6107676,20.8234893 73.7235389,19.7058755 74.0940145,18.7372886 C74.4646656,17.7687017 65.9795095,12.4414739 65.9795095,12.4414739 L57.8278165,9.1630577 Z" id="Fill-8" fill="#F79C2F"></path>
                                <path d="M51.7960618,23.922791 C53.4877605,21.2249626 59.4571201,22.0656862 59.4571201,22.0656862 L67.5458393,21.5965599 C67.5458393,21.5965599 73.0875381,20.4039918 74.8374743,23.98152 C76.5874106,27.5590482 81.7207442,41.2240244 81.7207442,41.2240244 L76.0623947,41.2240244 L72.8412559,32.8786925 C72.8412559,32.8786925 72.0745186,35.4726429 71.9699715,37.3417405 L72.5042844,37.2944751 L73.1926114,40.8804688 L72.4851642,41.1129155 C72.4853397,41.1134446 72.4855151,41.1139737 72.4856905,41.1143264 L72.1541568,41.2240244 C72.1541568,41.2240244 60.8376332,44.9775631 55.5876489,44.743 C50.3378401,44.5082605 50.1043632,26.6206194 51.7960618,23.922791" id="Fill-10" fill="#EFEFEF"></path>
                                <path d="M59.0293365,10.8443637 C59.0293365,10.8443637 58.2127814,11.7044872 58.1738393,12.8774791 C58.1527896,13.5136213 57.4823549,14.2649286 56.7435085,14.2649286 L57.5020013,14.6169496 C57.8765116,14.7906674 58.111918,15.171612 58.0977094,15.5860656 C58.0657839,16.5287271 58.092447,18.1283417 58.6404422,18.155678 C59.4182307,18.195007 60.7794482,17.7257044 60.9738076,18.4685463 C61.168167,19.2113883 61.3918206,21.8995167 58.7372711,21.9931656 C58.7372711,21.9931656 62.7625105,24.9588898 63.618183,25.037195 C64.4736802,25.1153239 67.5458919,21.5965247 67.5458919,21.5965247 C67.5458919,21.5965247 64.7848657,21.5182194 64.668215,20.3843802 C64.5513888,19.2505409 64.668215,14.6368787 64.668215,14.6368787 C64.668215,14.6368787 64.7459237,9.00665878 61.4404105,9.74950072 C58.1348973,10.492519 59.0293365,10.8443637 59.0293365,10.8443637" id="Fill-12" fill="#FFFFFF"></path>
                                <path d="M59.0293365,10.8443637 C59.0293365,10.8443637 58.2127814,11.7044872 58.1738393,12.8774791 C58.1527896,13.5136213 57.4823549,14.2649286 56.7435085,14.2649286 L57.5020013,14.6169496 C57.8765116,14.7906674 58.111918,15.171612 58.0977094,15.5860656 C58.0657839,16.5287271 58.092447,18.1283417 58.6404422,18.155678 C59.4182307,18.195007 60.7794482,17.7257044 60.9738076,18.4685463 C61.168167,19.2113883 61.3918206,21.8995167 58.7372711,21.9931656 C58.7372711,21.9931656 62.7625105,24.9588898 63.618183,25.037195 C64.4736802,25.1153239 67.5458919,21.5965247 67.5458919,21.5965247 C67.5458919,21.5965247 64.7848657,21.5182194 64.668215,20.3843802 C64.5513888,19.2505409 64.668215,14.6368787 64.668215,14.6368787 C64.668215,14.6368787 64.7459237,9.00665878 61.4404105,9.74950072 C58.1348973,10.492519 59.0293365,10.8443637 59.0293365,10.8443637 Z" id="Stroke-14" stroke="#000000" stroke-width="0.3" stroke-linecap="round" stroke-linejoin="round"></path>
                                <path d="M59.7966176,7.48967041 C59.4421046,7.7166499 59.01497,7.79760062 58.5981849,7.74134075 C57.6253354,7.61030286 55.984507,7.59372472 55.9571423,8.96759432 C55.924866,10.5940161 57.292223,11.2731909 58.5585412,11.478125 C58.9879562,11.5476121 59.3422937,11.8543078 59.4884141,12.2659395 C59.6410248,12.6960895 59.9002876,13.1832047 60.3126874,13.3075408 C61.0904758,13.5421039 61.8682643,12.1345489 62.762528,12.9165435 C63.6571426,13.6985381 62.2959251,14.44138 62.4125759,15.5753956 C62.5292266,16.7090585 63.2293064,17.6864636 65.3291948,17.6083347 C67.4292587,17.5302057 69.2958457,16.4473355 70.8514226,17.3601916 C72.4069995,18.2732241 72.4457661,19.9543184 74.584772,20.1107526 C76.7236026,20.2670104 77.0735547,18.664045 78.5123055,18.4294819 C79.9512316,18.1949188 82.829084,18.9377607 83.6845811,17.1000558 C84.5402536,15.2623509 81.0012636,15.0669404 80.1068244,13.6593855 C79.2125607,12.2518305 77.7346924,11.5871175 76.0235228,11.6654227 C74.3125285,11.7435516 72.3680574,13.4248224 70.8903646,12.9948488 C69.4124964,12.5645225 67.2773496,9.38434065 65.9515659,8.14662346 C64.9467909,7.20854742 61.8570377,6.17082614 59.7966176,7.48967041" id="Fill-16" fill="#FFCA6E"></path>
                                <path d="M60.655009,13.3217028 C60.655009,13.3217028 59.2641465,13.8160489 59.7532025,15.1445932 C59.9719445,15.7391136 60.3610141,16.0057749 60.723947,16.1188237 C61.5278722,16.3694358 62.3851235,15.8138917 62.3614425,14.9678772 C62.3610917,14.9588827 62.3607408,14.9495354 62.36039,14.9405409 C62.3175888,14.0179848 61.5331346,13.8809506 61.198619,13.9656049 C60.8639279,14.050612 60.4043415,14.3327932 60.4841552,14.9040337 C60.5639688,15.4750979 61.0935456,15.5583413 61.3817518,15.4604597 C61.6787288,15.3599327 61.9297471,14.8985665 61.5499744,14.581289" id="Stroke-18" stroke="#000000" stroke-width="0.3" stroke-linecap="round" stroke-linejoin="round"></path>
                                <path d="M72.1542621,41.2239538 L73.1925413,40.8805746 L72.5042143,37.294581 C72.5042143,37.294581 57.7460557,38.643407 56.7433857,38.0569992 C55.7408911,37.4705915 56.4044847,28.7319695 56.4044847,28.7319695" id="Stroke-20" stroke="#000000" stroke-width="0.3" stroke-linecap="round" stroke-linejoin="round"></path>
                                <path d="M71.9629198,37.3429398 C71.9629198,37.3429398 72.037471,35.6524981 72.6209001,33.7756406 C73.2041537,31.8989594 73.1925763,28.7320048 73.1925763,28.7320048" id="Stroke-22" stroke="#000000" stroke-linecap="round" stroke-linejoin="round"></path>
                                <path d="M72.5777305,37.7357889 C72.5777305,37.7357889 76.3358134,36.5084771 78.8181058,37.3694824 C81.3005735,38.2304877 80.5738308,40.7186203 77.5091619,40.1410307 C74.4446684,39.5630883 73.0559108,40.2269196 73.0559108,40.2269196 L72.5777305,37.7357889 Z" id="Fill-24" fill="#FFFFFF"></path>
                                <path d="M72.5777305,37.7357889 C72.5777305,37.7357889 76.3358134,36.5084771 78.8181058,37.3694824 C81.3005735,38.2304877 80.5738308,40.7186203 77.5091619,40.1410307 C74.4446684,39.5630883 73.0559108,40.2269196 73.0559108,40.2269196 L72.5777305,37.7357889 Z" id="Stroke-26" stroke="#000000" stroke-linecap="round" stroke-linejoin="round"></path>
                                <path d="M98.8121453,2.84152917 C98.8121453,3.26268458 99.151748,3.60394744 99.5704627,3.60394744 C99.9893528,3.60394744 100.32878,3.26268458 100.32878,2.84152917 C100.32878,2.42055013 99.9893528,2.07928727 99.5704627,2.07928727 C99.151748,2.07928727 98.8121453,2.42055013 98.8121453,2.84152917" id="Fill-28" fill="#FFFFFF"></path>
                                <path d="M95.4244504,2.79486346 C95.4244504,3.21601886 95.7640531,3.55728172 96.1827678,3.55728172 C96.6016579,3.55728172 96.9410852,3.21601886 96.9410852,2.79486346 C96.9410852,2.37370805 96.6016579,2.03244519 96.1827678,2.03244519 C95.7640531,2.03244519 95.4244504,2.37370805 95.4244504,2.79486346" id="Fill-30" fill="#FFCA6E"></path>
                                <path d="M92.0367554,2.79486346 C92.0367554,3.21601886 92.3763582,3.55728172 92.7950729,3.55728172 C93.213963,3.55728172 93.5533903,3.21601886 93.5533903,2.79486346 C93.5533903,2.37370805 93.213963,2.03244519 92.7950729,2.03244519 C92.3763582,2.03244519 92.0367554,2.37370805 92.0367554,2.79486346" id="Fill-32" fill="#3165E8"></path>
                                <polygon id="Fill-34" fill="#000000" points="83.0721034 38.6449942 98.7283848 38.6449942 101.551683 28.5157482 85.8954018 28.5157482"></polygon>
                                <polygon id="Stroke-36" stroke="#000000" stroke-linecap="round" stroke-linejoin="round" points="83.0721034 38.6449942 98.7283848 38.6449942 101.551683 28.5157482 85.8954018 28.5157482"></polygon>
                                <mask id="mask-4" fill="white">
                                    <use xlink:href="#path-3"></use>
                                </mask>
                                <g id="Clip-39"></g>
                                <polygon id="Fill-38" fill="#3165E8" mask="url(#mask-4)" points="74.1058375 41.2240244 102.778761 41.2240244 102.778761 38.6450648 74.1058375 38.6450648"></polygon>
                                <polygon id="Fill-40" fill="#FFFFFF" mask="url(#mask-4)" points="0 81.936419 43.5161583 81.936419 43.5161583 52.7102092 0 52.7102092"></polygon>
                                <polygon id="Fill-41" fill="#DBDDE2" mask="url(#mask-4)" points="0 57.372724 43.5161583 57.372724 43.5161583 52.7102092 0 52.7102092"></polygon>
                                <path d="M14.9576225,61.2835611 C14.9576225,61.2835611 15.3117847,62.6106944 15.0862015,63.4200253 C14.8609691,64.2293562 15.8590783,64.6503353 15.8590783,64.6503353 L15.2282873,64.8087094 C14.989548,64.8688493 14.8048364,65.059498 14.7539662,65.3016447 C14.6111787,65.9811722 14.2687693,67.3047783 13.7662064,67.3047783 C13.0901584,67.3047783 11.9631195,66.4629966 11.866466,67.3047783 C11.769988,68.1463837 11.7378871,69.8622216 12.4783122,70.0888483 C13.2189128,70.3154751 15.4137006,71.1075224 15.4137006,71.1075224 C15.4137006,71.1075224 10.9650103,73.1200033 10.3854404,73.0935488 C9.80587044,73.0669179 5.16229451,71.2046985 5.16229451,71.2046985 C5.16229451,71.2046985 8.13153785,69.9916722 8.35694565,69.7973199 C8.53902603,69.640533 9.14139984,66.0402539 9.36610598,64.6621516 C9.41837954,64.3411705 9.43767514,64.0171912 9.42206324,63.6923302 C9.3724209,62.6581362 9.37557837,60.1491928 10.5624337,60.0209767 C12.0595975,59.8590752 14.506807,59.5677232 14.9576225,61.2835611" id="Fill-43" fill="#FFFFFF" mask="url(#mask-4)"></path>
                                <path d="M14.9576225,61.2835611 C14.9576225,61.2835611 15.3117847,62.6106944 15.0862015,63.4200253 C14.8609691,64.2293562 15.8590783,64.6503353 15.8590783,64.6503353 L15.2282873,64.8087094 C14.989548,64.8688493 14.8048364,65.059498 14.7539662,65.3016447 C14.6111787,65.9811722 14.2687693,67.3047783 13.7662064,67.3047783 C13.0901584,67.3047783 11.9631195,66.4629966 11.866466,67.3047783 C11.769988,68.1463837 11.7378871,69.8622216 12.4783122,70.0888483 C13.2189128,70.3154751 15.4137006,71.1075224 15.4137006,71.1075224 C15.4137006,71.1075224 10.9650103,73.1200033 10.3854404,73.0935488 C9.80587044,73.0669179 5.16229451,71.2046985 5.16229451,71.2046985 C5.16229451,71.2046985 8.13153785,69.9916722 8.35694565,69.7973199 C8.53902603,69.640533 9.14139984,66.0402539 9.36610598,64.6621516 C9.41837954,64.3411705 9.43767514,64.0171912 9.42206324,63.6923302 C9.3724209,62.6581362 9.37557837,60.1491928 10.5624337,60.0209767 C12.0595975,59.8590752 14.506807,59.5677232 14.9576225,61.2835611 Z" id="Stroke-44" stroke="#000000" stroke-width="0.3" stroke-linecap="round" stroke-linejoin="round" mask="url(#mask-4)"></path>
                                <path d="M13.5513937,59.0960573 C13.8387228,59.2503752 14.1800797,59.2704806 14.4789862,59.1401482 C15.1602966,58.8426234 16.4317018,58.4990678 17.0503892,59.6972796 C17.823266,61.1937217 15.6449672,62.1527849 14.3370758,61.8473238 C14.0932494,61.7901821 13.8453886,61.9039364 13.7401398,62.1325032 C13.5980539,62.442197 13.3445798,62.7906908 12.9290226,62.7727017 C12.188422,62.7402509 11.7337473,61.4706119 10.7717735,61.8661947 C10.0634493,62.1575467 10.9970059,63.3876803 10.5625039,64.3911871 C10.1278264,65.3948703 9.36617614,64.6622574 9.36617614,64.6622574 C9.36617614,64.6622574 8.0149573,63.8185357 8.30351435,61.5702572 C8.42121756,60.6521102 8.84607178,59.7889885 9.56071096,59.2052262 C10.3611279,58.5514477 11.6623536,58.0817924 13.5513937,59.0960573" id="Fill-45" fill="#000000" mask="url(#mask-4)"></path>
                                <path d="M13.5513937,59.0960573 C13.8387228,59.2503752 14.1800797,59.2704806 14.4789862,59.1401482 C15.1602966,58.8426234 16.4317018,58.4990678 17.0503892,59.6972796 C17.823266,61.1937217 15.6449672,62.1527849 14.3370758,61.8473238 C14.0932494,61.7901821 13.8453886,61.9039364 13.7401398,62.1325032 C13.5980539,62.442197 13.3445798,62.7906908 12.9290226,62.7727017 C12.188422,62.7402509 11.7337473,61.4706119 10.7717735,61.8661947 C10.0634493,62.1575467 10.9970059,63.3876803 10.5625039,64.3911871 C10.1278264,65.3948703 9.36617614,64.6622574 9.36617614,64.6622574 C9.36617614,64.6622574 8.0149573,63.8185357 8.30351435,61.5702572 C8.42121756,60.6521102 8.84607178,59.7889885 9.56071096,59.2052262 C10.3611279,58.5514477 11.6623536,58.0817924 13.5513937,59.0960573 Z" id="Stroke-46" stroke="#000000" stroke-width="0.3" stroke-linecap="round" stroke-linejoin="round" mask="url(#mask-4)"></path>
                                <path d="M12.4714886,62.6011179 C12.4714886,62.6011179 13.5320454,63.2559546 12.8951149,64.265105 C12.6100662,64.7167713 12.2422217,64.8677382 11.9229671,64.8966618 C11.2158707,64.9605053 10.6061295,64.349583 10.7745275,63.6559464 C10.7762817,63.6485392 10.7782112,63.6409556 10.7801408,63.6335483 C10.9776577,62.8801246 11.648794,62.9064027 11.9099864,63.0358533 C12.1710034,63.1653039 12.500432,63.4797596 12.3343144,63.9367167 C12.1681967,64.3936738 11.7166795,64.3684539 11.4960079,64.2363578 C11.2688459,64.1005581 11.1427228,63.6755227 11.5117952,63.4811705" id="Stroke-47" stroke="#000000" stroke-width="0.3" stroke-linecap="round" stroke-linejoin="round" mask="url(#mask-4)"></path>
                                <path d="M40.055105,55.0412549 C40.055105,55.3867505 40.3336634,55.6669917 40.6773006,55.6669917 C41.0209379,55.6669917 41.2994963,55.3867505 41.2994963,55.0412549 C41.2994963,54.6957594 41.0209379,54.4156945 40.6773006,54.4156945 C40.3336634,54.4156945 40.055105,54.6957594 40.055105,55.0412549" id="Fill-53" fill="#FFFFFF" mask="url(#mask-4)"></path>
                                <path d="M37.0024695,55.0412549 C37.0024695,55.3867505 37.2810279,55.6669917 37.6246652,55.6669917 C37.9683024,55.6669917 38.2468608,55.3867505 38.2468608,55.0412549 C38.2468608,54.6957594 37.9683024,54.4156945 37.6246652,54.4156945 C37.2810279,54.4156945 37.0024695,54.6957594 37.0024695,55.0412549" id="Fill-54" fill="#FFCA6E" mask="url(#mask-4)"></path>
                                <path d="M33.9498516,55.0412549 C33.9498516,55.3867505 34.22841,55.6669917 34.5720473,55.6669917 C34.9156845,55.6669917 35.1942429,55.3867505 35.1942429,55.0412549 C35.1942429,54.6957594 34.9156845,54.4156945 34.5720473,54.4156945 C34.22841,54.4156945 33.9498516,54.6957594 33.9498516,55.0412549" id="Fill-55" fill="#3165E8" mask="url(#mask-4)"></path>
                                <polygon id="Fill-60" fill="#FFCA6E" mask="url(#mask-4)" points="21.2718298 67.3231377 43.5161583 67.3231377 43.5161583 57.3725476 21.2718298 57.3725476"></polygon>
                                <polygon id="Fill-61" fill="#EFEFEF" mask="url(#mask-4)" points="21.2718298 67.3231377 43.5161583 67.3231377 43.5161583 63.5794753 21.2718298 63.5794753"></polygon>
                                <polygon id="Fill-62" fill="#EFEFEF" mask="url(#mask-4)" points="21.2718298 63.5794753 23.3701395 63.5794753 23.3701395 57.3725476 21.2718298 57.3725476"></polygon>
                                <polygon id="Fill-63" fill="#000000" mask="url(#mask-4)" points="87.5410716 73.1613781 84.9865084 74.6442401 81.4161192 68.4263779 83.9706823 66.9436922"></polygon>
                                <path d="M87.5698571,42.8064082 C92.1525642,50.7868446 89.4329359,60.9913978 81.4954241,65.5990636 C73.557737,70.2065532 63.4080714,67.4722176 58.8253643,59.4917812 C54.2426573,51.5111684 56.9622856,41.3066153 64.8997974,36.6991258 C72.8374845,32.0916362 82.9871501,34.8259718 87.5698571,42.8064082" id="Fill-65" fill="#FFFFFF" opacity="0.504383176" mask="url(#mask-4)"></path>
                                <path d="M81.4954417,65.5991165 C73.5579299,70.2066061 63.4080889,67.4722705 58.8253819,59.4918341 C54.2426748,51.5112213 56.9623032,41.3066682 64.8998149,36.6991787 C72.8373266,32.0916892 82.9871676,34.8260248 87.5698747,42.8064611 C92.1525817,50.7868975 89.4329534,60.9914507 81.4954417,65.5991165 M61.9233796,31.5158632 C51.1383622,37.7760526 47.4434286,51.641201 53.6699461,62.4843655 C59.896639,73.3273535 73.6870351,77.0426214 84.471877,70.782432 C95.2565435,64.5220663 98.951828,50.6569178 92.7253105,39.8139298 C86.4984421,28.9707654 72.7080461,25.2556738 61.9233796,31.5158632" id="Fill-66" fill="#FFCA6E" mask="url(#mask-4)"></path>
                                <path d="M23.0270285,13.0213386 C23.0270285,15.9106974 20.6973469,18.2529776 17.8235291,18.2529776 C14.9497113,18.2529776 12.6200297,15.9106974 12.6200297,13.0213386 C12.6200297,10.1319797 14.9497113,7.78969955 17.8235291,7.78969955 C20.6973469,7.78969955 23.0270285,10.1319797 23.0270285,13.0213386" id="Fill-67" fill="#FF8885" mask="url(#mask-4)"></path>
                            </g>
                        </g>
                    </g>
                </g>
            </g>
        </g>
    </g>
</svg>