<?xml version="1.0" encoding="UTF-8"?>
<svg width="68px" height="16px" viewBox="0 0 68 16" version="1.1" xmlns="http://www.w3.org/2000/svg" xmlns:xlink="http://www.w3.org/1999/xlink">
    <!-- Generator: Sketch 63.1 (92452) - https://sketch.com -->
    <title>logo/openeuler/彩色</title>
    <desc>Created with Sketch.</desc>
    <defs>
        <polygon id="path-1" points="0 0 14.4316446 0 14.4316446 16 0 16"></polygon>
    </defs>
    <g id="页面-1" stroke="none" stroke-width="1" fill="none" fill-rule="evenodd">
        <g id="首页" transform="translate(-146.000000, -36.000000)">
            <g id="logo/openeuler/彩色" transform="translate(146.000000, 30.000000)">
                <g id="编组" transform="translate(0.000000, 6.000000)">
                    <path d="M28.6675695,10.0837252 C27.7820557,10.0837252 27.0639561,9.38245859 27.0639561,8.51742143 C27.0639561,7.65238426 27.7820557,6.95111764 28.6675695,6.95111764 C29.5531557,6.95111764 30.2711829,7.65238426 30.2711829,8.51742143 C30.2711829,9.38245859 29.5531557,10.0837252 28.6675695,10.0837252 M28.6675695,5.61141506 C28.0022575,5.61141506 27.3900227,5.82739101 26.8945144,6.18779955 L26.8945144,5.70222555 C26.8945144,5.65207436 26.8528057,5.61141506 26.8014663,5.61141506 L25.6528835,5.61141506 C25.6016165,5.61141506 25.5599802,5.65207436 25.5599802,5.70222555 L25.5599802,13.1904072 C25.5599802,13.2406292 25.6016165,13.2812885 25.6528835,13.2812885 L26.8014663,13.2812885 C26.8528057,13.2812885 26.8945144,13.2406292 26.8945144,13.1904072 L26.8945144,10.8469725 C27.3900227,11.2074518 28.0022575,11.423357 28.6675695,11.423357 C30.3107917,11.423357 31.6427192,10.1222595 31.6427192,8.51742143 C31.6427192,6.91237089 30.3107917,5.61141506 28.6675695,5.61141506" id="Fill-1" fill="#000000"></path>
                    <path d="M34.2498618,7.43893004 C34.5480502,7.15289826 34.9214736,7.00981153 35.3699871,7.00981153 C35.8290727,7.00981153 36.2057546,7.15119822 36.5006845,7.43390075 C36.6057528,7.53469897 36.6801913,7.62940538 36.7465197,7.75251664 C36.7540505,7.76654197 36.772298,7.79848856 36.7770772,7.81364725 C36.790618,7.85628993 36.7575986,7.85628993 36.7575986,7.85628993 L33.9925856,7.85628993 C33.9925856,7.85628993 33.9525423,7.85628993 33.9717312,7.81768485 C33.9909201,7.7791506 34.0123538,7.74174971 34.0350908,7.70512801 C34.0942506,7.60971325 34.1647065,7.5203903 34.2498618,7.43893004 M36.5239284,9.61228987 C36.5139357,9.62369431 36.5041602,9.63545292 36.4929365,9.64621985 C36.192793,9.93373916 35.8168352,10.0774634 35.3647735,10.0774634 C34.9127118,10.0774634 34.5392884,9.93551003 34.2447206,9.65103663 C34.1136567,9.52466696 34.0139468,9.37973853 33.9427668,9.21795136 C33.9114853,9.14683301 33.8853449,9.07252708 33.8651423,8.99503358 C33.8611597,8.97994572 33.8631872,8.96910797 33.8678215,8.96138695 C33.8728903,8.95288675 33.8835347,8.94289901 33.8966411,8.94268651 C33.9054028,8.94261567 33.946677,8.94268651 33.946677,8.94268651 L35.0662955,8.94268651 L36.8911244,8.94268651 C37.2150187,8.94261567 37.9134226,8.94261567 38.2372444,8.94268651 C38.2387651,8.94268651 38.3211688,8.94410321 38.3300029,8.8736932 C38.3300029,8.8736932 38.3494815,8.7073726 38.3495539,8.53850193 C38.3496263,8.13375067 38.2428925,7.75804177 38.2428201,7.75804177 C38.1767813,7.5258446 38.080185,7.30179345 37.952959,7.08603001 C37.6887313,6.63757355 37.3208112,6.28254847 36.8494881,6.02067143 C36.3778755,5.7592194 35.8743296,5.6283163 35.3388504,5.6283163 C34.5979413,5.6283163 33.9421151,5.87978059 33.3716615,6.3825675 C32.7209765,6.96008536 32.3958512,7.68231914 32.3958512,8.548773 C32.3958512,9.35728383 32.6836124,10.044596 33.2592797,10.6102844 C33.8350193,11.1759728 34.5299474,11.4589586 35.3439192,11.4589586 C35.8969218,11.4589586 36.4034365,11.3305348 36.8625221,11.0740412 C37.2586101,10.8527526 37.578377,10.5531205 37.8305844,10.1837868 C37.8357256,10.1763491 37.8384048,10.1587112 37.8201572,10.1501401 C37.686921,10.0876636 37.5506436,10.031279 37.415742,9.97199007 C37.1983642,9.87643363 36.9806968,9.78116054 36.7628846,9.68617079 C36.6431169,9.63389455 36.6225521,9.62504018 36.6010461,9.61561912 C36.5781642,9.60548971 36.5488378,9.58409754 36.5239284,9.61228987" id="Fill-3" fill="#000000"></path>
                    <path d="M41.6760923,5.63195013 C40.305787,5.63195013 39.1950027,6.71693001 39.1950027,8.05535756 L39.1950027,9.57703529 L39.1950027,10.6767489 L39.1950027,11.3333894 C39.1950027,11.3875074 39.2398975,11.4313542 39.2952919,11.4313542 L40.5288128,11.4313542 C40.5842796,11.4313542 40.6291744,11.3875074 40.6291744,11.3333894 L40.6291744,10.6767489 L40.6291744,10.2501096 L40.6291744,9.57703529 L40.6291744,8.05535756 C40.6291744,7.49051918 41.0978906,7.03271249 41.6760923,7.03271249 C42.2542215,7.03271249 42.7230101,7.49051918 42.7230101,8.05535756 L42.7230101,9.57703529 L42.7230101,10.2501096 L42.7230101,10.6767489 L42.7230101,11.3333894 C42.7230101,11.3875074 42.7679049,11.4313542 42.8232993,11.4313542 L44.0568202,11.4313542 C44.112287,11.4313542 44.1571818,11.3875074 44.1571818,11.3333894 L44.1571818,10.6767489 L44.1571818,9.57703529 L44.1571818,8.05535756 C44.1571818,6.71693001 43.0463251,5.63195013 41.6760923,5.63195013" id="Fill-5" fill="#000000"></path>
                    <path d="M49.7800387,5.31149254 C49.8354331,5.31149254 49.8803279,5.26757483 49.8803279,5.21352772 L49.8803279,4.00692412 C49.8803279,3.95280617 49.8354331,3.9089593 49.7800387,3.9089593 L46.3685406,3.9089593 L45.0608708,3.9089593 C45.0054764,3.9089593 44.9605816,3.95280617 44.9605816,4.00692412 L44.9605816,5.21352772 L44.9605816,6.76013937 L44.9605816,7.96667213 L44.9605816,10.134861 L44.9605816,11.3414646 C44.9605816,11.3955826 45.0054764,11.4394294 45.0608708,11.4394294 L46.3685406,11.4394294 L49.7800387,11.4394294 C49.8354331,11.4394294 49.8803279,11.3955826 49.8803279,11.3414646 L49.8803279,10.134861 C49.8803279,10.0807431 49.8354331,10.0368962 49.7800387,10.0368962 L46.4688298,10.0368962 L46.4688298,8.06470778 L49.6101626,8.06470778 C49.6656294,8.06470778 49.7105242,8.02079008 49.7105242,7.96667213 L49.7105242,6.76013937 C49.7105242,6.70602142 49.6656294,6.66217455 49.6101626,6.66217455 L46.4688298,6.66217455 L46.4688298,5.31149254 L49.7800387,5.31149254 Z" id="Fill-7" fill="#000000"></path>
                    <path d="M52.9032544,11.4166914 C51.5330215,11.4166914 50.4221648,10.3317115 50.4221648,8.99328396 L50.4221648,7.47160623 L50.4221648,6.37182183 L50.4221648,5.71518127 C50.4221648,5.66113416 50.4670596,5.61721645 50.5225264,5.61721645 L51.7560473,5.61721645 C51.8114417,5.61721645 51.8563365,5.66113416 51.8563365,5.71518127 L51.8563365,6.37182183 L51.8563365,6.79853194 L51.8563365,7.47160623 L51.8563365,8.99328396 C51.8563365,9.55805151 52.3251252,10.0158582 52.9032544,10.0158582 C53.481456,10.0158582 53.9501722,9.55805151 53.9501722,8.99328396 L53.9501722,7.47160623 L53.9501722,6.79853194 L53.9501722,6.37182183 L53.9501722,5.71518127 C53.9501722,5.66113416 53.995067,5.61721645 54.0505338,5.61721645 L55.2840548,5.61721645 C55.3394492,5.61721645 55.384344,5.66113416 55.384344,5.71518127 L55.384344,6.37182183 L55.384344,7.47160623 L55.384344,8.99328396 C55.384344,10.3317115 54.2735596,11.4166914 52.9032544,11.4166914" id="Fill-9" fill="#000000"></path>
                    <path d="M57.5364995,11.4060732 L56.178142,11.4060732 C56.1581566,11.4060732 56.1419365,11.3902062 56.1419365,11.3706557 L56.1419365,3.94438389 C56.1419365,3.92483343 56.1581566,3.90896638 56.178142,3.90896638 L57.5364995,3.90896638 C57.5564849,3.90896638 57.5727049,3.92483343 57.5727049,3.94438389 L57.5727049,11.3706557 C57.5727049,11.3902062 57.5564849,11.4060732 57.5364995,11.4060732" id="Fill-11" fill="#000000"></path>
                    <path d="M67.5992931,5.86143432 C67.1342698,5.95196147 66.7345613,6.1630498 66.4301455,6.44879824 L66.4301455,5.71296414 C66.4301455,5.65884619 66.3852507,5.61499931 66.3299288,5.61499931 L65.1783046,5.61499931 C65.1230551,5.61499931 65.0780878,5.65884619 65.0780878,5.71296414 L65.0780878,11.3449851 C65.0780878,11.3991031 65.1230551,11.4429499 65.1783046,11.4429499 L66.3299288,11.4429499 C66.3852507,11.4429499 66.4301455,11.3991031 66.4301455,11.3449851 L66.4301455,8.41454066 C66.4562135,8.1253213 66.5405723,7.91883724 66.7427437,7.70951978 C67.0299256,7.3726993 67.4293446,7.16947365 67.9152222,7.07490891 C67.9368731,7.07072964 67.958886,7.06839209 67.958886,7.06839209 C67.9808989,7.06647954 67.999581,7.05394175 67.999581,7.02737862 C67.9976983,6.30599486 67.9990741,6.0434803 67.9995086,6.02867578 C68.0005223,5.99325828 67.9996534,5.87269709 67.9996534,5.84365473 C67.9996534,5.82637099 67.995888,5.8170916 67.9685167,5.81886248 C67.9685167,5.81886248 67.7771345,5.826796 67.5992931,5.86143432" id="Fill-13" fill="#000000"></path>
                    <path d="M60.1793552,7.412714 C60.4775436,7.12668222 60.8509669,6.98352466 61.2994805,6.98352466 C61.7586385,6.98352466 62.1353204,7.12498218 62.4301779,7.40768471 C62.5353186,7.50848294 62.6096847,7.60318935 62.6760131,7.72622976 C62.6836163,7.74032593 62.7017914,7.77227252 62.7065705,7.78743121 C62.7201838,7.83007389 62.687092,7.83007389 62.687092,7.83007389 L59.9221514,7.83007389 C59.9221514,7.83007389 59.8820357,7.83007389 59.9012246,7.79146881 C59.9204859,7.75293456 59.9418472,7.71553368 59.9645842,7.67891197 C60.0238164,7.58349721 60.0942723,7.49417426 60.1793552,7.412714 M62.4534942,9.586003 C62.4434291,9.59747827 62.4336536,9.60916605 62.4224299,9.62000381 C62.1223588,9.90752312 61.746401,10.0512474 61.2942669,10.0512474 C60.8422052,10.0512474 60.4687818,9.909294 60.174214,9.62482059 C60.0431501,9.49845093 59.9435126,9.35352249 59.8723326,9.19173532 C59.8409787,9.12061697 59.8149107,9.04631105 59.7946357,8.96874671 C59.7906531,8.95372968 59.792753,8.94289193 59.7973873,8.93517091 C59.8023836,8.92667071 59.813028,8.91668297 59.8261344,8.91647047 C59.8349686,8.91639963 59.8761704,8.91647047 59.8761704,8.91647047 L60.9957889,8.91647047 L62.8206902,8.91647047 C63.1445121,8.91639963 63.8429159,8.91639963 64.1667378,8.91647047 C64.1683309,8.91647047 64.2507346,8.91788717 64.2594963,8.84747717 C64.2594963,8.84747717 64.2790474,8.68115656 64.2790474,8.51228589 C64.2791921,8.10753463 64.1723859,7.73182573 64.1723859,7.73182573 C64.1062747,7.49962856 64.0096784,7.27557742 63.8824523,7.05981397 C63.6182247,6.61128667 63.2503045,6.25626159 62.7789815,5.99445539 C62.3074413,5.73300336 61.8038954,5.60202942 61.2683438,5.60202942 C60.5274347,5.60202942 59.8716085,5.85356455 59.3011549,6.35628063 C58.6504699,6.93386932 58.3253446,7.6561031 58.3253446,8.52255697 C58.3253446,9.33106779 58.6131058,10.0183091 59.188773,10.5840683 C59.7645127,11.1496859 60.4594408,11.4327426 61.2734126,11.4327426 C61.8264876,11.4327426 62.3329299,11.3043187 62.7920879,11.0478251 C63.1881035,10.8265366 63.5079428,10.5269045 63.7601502,10.1575707 C63.765219,10.150133 63.7679706,10.1324951 63.749723,10.1239241 C63.6164144,10.0614476 63.480137,10.0050629 63.3453077,9.94577403 C63.1278576,9.8502176 62.9102626,9.75494451 62.6924504,9.65995475 C62.5726102,9.60767852 62.5521179,9.59882414 62.5306119,9.58940308 C62.5076576,9.57927368 62.4783312,9.5578815 62.4534942,9.586003" id="Fill-15" fill="#000000"></path>
                    <path d="M23.0857045,8.50795787 C23.0857045,8.60167259 23.0345099,8.68823298 22.9514545,8.73512575 L21.4411064,9.58684594 C21.3581235,9.63373872 21.2556619,9.63373872 21.1725341,9.58684594 L19.6622585,8.73512575 C19.5789858,8.68823298 19.5280085,8.60167259 19.5280085,8.50795787 L19.5280085,6.8045175 C19.5280085,6.71080278 19.5789858,6.6242424 19.6622585,6.57720795 L21.1725341,5.7255586 C21.2556619,5.67873666 21.3581235,5.67873666 21.4411064,5.7255586 L22.9514545,6.57720795 C23.0345099,6.6242424 23.0857045,6.71080278 23.0857045,6.8045175 L23.0857045,8.50795787 Z M24.395981,5.55477539 L21.6255372,3.99243836 C21.4282173,3.88115656 21.1853509,3.88115656 20.9881034,3.99243836 L18.217732,5.55477539 C18.0204845,5.66598636 17.8989789,5.87147873 17.8989789,6.09382983 L17.8989789,9.21850388 C17.8989789,9.44099665 18.0206293,9.64648902 18.217732,9.75769999 L20.9881034,11.3201078 C21.1853509,11.4311771 21.4282173,11.4311771 21.6255372,11.3201078 L24.395981,9.75769999 C24.5930837,9.64648902 24.7145893,9.44099665 24.7145893,9.21850388 L24.7145893,6.09382983 C24.7145893,5.87147873 24.5930837,5.66598636 24.395981,5.55477539 L24.395981,5.55477539 Z" id="Fill-17" fill="#000000"></path>
                    <g>
                        <mask id="mask-2" fill="white">
                            <use xlink:href="#path-1"></use>
                        </mask>
                        <g id="Clip-20"></g>
                        <path d="M12.9453369,6.23833325 C12.6272355,6.63238842 11.8093536,6.79226305 11.1595375,6.58939157 C10.5395547,6.39572865 10.3397005,5.95145145 10.6755426,5.60131399 C10.9992196,5.26413933 11.7232569,5.11857338 12.32673,5.27093949 C12.9571399,5.43003493 13.2506216,5.86014512 12.9453369,6.23833325 M10.0783693,5.43371835 C9.73897903,5.77259305 9.01081428,5.9183715 8.48489338,5.75410511 C8.19228064,5.66272794 8.03087658,5.47232343 8.02225967,5.31329883 C8.01559786,5.1908251 7.82675004,5.0785516 7.61878573,5.017846 C7.40944561,4.95657371 7.16752054,4.96231135 6.92494378,4.99121203 C6.86317722,4.99864971 6.73341676,5.02606286 6.65028896,5.05319267 C6.42726316,5.12586939 6.23392586,5.20789633 6.07302868,5.3387286 C5.87281234,5.50157829 5.80619424,5.79072681 5.81075614,5.89818352 C5.81734553,6.04877876 5.95948828,6.17762765 6.17563503,6.25717537 C6.38816124,6.33530638 6.6525337,6.34954422 6.91582,6.30881409 C7.23754195,6.22430792 7.58974893,6.22076617 7.8785963,6.32021853 C8.40755846,6.50233534 8.54122912,6.96835889 8.14094126,7.36786835 C7.72421611,7.78409488 6.92211975,7.94035692 6.38917499,7.71113482 C6.09381063,7.58412764 5.98982847,7.35193048 5.97411529,7.13737122 C5.96173302,6.96991726 5.80814934,6.83575574 5.59931609,6.75202876 C5.38932427,6.66780593 5.14377866,6.670781 4.86919625,6.69380238 C4.83306317,6.69684828 4.66984884,6.72893655 4.56912518,6.75493299 C4.43154433,6.7903505 4.1489243,6.86798567 3.91148872,7.09649942 C3.7239443,7.2771287 3.64030962,7.44755774 3.59237356,7.55019767 C3.56500221,7.60906157 3.53154834,7.74251473 3.53010012,7.78820331 C3.52394519,7.97676612 3.63335817,8.14747849 3.84682572,8.25706026 C4.05710718,8.36501282 4.33473086,8.39384267 4.6220576,8.35275836 C4.97947816,8.25819362 5.354567,8.26803969 5.64464536,8.4064513 C6.17773495,8.6609615 6.24000839,9.26582166 5.73935892,9.76563351 C5.2153207,10.2888209 4.32271063,10.4566999 3.79461741,10.1341881 C3.50526316,9.95752556 3.42126643,9.69111508 3.46210622,9.38071605 C3.46210622,9.38014937 3.46174416,9.37958269 3.46174416,9.37894518 C3.46174416,9.37731597 3.46080282,9.30471009 3.45095493,9.26582166 C3.45095493,9.26575083 3.44313454,9.20426604 3.40316368,9.12542667 C3.34950715,9.01974083 3.26058648,8.93197625 3.14002221,8.86397464 C2.93430263,8.74773439 2.66247184,8.71777118 2.37869323,8.75928049 C2.02322776,8.85334939 1.67536545,8.83996157 1.44705365,8.70055827 C1.05777226,8.4626943 1.17406428,7.957924 1.67391723,7.57668997 C1.93184512,7.37991031 2.24610874,7.25070724 2.54241444,7.20027271 L2.54364543,7.19928102 C2.82612064,7.14346304 3.11699552,7.01829757 3.34465562,6.83979334 C3.56818829,6.66440585 3.68469755,6.47357633 3.69483508,6.30838908 L3.69577643,6.30768073 C3.69686259,6.30399731 3.69939698,6.21878279 3.68375621,6.12853898 C3.67376349,5.9859481 3.681077,5.84498643 3.81358908,5.69113278 C3.89830992,5.59302629 4.08201656,5.49768237 4.28310183,5.46070649 C4.42075509,5.43534756 4.59808957,5.44108519 4.69830635,5.4358434 C4.78512711,5.43130996 4.93668328,5.41402622 4.99005016,5.39837168 C5.19272848,5.33901194 5.31358239,5.27263953 5.46383516,5.15484091 C5.61727402,5.03449222 5.71242203,4.9081934 5.72907656,4.7930865 C5.7326247,4.76871926 5.74095196,4.65602075 5.73841757,4.64249127 C5.68722302,4.3724682 6.07179769,4.07616535 6.59757377,3.98060892 C6.86397374,3.93229944 7.11516741,3.94490807 7.3051738,4.0040553 C7.31169079,4.00554284 7.31864224,4.00674703 7.32515923,4.00830541 C7.51755519,4.05682739 7.63985732,4.1472837 7.68634517,4.25799882 L7.68837267,4.2585655 C7.68866232,4.26132807 7.68924161,4.26394896 7.68960366,4.26671153 C7.6971344,4.286687 7.70278246,4.30708749 7.70531684,4.32826715 C7.75093576,4.4469158 7.88315819,4.54870571 8.09778432,4.60650708 C8.30857266,4.66324593 8.55962151,4.66728352 8.80256032,4.62754508 C9.09524548,4.5511141 9.42609121,4.53871797 9.70965258,4.61026134 C10.2271738,4.7408811 10.4055944,5.10695644 10.0783693,5.43371835 M8.84984469,11.4404565 C8.33152694,12.0861177 7.29626725,12.2726263 6.60314942,11.8493871 C5.95050931,11.4507276 5.89287018,10.6795468 6.41748768,10.130788 C6.91784751,9.60717559 7.80712667,9.43880076 8.45469801,9.74799559 C9.13905411,10.0746158 9.34187725,10.827592 8.84984469,11.4404565 M13.9334571,3.64322175 L7.71407857,0.130584345 C7.40575265,-0.0435281149 7.02595709,-0.0435281149 6.71770358,0.130584345 L0.498180255,3.64322175 C0.189854331,3.81733421 -7.24109733e-06,4.13913767 -7.24109733e-06,4.48729176 L-7.24109733e-06,11.5126374 C-7.24109733e-06,11.8609332 0.189854331,12.182595 0.498180255,12.3567782 L6.71770358,15.8694865 C7.02595709,16.0435281 7.40575265,16.0435281 7.71407857,15.8694865 L13.9334571,12.3567782 C14.241783,12.182595 14.4316446,11.8609332 14.4316446,11.5126374 L14.4316446,4.48729176 C14.4316446,4.13913767 14.241783,3.81733421 13.9334571,3.64322175" id="Fill-19" fill="#002FA7" mask="url(#mask-2)"></path>
                    </g>
                </g>
            </g>
        </g>
    </g>
</svg>